<svg width="40" height="40" viewBox="0 0 40 40" fill="none" xmlns="http://www.w3.org/2000/svg">
<path fill-rule="evenodd" clip-rule="evenodd" d="M25.4704 2H11.1765C9.42215 2 8 3.42215 8 5.17646V34.8235C8 36.5779 9.42215 38 11.1765 38H31.8233C33.5776 38 34.9998 36.5779 34.9998 34.8235V11.5294L25.4704 2Z" fill="#C4ECFF"/>
<path d="M28.7836 11.5294H35.0001L25.6072 2V8.35296C25.6072 10.1073 27.0293 11.5294 28.7836 11.5294Z" fill="#00ADFF"/>
<path fill-rule="evenodd" clip-rule="evenodd" d="M20.6055 22.042C20.1695 21.606 19.5781 21.3611 18.9615 21.3611L8.62936 21.3611C7.59083 21.3611 6.59484 21.7736 5.86049 22.508C5.12614 23.2423 4.71359 24.2383 4.71359 25.2768C4.71359 26.3154 5.12614 27.3113 5.86049 28.0457C6.59484 28.78 7.59083 29.1926 8.62936 29.1926H18.9615C19.4347 29.1926 19.8183 29.5762 19.8183 30.0494C19.8183 30.5226 19.4347 30.9062 18.9615 30.9062H8.62936C7.13636 30.9062 5.70451 30.3131 4.6488 29.2574C3.59309 28.2017 3 26.7698 3 25.2768C3 23.7838 3.59309 22.352 4.6488 21.2963C5.70451 20.2406 7.13636 19.6475 8.62936 19.6475L18.9615 19.6475C20.0326 19.6475 21.0598 20.0729 21.8171 20.8303C22.5745 21.5877 23 22.6149 23 23.686C23 24.757 22.5745 25.7843 21.8171 26.5416C21.0598 27.299 20.0326 27.7245 18.9615 27.7245L8.62374 27.7189C7.97458 27.7189 7.35201 27.461 6.89299 27.002C6.43397 26.5429 6.17609 25.9204 6.17609 25.2712C6.17609 24.622 6.43397 23.9995 6.89299 23.5405C7.35201 23.0814 7.97458 22.8236 8.62374 22.8236L18.1638 22.8292C18.637 22.8295 19.0203 23.2133 19.0201 23.6865C19.0198 24.1597 18.6359 24.543 18.1627 24.5428L8.62374 24.5371C8.42906 24.5371 8.24234 24.6145 8.10468 24.7521C7.96702 24.8898 7.88968 25.0765 7.88968 25.2712C7.88968 25.4659 7.96702 25.6526 8.10468 25.7903C8.24234 25.9279 8.42905 26.0053 8.62374 26.0053L18.9615 26.0109C19.5779 26.0108 20.1696 25.7658 20.6055 25.3299C21.0415 24.8939 21.2864 24.3026 21.2864 23.686C21.2864 23.0694 21.0415 22.478 20.6055 22.042Z" fill="#00ADFF"/>
</svg>
