<svg width="24" height="24" viewBox="0 0 24 24" fill="none" xmlns="http://www.w3.org/2000/svg">
<g clip-path="url(#clip0_132_2228)">
<path fill-rule="evenodd" clip-rule="evenodd" d="M12.1432 2C8.23328 2 5 5.02752 5 8.83067C5 10.9732 6.15928 13.6257 7.42909 15.9187C8.71801 18.2461 10.2024 20.3435 10.9984 21.419C11.1297 21.5986 11.3015 21.7448 11.4998 21.8457C11.6991 21.9471 11.9196 22 12.1432 22C12.3668 22 12.5873 21.9471 12.7866 21.8457C12.9849 21.7448 13.1566 21.5986 13.2879 21.4191C14.084 20.344 15.5683 18.2474 16.8573 15.9202C18.1271 13.6274 19.2864 10.9747 19.2864 8.83067C19.2864 5.02752 16.0531 2 12.1432 2ZM6.42864 8.83067C6.42864 5.88262 8.95455 3.42864 12.1432 3.42864C15.3318 3.42864 17.8577 5.88262 17.8577 8.83067C17.8577 10.5739 16.874 12.9413 15.6075 15.228C14.3634 17.4743 12.9224 19.5118 12.1432 20.5643C11.364 19.5113 9.92296 17.4731 8.67889 15.2266C7.41231 12.9394 6.42864 10.5723 6.42864 8.83067ZM10.7145 9.14319C10.7145 8.35417 11.3542 7.71455 12.1432 7.71455C12.9322 7.71455 13.5718 8.35417 13.5718 9.14319C13.5718 9.9322 12.9322 10.5718 12.1432 10.5718C11.3542 10.5718 10.7145 9.9322 10.7145 9.14319ZM12.1432 6.28591C10.5652 6.28591 9.28591 7.56516 9.28591 9.14319C9.28591 10.7212 10.5652 12.0005 12.1432 12.0005C13.7212 12.0005 15.0005 10.7212 15.0005 9.14319C15.0005 7.56516 13.7212 6.28591 12.1432 6.28591Z" fill="#F79F1F"/>
</g>
<defs>
<clipPath id="clip0_132_2228">
<rect width="24" height="24" fill="white"/>
</clipPath>
</defs>
</svg>
