<svg width="32" height="32" viewBox="0 0 32 32" fill="none" xmlns="http://www.w3.org/2000/svg">
<circle cx="16" cy="16" r="12" fill="#BE0000"/>
<path d="M20.666 12.668C20.4892 12.668 20.3196 12.7382 20.1946 12.8632C20.0696 12.9883 19.9993 13.1578 19.9993 13.3346V20.7953C19.9802 21.1324 19.8287 21.4483 19.5777 21.6742C19.3267 21.9001 18.9966 22.0177 18.6593 22.0013H13.3393C13.0021 22.0177 12.672 21.9001 12.421 21.6742C12.17 21.4483 12.0185 21.1324 11.9993 20.7953V13.3346C11.9993 13.1578 11.9291 12.9883 11.8041 12.8632C11.6791 12.7382 11.5095 12.668 11.3327 12.668C11.1559 12.668 10.9863 12.7382 10.8613 12.8632C10.7363 12.9883 10.666 13.1578 10.666 13.3346V20.7953C10.685 21.4861 10.9771 22.1412 11.4781 22.6172C11.9792 23.0931 12.6485 23.3511 13.3393 23.3346H18.6593C19.3502 23.3511 20.0195 23.0931 20.5206 22.6172C21.0216 22.1412 21.3137 21.4861 21.3327 20.7953V13.3346C21.3327 13.1578 21.2624 12.9883 21.1374 12.8632C21.0124 12.7382 20.8428 12.668 20.666 12.668Z" fill="white"/>
<path d="M21.3328 10.668H18.6662V9.33464C18.6662 9.15782 18.5959 8.98826 18.4709 8.86323C18.3459 8.73821 18.1763 8.66797 17.9995 8.66797H13.9995C13.8227 8.66797 13.6531 8.73821 13.5281 8.86323C13.4031 8.98826 13.3328 9.15782 13.3328 9.33464V10.668H10.6662C10.4894 10.668 10.3198 10.7382 10.1948 10.8632C10.0697 10.9883 9.99951 11.1578 9.99951 11.3346C9.99951 11.5114 10.0697 11.681 10.1948 11.806C10.3198 11.9311 10.4894 12.0013 10.6662 12.0013H21.3328C21.5097 12.0013 21.6792 11.9311 21.8043 11.806C21.9293 11.681 21.9995 11.5114 21.9995 11.3346C21.9995 11.1578 21.9293 10.9883 21.8043 10.8632C21.6792 10.7382 21.5097 10.668 21.3328 10.668ZM14.6662 10.668V10.0013H17.3328V10.668H14.6662Z" fill="white"/>
<path d="M15.3333 19.3333V14.6667C15.3333 14.4899 15.2631 14.3203 15.1381 14.1953C15.013 14.0702 14.8435 14 14.6667 14C14.4899 14 14.3203 14.0702 14.1953 14.1953C14.0702 14.3203 14 14.4899 14 14.6667V19.3333C14 19.5101 14.0702 19.6797 14.1953 19.8047C14.3203 19.9298 14.4899 20 14.6667 20C14.8435 20 15.013 19.9298 15.1381 19.8047C15.2631 19.6797 15.3333 19.5101 15.3333 19.3333Z" fill="white"/>
<path d="M17.9993 19.3333V14.6667C17.9993 14.4899 17.9291 14.3203 17.8041 14.1953C17.6791 14.0702 17.5095 14 17.3327 14C17.1559 14 16.9863 14.0702 16.8613 14.1953C16.7363 14.3203 16.666 14.4899 16.666 14.6667V19.3333C16.666 19.5101 16.7363 19.6797 16.8613 19.8047C16.9863 19.9298 17.1559 20 17.3327 20C17.5095 20 17.6791 19.9298 17.8041 19.8047C17.9291 19.6797 17.9993 19.5101 17.9993 19.3333Z" fill="white"/>
</svg>
