<svg width="250" height="160" viewBox="0 0 250 160" fill="none" xmlns="http://www.w3.org/2000/svg">
<g clip-path="url(#clip0_83_1046)">
<path d="M90.8951 43.1973L89.1899 54.5616H99.623L97.304 70.0526C97.1413 71.1413 96.8134 72.1985 96.3412 73.177C99.0721 75.1865 100.843 78.4185 100.843 82.0702C100.843 83.5183 100.565 84.9008 100.053 86.1679C100.373 85.9239 100.691 85.6668 101 85.3992C104.951 81.9967 107.719 77.2222 108.542 71.7368L111.116 54.5616H121.552L123.257 43.1973H90.8951Z" fill="#F79F1F"/>
<path d="M151.174 27.3054C151.174 28.6538 151.074 30.0153 150.867 31.3926C148.868 44.7113 137.43 54.5621 123.965 54.5621H123.815L125.533 43.1163C128.76 42.7963 131.824 41.4872 134.301 39.3597C137.173 36.8859 139.065 33.4571 139.626 29.7084C140.321 25.0755 139.02 20.5712 135.967 17.0218C134.319 15.1094 132.32 13.6587 130.093 12.73C129.395 12.4362 128.671 12.1948 127.934 12.0086C126.662 11.6885 125.329 11.5206 123.965 11.5206H93.2478C90.6035 11.5206 88.0431 12.4703 86.0362 14.1991C84.0293 15.9253 82.7098 18.3178 82.3189 20.9359L75.4431 66.779C74.9578 70.0084 75.8654 73.1538 77.9982 75.6276C78.5596 76.2756 79.1788 76.8501 79.8425 77.3433C80.4799 77.8181 81.162 78.2169 81.8808 78.529C83.2659 79.1482 84.7822 79.4682 86.3694 79.4682C89.0163 79.4682 91.5767 78.5186 93.5836 76.7898C94.1476 76.3044 94.6566 75.7666 95.1052 75.1843C97.1671 76.7714 98.5024 79.2688 98.5024 82.0706C98.5024 85.0219 97.0228 87.6321 94.7641 89.2035C92.8858 89.9616 90.8842 90.4732 88.8039 90.6988C88.0037 90.788 87.1931 90.8326 86.3694 90.8326C85.1338 90.8326 83.9218 90.7329 82.7413 90.5388C70.8706 88.6211 62.3499 77.422 64.1994 65.0896L71.0752 19.2464C72.7253 8.27292 82.1536 0.15625 93.2478 0.15625H123.965C125.911 0.15625 127.805 0.360872 129.623 0.743882C130.366 0.89866 131.095 1.08492 131.806 1.30266C143.115 4.69203 151.174 15.2222 151.174 27.3054Z" fill="#0B91D0"/>
<path d="M122.49 81.7676C120.148 81.7676 118.232 81.6154 116.74 81.3164C115.25 81.0147 114.106 80.4822 113.306 79.7188C112.508 78.9554 112.018 77.8824 111.842 76.4973C111.664 75.1121 111.716 73.3571 112.002 71.227C112.427 68.4226 113.12 66.2137 114.077 64.6003C115.035 62.987 116.472 61.8248 118.39 61.1139C120.308 60.4056 122.897 60.0488 126.163 60.0488C129.959 60.0488 132.551 60.7152 133.936 62.0452C135.321 63.3752 135.817 65.4608 135.426 68.2993L134.893 72.0245H120.04C120.111 71.387 120.323 70.8439 120.68 70.4006C121.034 69.9572 121.604 69.7343 122.383 69.7343H129.411L129.571 68.4567C129.783 66.7882 129.597 65.5369 129.012 64.7027C128.427 63.8684 127.246 63.4513 125.473 63.4513C123.983 63.4513 122.784 63.6638 121.879 64.0888C120.974 64.5138 120.273 65.2693 119.775 66.3501C119.277 67.4336 118.87 69.0207 118.55 71.1141C118.301 73.0318 118.301 74.4852 118.55 75.4794C118.797 76.4737 119.384 77.14 120.308 77.4758C121.231 77.8142 122.561 77.9821 124.3 77.9821C124.94 77.9821 125.746 77.9637 126.722 77.9296C127.698 77.8955 128.7 77.8509 129.731 77.7958C130.759 77.7434 131.664 77.6725 132.446 77.5833C133.225 77.4942 133.742 77.4155 133.988 77.3446L133.881 78.1972C133.844 78.6222 133.702 79.076 133.456 79.5535C133.207 80.0336 132.797 80.4139 132.231 80.6973C131.486 81.1223 130.313 81.4082 128.718 81.5499C127.123 81.6968 125.045 81.7676 122.49 81.7676Z" fill="#F79F1F"/>
<path d="M149.55 81.7668C146.57 81.7668 144.191 81.4546 142.417 80.8355C140.641 80.2138 139.445 79.133 138.823 77.5878C138.202 76.0453 138.068 73.9072 138.425 71.1737C138.779 68.831 139.277 66.9238 139.915 65.4521C140.552 63.9804 141.405 62.834 142.47 62.0182C143.535 61.2023 144.902 60.6435 146.57 60.3418C148.239 60.0402 150.261 59.8906 152.638 59.8906C153.561 59.8906 154.438 59.9352 155.272 60.0244C156.106 60.1136 157.108 60.2474 158.281 60.4232C158.884 60.494 159.38 60.6357 159.771 60.8482C160.162 61.0606 160.419 61.4174 160.542 61.9132C160.666 62.4117 160.658 63.1383 160.516 64.0959C160.162 63.9175 159.574 63.7679 158.758 63.6446C157.942 63.5214 157.09 63.4243 156.203 63.3508C155.317 63.28 154.501 63.2433 153.756 63.2433C151.875 63.2433 150.34 63.4741 149.152 63.9358C147.963 64.3976 147.058 65.1793 146.436 66.2785C145.815 67.3777 145.363 68.8704 145.08 70.7513C144.868 72.6323 144.902 74.1223 145.188 75.2241C145.471 76.3233 146.137 77.1051 147.184 77.5668C148.231 78.0285 149.731 78.2594 151.683 78.2594C152.57 78.2594 153.467 78.2148 154.372 78.1256C155.277 78.0364 156.119 77.9314 156.901 77.8055C157.68 77.6822 158.286 77.5301 158.711 77.3543L158.391 79.1644C158.32 79.9095 157.877 80.4682 157.061 80.8408C156.245 81.2133 155.188 81.4625 153.895 81.5858C152.593 81.7038 151.145 81.7668 149.55 81.7668Z" fill="#F79F1F"/>
<path d="M163.879 81.4467C162.848 81.4467 162.218 81.2971 161.99 80.9954C161.759 80.6938 161.696 80.1166 161.804 79.264L165.264 54.5625H171.704L170.852 60.7904C171.277 60.6828 171.817 60.5857 172.476 60.4965C173.132 60.4073 173.832 60.347 174.58 60.3103C175.325 60.2762 176.017 60.2578 176.655 60.2578C178.961 60.2578 180.789 60.4362 182.138 60.7904C183.486 61.1445 184.454 61.7033 185.039 62.4667C185.624 63.2301 185.952 64.1981 186.023 65.3681C186.094 66.5381 186.023 67.9416 185.81 69.5733L184.533 78.5164C184.425 79.369 184.268 79.9986 184.053 80.4052C183.84 80.8144 183.52 81.0899 183.095 81.2315C182.67 81.3732 182.064 81.444 181.285 81.444H177.825L179.582 68.6132C179.795 67.1231 179.769 65.9951 179.504 65.2317C179.239 64.4683 178.74 63.9541 178.014 63.6892C177.287 63.4242 176.301 63.2904 175.06 63.2904C174.635 63.2904 174.118 63.3166 173.517 63.3691C172.914 63.4216 172.337 63.495 171.786 63.5816C171.235 63.6708 170.784 63.7862 170.429 63.9279L167.982 81.4414H163.879V81.4467Z" fill="#F79F1F"/>
<path d="M0.9375 129.551V104.07H8.42456C9.9566 104.07 11.1974 104.354 12.1524 104.92C13.1073 105.487 13.8077 106.311 14.2589 107.389C14.7101 108.47 14.9357 109.773 14.9357 111.306C14.9357 112.963 14.6524 114.299 14.0858 115.317C13.5191 116.335 12.7269 117.074 11.709 117.533C10.6911 117.995 9.49227 118.226 8.10714 118.226H5.59134V129.551H0.9375ZM5.59396 114.955H7.35423C8.19371 114.955 8.84955 114.834 9.32175 114.593C9.79395 114.351 10.1193 113.963 10.2976 113.428C10.476 112.893 10.5652 112.174 10.5652 111.274C10.5652 110.351 10.497 109.603 10.3606 109.026C10.2242 108.449 9.93037 108.024 9.47915 107.751C9.02793 107.478 8.31963 107.342 7.35685 107.342H5.59658V114.955H5.59396Z" fill="#0B91D0"/>
<path d="M17.6401 129.551V104.07H22.2336V129.551H17.6401Z" fill="#0B91D0"/>
<path d="M33.0868 129.897C31.2819 129.897 29.8469 129.562 28.7766 128.89C27.7062 128.218 26.9429 127.253 26.4811 125.996C26.0194 124.737 25.7886 123.25 25.7886 121.529V111.998C25.7886 110.28 26.0194 108.806 26.4811 107.578C26.9429 106.35 27.7089 105.414 28.7766 104.763C29.8469 104.112 31.2819 103.787 33.0868 103.787C34.931 103.787 36.3843 104.112 37.4441 104.763C38.5014 105.414 39.27 106.353 39.7396 107.578C40.2118 108.806 40.4479 110.277 40.4479 111.998V121.56C40.4479 123.258 40.2118 124.732 39.7396 125.981C39.2674 127.229 38.5014 128.195 37.4441 128.874C36.3817 129.556 34.931 129.897 33.0868 129.897ZM33.0868 126.466C33.8633 126.466 34.4352 126.298 34.8024 125.962C35.1697 125.627 35.4163 125.165 35.5422 124.58C35.6681 123.992 35.7311 123.352 35.7311 122.66V110.925C35.7311 110.212 35.6681 109.572 35.5422 109.008C35.4163 108.441 35.1697 107.995 34.8024 107.67C34.4352 107.344 33.8633 107.182 33.0868 107.182C32.3522 107.182 31.7961 107.344 31.4209 107.67C31.0432 107.995 30.7913 108.441 30.6654 109.008C30.5395 109.574 30.4765 110.214 30.4765 110.925V122.66C30.4765 123.352 30.5342 123.992 30.6497 124.58C30.7651 125.167 31.0117 125.629 31.3894 125.962C31.7646 126.301 32.3312 126.466 33.0868 126.466Z" fill="#0B91D0"/>
<path d="M43.874 129.551V104.07H47.1139L53.3102 118.604V104.07H57.1482V129.551H54.0658L47.8379 114.325V129.551H43.874Z" fill="#0B91D0"/>
<path d="M71.2092 129.551V107.499H67.1509V104.07H79.8584V107.499H75.863V129.551H71.2092Z" fill="#0B91D0"/>
<path d="M82.1885 129.551V104.07H92.8839V107.342H86.8449V114.671H91.5958V117.911H86.8449V126.34H92.9469V129.548H82.1885V129.551Z" fill="#0B91D0"/>
<path d="M102.509 129.897C100.641 129.897 99.1796 129.53 98.1198 128.796C97.0599 128.061 96.3202 127.062 95.903 125.792C95.4833 124.522 95.2734 123.061 95.2734 121.403V112.313C95.2734 110.571 95.4833 109.063 95.903 107.782C96.3228 106.505 97.0599 105.519 98.1198 104.826C99.177 104.133 100.641 103.787 102.509 103.787C104.269 103.787 105.649 104.086 106.646 104.684C107.64 105.282 108.348 106.138 108.768 107.247C109.188 108.357 109.398 109.648 109.398 111.117V113.255H104.93V111.054C104.93 110.34 104.893 109.69 104.82 109.102C104.746 108.514 104.547 108.047 104.222 107.701C103.896 107.355 103.335 107.182 102.54 107.182C101.743 107.182 101.16 107.365 100.796 107.733C100.428 108.1 100.192 108.593 100.087 109.212C99.9824 109.831 99.9299 110.529 99.9299 111.303V122.376C99.9299 123.3 100.003 124.06 100.15 124.656C100.297 125.254 100.565 125.705 100.953 126.01C101.341 126.314 101.871 126.466 102.543 126.466C103.319 126.466 103.87 126.282 104.195 125.915C104.521 125.548 104.725 125.06 104.809 124.451C104.893 123.843 104.935 123.161 104.935 122.408V120.112H109.403V122.156C109.403 123.667 109.203 125.002 108.805 126.167C108.406 127.332 107.708 128.242 106.714 128.903C105.712 129.567 104.314 129.897 102.509 129.897Z" fill="#0B91D0"/>
<path d="M112.7 129.551V104.07H117.325V114.734H122.546V104.07H127.171V129.551H122.546V118.037H117.325V129.551H112.7Z" fill="#0B91D0"/>
<path d="M131.072 129.551V104.07H134.312L140.508 118.604V104.07H144.346V129.551H141.264L135.036 114.325V129.551H131.072Z" fill="#0B91D0"/>
<path d="M155.136 129.897C153.331 129.897 151.896 129.562 150.825 128.89C149.755 128.218 148.992 127.253 148.53 125.996C148.068 124.737 147.837 123.25 147.837 121.529V111.998C147.837 110.28 148.068 108.806 148.53 107.578C148.992 106.35 149.758 105.414 150.825 104.763C151.896 104.112 153.331 103.787 155.136 103.787C156.98 103.787 158.433 104.112 159.493 104.763C160.55 105.414 161.319 106.353 161.788 107.578C162.261 108.806 162.497 110.277 162.497 111.998V121.56C162.497 123.258 162.261 124.732 161.788 125.981C161.316 127.229 160.55 128.195 159.493 128.874C158.433 129.556 156.98 129.897 155.136 129.897ZM155.136 126.466C155.912 126.466 156.484 126.298 156.851 125.962C157.219 125.627 157.465 125.165 157.591 124.58C157.717 123.992 157.78 123.352 157.78 122.66V110.925C157.78 110.212 157.717 109.572 157.591 109.008C157.465 108.441 157.219 107.995 156.851 107.67C156.484 107.344 155.912 107.182 155.136 107.182C154.401 107.182 153.845 107.344 153.47 107.67C153.092 107.995 152.84 108.441 152.714 109.008C152.588 109.574 152.525 110.214 152.525 110.925V122.66C152.525 123.352 152.583 123.992 152.698 124.58C152.814 125.167 153.061 125.629 153.438 125.962C153.813 126.301 154.38 126.466 155.136 126.466Z" fill="#0B91D0"/>
<path d="M165.923 129.551V104.07H170.579V126.34H176.744V129.548H165.923V129.551Z" fill="#0B91D0"/>
<path d="M185.774 129.897C183.969 129.897 182.534 129.562 181.464 128.89C180.393 128.218 179.63 127.253 179.168 125.996C178.706 124.737 178.476 123.25 178.476 121.529V111.998C178.476 110.28 178.706 108.806 179.168 107.578C179.63 106.35 180.396 105.414 181.464 104.763C182.534 104.112 183.969 103.787 185.774 103.787C187.618 103.787 189.071 104.112 190.131 104.763C191.188 105.414 191.957 106.353 192.427 107.578C192.899 108.806 193.135 110.277 193.135 111.998V121.56C193.135 123.258 192.899 124.732 192.427 125.981C191.954 127.229 191.188 128.195 190.131 128.874C189.071 129.556 187.618 129.897 185.774 129.897ZM185.774 126.466C186.55 126.466 187.122 126.298 187.489 125.962C187.857 125.627 188.103 125.165 188.229 124.58C188.355 123.992 188.418 123.352 188.418 122.66V110.925C188.418 110.212 188.355 109.572 188.229 109.008C188.103 108.441 187.857 107.995 187.489 107.67C187.122 107.344 186.55 107.182 185.774 107.182C185.039 107.182 184.483 107.344 184.108 107.67C183.73 107.995 183.478 108.441 183.352 109.008C183.226 109.574 183.164 110.214 183.164 110.925V122.66C183.164 123.352 183.221 123.992 183.337 124.58C183.452 125.167 183.699 125.629 184.076 125.962C184.452 126.301 185.018 126.466 185.774 126.466Z" fill="#0B91D0"/>
<path d="M202.95 129.897C201.271 129.897 199.941 129.541 198.954 128.827C197.968 128.114 197.259 127.101 196.832 125.792C196.402 124.483 196.187 122.935 196.187 121.151V112.596C196.187 110.77 196.396 109.199 196.816 107.877C197.236 106.555 197.973 105.545 199.033 104.842C200.09 104.139 201.554 103.787 203.422 103.787C205.164 103.787 206.546 104.081 207.575 104.669C208.603 105.256 209.34 106.101 209.791 107.2C210.242 108.302 210.468 109.637 210.468 111.211V112.533H206.032V111.085C206.032 110.267 205.974 109.566 205.859 108.979C205.743 108.391 205.513 107.945 205.166 107.641C204.82 107.337 204.259 107.184 203.482 107.184C202.664 107.184 202.071 107.384 201.706 107.782C201.339 108.181 201.108 108.706 201.013 109.357C200.919 110.007 200.872 110.721 200.872 111.495V122.158C200.872 123.04 200.945 123.806 201.092 124.454C201.239 125.105 201.512 125.603 201.911 125.947C202.309 126.293 202.876 126.466 203.608 126.466C204.364 126.466 204.941 126.277 205.339 125.899C205.738 125.522 206.016 124.997 206.174 124.328C206.331 123.656 206.41 122.862 206.41 121.938V119.548H203.671V116.623H210.591V129.551H207.603L207.257 127.035C206.921 127.875 206.412 128.562 205.73 129.095C205.051 129.63 204.122 129.897 202.95 129.897Z" fill="#0B91D0"/>
<path d="M214.271 129.551V104.07H218.865V129.551H214.271Z" fill="#0B91D0"/>
<path d="M222.798 129.551V104.07H233.493V107.342H227.454V114.671H232.205V117.911H227.454V126.34H233.556V129.548H222.798V129.551Z" fill="#0B91D0"/>
<path d="M242.677 129.897C241.145 129.897 239.868 129.598 238.839 129C237.811 128.402 237.034 127.528 236.512 126.374C235.988 125.22 235.694 123.806 235.631 122.127L239.626 121.34C239.668 122.326 239.789 123.195 239.988 123.95C240.188 124.706 240.492 125.288 240.901 125.695C241.31 126.104 241.848 126.309 242.52 126.309C243.275 126.309 243.81 126.083 244.125 125.632C244.44 125.181 244.597 124.609 244.597 123.916C244.597 122.804 244.346 121.894 243.842 121.18C243.338 120.466 242.667 119.753 241.827 119.042L238.619 116.211C237.716 115.435 236.998 114.572 236.465 113.617C235.93 112.662 235.662 111.484 235.662 110.078C235.662 108.063 236.25 106.513 237.423 105.421C238.598 104.33 240.201 103.787 242.236 103.787C243.433 103.787 244.427 103.971 245.224 104.338C246.022 104.705 246.657 105.214 247.129 105.865C247.601 106.515 247.95 107.255 248.184 108.082C248.414 108.911 248.561 109.787 248.624 110.708L244.66 111.4C244.618 110.603 244.529 109.889 244.393 109.259C244.256 108.63 244.015 108.139 243.669 107.78C243.323 107.423 242.814 107.245 242.142 107.245C241.449 107.245 240.92 107.47 240.552 107.922C240.185 108.373 240.001 108.934 240.001 109.603C240.001 110.464 240.18 111.172 240.537 111.725C240.893 112.282 241.407 112.853 242.079 113.441L245.256 116.24C246.303 117.122 247.2 118.155 247.945 119.338C248.69 120.522 249.062 121.954 249.062 123.633C249.062 124.85 248.795 125.928 248.26 126.873C247.725 127.817 246.98 128.554 246.027 129.089C245.072 129.63 243.957 129.897 242.677 129.897Z" fill="#0B91D0"/>
<path d="M53.8847 155.814C52.8459 155.814 51.9828 155.591 51.2955 155.148C50.6055 154.702 50.0835 154.088 49.7267 153.304C49.3726 152.517 49.1627 151.606 49.105 150.567L51.3296 149.967C51.3742 150.604 51.4739 151.221 51.6286 151.811C51.7834 152.404 52.0405 152.889 52.3947 153.267C52.7514 153.645 53.2473 153.833 53.8847 153.833C54.5353 153.833 55.0311 153.652 55.3643 153.288C55.6975 152.926 55.8654 152.401 55.8654 151.719C55.8654 150.903 55.6791 150.247 55.3092 149.751C54.9393 149.256 54.4724 148.755 53.9083 148.251L50.8836 145.583C50.2907 145.064 49.8526 144.497 49.5719 143.883C49.2912 143.269 49.1496 142.508 49.1496 141.603C49.1496 140.284 49.5273 139.261 50.2829 138.534C51.0384 137.807 52.0694 137.445 53.3732 137.445C54.0841 137.445 54.7111 137.537 55.2515 137.723C55.7919 137.91 56.2431 138.193 56.6078 138.581C56.9698 138.967 57.261 139.452 57.4761 140.037C57.6912 140.622 57.8355 141.307 57.909 142.094L55.7736 142.671C55.729 142.078 55.6398 141.533 55.506 141.037C55.3722 140.541 55.1387 140.139 54.8055 139.835C54.4724 139.531 53.9949 139.379 53.3706 139.379C52.7462 139.379 52.2635 139.547 51.9146 139.88C51.5657 140.213 51.3925 140.706 51.3925 141.359C51.3925 141.908 51.4844 142.359 51.6706 142.716C51.8543 143.07 52.1559 143.434 52.5704 143.804L55.6162 146.472C56.2982 147.065 56.899 147.773 57.4184 148.595C57.9378 149.418 58.1975 150.392 58.1975 151.52C58.1975 152.409 58.0113 153.175 57.6414 153.82C57.2715 154.466 56.7626 154.959 56.1172 155.3C55.4745 155.644 54.7295 155.814 53.8847 155.814Z" fill="#F79F1F"/>
<path d="M60.1099 140.851V138.361H62.4893V140.851H60.1099ZM60.1099 155.615V142.763H62.4893V155.615H60.1099Z" fill="#F79F1F"/>
<path d="M65.0439 155.614V142.762H67.2449V143.985C67.6752 143.497 68.15 143.132 68.6694 142.896C69.1889 142.66 69.7214 142.539 70.2697 142.539C70.7445 142.539 71.1695 142.657 71.5472 142.896C71.925 143.132 72.1952 143.554 72.3579 144.163C72.817 143.599 73.318 143.19 73.8584 142.93C74.3988 142.67 74.9655 142.542 75.5584 142.542C75.9729 142.542 76.3506 142.641 76.6916 142.841C77.0327 143.04 77.3055 143.36 77.5154 143.798C77.7226 144.236 77.8276 144.811 77.8276 145.522V155.617H75.6476V145.677C75.6476 145.055 75.5479 144.635 75.3485 144.42C75.1491 144.205 74.8789 144.097 74.5379 144.097C74.2126 144.097 73.8715 144.189 73.5148 144.375C73.1606 144.562 72.8327 144.816 72.5363 145.141C72.5363 145.202 72.5363 145.259 72.5363 145.32C72.5363 145.378 72.5363 145.446 72.5363 145.519V155.614H70.3562V145.674C70.3562 145.052 70.2566 144.633 70.0572 144.417C69.8578 144.202 69.5876 144.095 69.2466 144.095C68.9186 144.095 68.5829 144.187 68.2339 144.373C67.885 144.559 67.5545 144.814 67.2449 145.139V155.611H65.0439V155.614Z" fill="#F79F1F"/>
<path d="M80.165 159.839V142.764H82.5444V143.787C82.8251 143.461 83.1662 143.178 83.5675 142.942C83.9689 142.706 84.4411 142.588 84.992 142.588C85.6583 142.588 86.1883 142.761 86.5818 143.11C86.9753 143.459 87.2691 143.897 87.4606 144.422C87.6521 144.949 87.778 145.481 87.8384 146.022C87.8961 146.562 87.9276 147.027 87.9276 147.412V150.526C87.9276 151.431 87.8384 152.286 87.66 153.094C87.4816 153.902 87.1589 154.556 86.692 155.051C86.225 155.547 85.5692 155.797 84.7244 155.797C84.2653 155.797 83.8587 155.681 83.5019 155.453C83.1478 155.222 82.8277 154.96 82.547 154.663V159.844H80.165V159.839ZM84.2549 153.926C84.6693 153.926 84.9658 153.774 85.1442 153.47C85.3226 153.165 85.4327 152.753 85.4773 152.237C85.5219 151.717 85.5429 151.148 85.5429 150.524V147.41C85.5429 146.877 85.5141 146.384 85.4537 145.93C85.3934 145.476 85.2675 145.119 85.076 144.852C84.8818 144.584 84.5801 144.45 84.163 144.45C83.8509 144.45 83.5544 144.516 83.2737 144.65C82.993 144.784 82.749 144.938 82.5392 145.117V153.344C82.7622 153.506 83.014 153.643 83.2947 153.756C83.5806 153.868 83.8981 153.926 84.2549 153.926Z" fill="#F79F1F"/>
<path d="M90.3047 155.615V137.605H92.6841V155.615H90.3047Z" fill="#F79F1F"/>
<path d="M98.7306 155.79C97.7233 155.79 96.9441 155.593 96.3958 155.202C95.8476 154.809 95.4645 154.232 95.2494 153.468C95.0343 152.705 94.9268 151.768 94.9268 150.656V147.721C94.9268 146.579 95.0396 145.63 95.2599 144.874C95.4829 144.119 95.8712 143.547 96.4273 143.161C96.9835 142.775 97.7495 142.584 98.728 142.584C99.8114 142.584 100.606 142.807 101.118 143.25C101.629 143.694 101.968 144.336 102.13 145.173C102.293 146.01 102.374 147.015 102.374 148.185V149.229H97.3061V151.808C97.3061 152.327 97.3534 152.75 97.4504 153.075C97.5475 153.4 97.7023 153.641 97.9174 153.796C98.1325 153.951 98.4106 154.03 98.7516 154.03C99.1084 154.03 99.3786 153.946 99.5622 153.775C99.7485 153.605 99.8744 153.361 99.94 153.041C100.006 152.723 100.04 152.348 100.04 151.918V151.139H102.351V151.627C102.351 152.917 102.075 153.933 101.53 154.672C100.984 155.42 100.05 155.79 98.7306 155.79ZM97.3088 147.944H100.042V146.787C100.042 146.254 100.013 145.805 99.9531 145.441C99.8928 145.079 99.7721 144.803 99.5858 144.617C99.3996 144.433 99.1084 144.339 98.707 144.339C98.3214 144.339 98.0276 144.428 97.8282 144.607C97.6288 144.785 97.4898 145.084 97.4163 145.506C97.3429 145.929 97.3061 146.511 97.3061 147.251V147.944H97.3088Z" fill="#F79F1F"/>
<path d="M113.049 155.789C112.383 155.789 111.845 155.663 111.438 155.411C111.032 155.159 110.735 154.802 110.549 154.343C110.363 153.884 110.271 153.344 110.271 152.719V144.338H108.915V142.759H110.271V139.002H112.65V142.759H114.717V144.338H112.65V152.565C112.65 153.068 112.732 153.428 112.894 153.643C113.057 153.858 113.369 153.966 113.828 153.966C113.946 153.966 114.083 153.958 114.24 153.942C114.395 153.929 114.547 153.913 114.696 153.897V155.655C114.4 155.7 114.125 155.734 113.873 155.755C113.621 155.776 113.345 155.789 113.049 155.789Z" fill="#F79F1F"/>
<path d="M120.03 155.79C119.023 155.79 118.243 155.593 117.695 155.202C117.147 154.809 116.764 154.232 116.549 153.468C116.334 152.705 116.226 151.768 116.226 150.656V147.721C116.226 146.579 116.339 145.63 116.559 144.874C116.782 144.119 117.17 143.547 117.727 143.161C118.283 142.775 119.049 142.584 120.027 142.584C121.111 142.584 121.906 142.807 122.417 143.25C122.929 143.694 123.267 144.336 123.43 145.173C123.592 146.01 123.674 147.015 123.674 148.185V149.229H118.605V151.808C118.605 152.327 118.653 152.75 118.75 153.075C118.847 153.4 119.002 153.641 119.217 153.796C119.432 153.951 119.71 154.03 120.051 154.03C120.408 154.03 120.678 153.946 120.862 153.775C121.048 153.605 121.174 153.361 121.239 153.041C121.305 152.723 121.339 152.348 121.339 151.918V151.139H123.65V151.627C123.65 152.917 123.375 153.933 122.829 154.672C122.283 155.42 121.349 155.79 120.03 155.79ZM118.608 147.944H121.342V146.787C121.342 146.254 121.313 145.805 121.252 145.441C121.192 145.079 121.071 144.803 120.885 144.617C120.699 144.433 120.408 144.339 120.006 144.339C119.621 144.339 119.327 144.428 119.128 144.607C118.928 144.785 118.789 145.084 118.716 145.506C118.642 145.929 118.605 146.511 118.605 147.251V147.944H118.608Z" fill="#F79F1F"/>
<path d="M129.348 155.79C128.296 155.79 127.498 155.58 126.958 155.158C126.418 154.735 126.053 154.14 125.869 153.369C125.683 152.597 125.591 151.7 125.591 150.677V147.721C125.591 146.637 125.688 145.716 125.88 144.953C126.071 144.189 126.439 143.604 126.982 143.195C127.522 142.789 128.312 142.584 129.351 142.584C130.284 142.584 131.006 142.736 131.517 143.04C132.029 143.345 132.381 143.796 132.575 144.397C132.766 144.997 132.863 145.743 132.863 146.632V147.387H130.707V146.608C130.707 146.044 130.67 145.601 130.597 145.276C130.523 144.95 130.389 144.712 130.195 144.565C130.001 144.415 129.728 144.342 129.372 144.342C128.986 144.342 128.689 144.431 128.482 144.609C128.275 144.788 128.139 145.087 128.07 145.509C128.005 145.931 127.971 146.506 127.971 147.233V151.278C127.971 152.374 128.073 153.109 128.283 153.479C128.49 153.849 128.86 154.035 129.395 154.035C129.797 154.035 130.088 153.943 130.274 153.757C130.458 153.571 130.578 153.308 130.628 152.967C130.681 152.626 130.707 152.241 130.707 151.81V150.766H132.863V151.656C132.863 152.516 132.764 153.256 132.564 153.88C132.365 154.502 132.008 154.977 131.496 155.305C130.982 155.627 130.266 155.79 129.348 155.79Z" fill="#F79F1F"/>
<path d="M135.038 155.615V137.605H137.417V144.098C137.848 143.684 138.33 143.327 138.863 143.031C139.395 142.734 139.991 142.585 140.642 142.585C141.145 142.585 141.534 142.718 141.809 142.986C142.084 143.254 142.276 143.587 142.386 143.985C142.496 144.387 142.554 144.793 142.554 145.208V155.615H140.175V145.898C140.175 145.439 140.109 145.082 139.975 144.83C139.841 144.578 139.569 144.452 139.152 144.452C138.871 144.452 138.577 144.534 138.273 144.696C137.968 144.859 137.682 145.061 137.417 145.297V155.615H135.038Z" fill="#F79F1F"/>
<path d="M150.715 155.616V144.522H149.181V142.764H150.715V142.098C150.715 141.298 150.778 140.613 150.904 140.041C151.03 139.469 151.292 139.028 151.694 138.719C152.095 138.407 152.693 138.252 153.496 138.252C153.793 138.252 154.055 138.262 154.286 138.286C154.517 138.307 154.771 138.349 155.052 138.407V140.141C154.918 140.112 154.771 140.086 154.606 140.062C154.443 140.041 154.294 140.028 154.162 140.028C153.703 140.028 153.41 140.18 153.284 140.484C153.158 140.789 153.095 141.193 153.095 141.696V142.764H155.052V144.522H153.092V155.616H150.715Z" fill="#F79F1F"/>
<path d="M159.43 155.79C158.48 155.79 157.733 155.598 157.184 155.213C156.636 154.827 156.245 154.279 156.017 153.568C155.786 152.857 155.673 152.02 155.673 151.055V147.319C155.673 146.356 155.789 145.517 156.017 144.806C156.248 144.095 156.636 143.547 157.184 143.161C157.733 142.775 158.48 142.584 159.43 142.584C160.38 142.584 161.122 142.775 161.665 143.161C162.205 143.547 162.591 144.095 162.822 144.806C163.053 145.517 163.168 146.354 163.168 147.319V151.055C163.168 152.02 163.053 152.857 162.822 153.568C162.591 154.279 162.205 154.83 161.665 155.213C161.122 155.598 160.38 155.79 159.43 155.79ZM159.43 154.035C159.889 154.035 160.212 153.901 160.398 153.634C160.584 153.366 160.694 153.014 160.731 152.576C160.768 152.138 160.786 151.684 160.786 151.21V147.185C160.786 146.697 160.768 146.236 160.731 145.808C160.694 145.378 160.582 145.026 160.398 144.751C160.212 144.475 159.889 144.339 159.43 144.339C158.971 144.339 158.643 144.475 158.451 144.751C158.26 145.026 158.145 145.378 158.108 145.808C158.071 146.238 158.053 146.697 158.053 147.185V151.21C158.053 151.684 158.071 152.138 158.108 152.576C158.145 153.014 158.26 153.366 158.451 153.634C158.646 153.901 158.971 154.035 159.43 154.035Z" fill="#F79F1F"/>
<path d="M165.412 155.615V142.763H167.791V144.586C168.266 143.802 168.738 143.274 169.213 143.007C169.688 142.739 170.163 142.605 170.637 142.605C170.695 142.605 170.753 142.605 170.805 142.605C170.858 142.605 170.929 142.613 171.018 142.626V145.25C170.839 145.176 170.635 145.113 170.406 145.061C170.176 145.008 169.942 144.982 169.706 144.982C169.336 144.982 168.998 145.069 168.693 145.239C168.389 145.41 168.09 145.74 167.794 146.228V155.612H165.412V155.615Z" fill="#F79F1F"/>
<path d="M177.796 155.615V137.605H180.176V155.615H177.796Z" fill="#F79F1F"/>
<path d="M182.82 140.851V138.361H185.2V140.851H182.82ZM182.82 155.615V142.763H185.2V155.615H182.82Z" fill="#F79F1F"/>
<path d="M188.513 155.616V144.522H186.978V142.764H188.513V142.098C188.513 141.298 188.576 140.613 188.702 140.041C188.827 139.469 189.09 139.028 189.491 138.719C189.893 138.407 190.491 138.252 191.293 138.252C191.59 138.252 191.852 138.262 192.083 138.286C192.314 138.307 192.568 138.349 192.849 138.407V140.141C192.715 140.112 192.568 140.086 192.403 140.062C192.24 140.041 192.091 140.028 191.96 140.028C191.501 140.028 191.207 140.18 191.081 140.484C190.955 140.789 190.892 141.193 190.892 141.696V142.764H192.849V144.522H190.892V155.616H188.513Z" fill="#F79F1F"/>
<path d="M197.251 155.79C196.244 155.79 195.465 155.593 194.916 155.202C194.368 154.809 193.985 154.232 193.77 153.468C193.555 152.705 193.447 151.768 193.447 150.656V147.721C193.447 146.579 193.56 145.63 193.78 144.874C194.003 144.119 194.392 143.547 194.948 143.161C195.504 142.775 196.27 142.584 197.249 142.584C198.332 142.584 199.127 142.807 199.638 143.25C200.15 143.694 200.488 144.336 200.651 145.173C200.814 146.01 200.895 147.015 200.895 148.185V149.229H195.827V151.808C195.827 152.327 195.874 152.75 195.971 153.075C196.068 153.4 196.223 153.641 196.438 153.796C196.653 153.951 196.931 154.03 197.272 154.03C197.629 154.03 197.899 153.946 198.083 153.775C198.269 153.605 198.395 153.361 198.46 153.041C198.526 152.723 198.56 152.348 198.56 151.918V151.139H200.871V151.627C200.871 152.917 200.596 153.933 200.05 154.672C199.505 155.42 198.571 155.79 197.251 155.79ZM195.827 147.944H198.56V146.787C198.56 146.254 198.531 145.805 198.471 145.441C198.411 145.079 198.29 144.803 198.104 144.617C197.917 144.433 197.626 144.339 197.225 144.339C196.839 144.339 196.545 144.428 196.346 144.607C196.147 144.785 196.008 145.084 195.934 145.506C195.861 145.929 195.824 146.511 195.824 147.251V147.944H195.827Z" fill="#F79F1F"/>
</g>
<defs>
<clipPath id="clip0_83_1046">
<rect width="250" height="160" fill="white"/>
</clipPath>
</defs>
</svg>
