<svg width="82" height="56" viewBox="0 0 82 56" fill="none" xmlns="http://www.w3.org/2000/svg">
<path d="M18.4341 26.582L17.3058 33.6005H24.2093L22.6748 43.1674C22.5672 43.8397 22.3502 44.4926 22.0377 45.0969C23.8448 46.338 25.0165 48.334 25.0165 50.5892C25.0165 51.4835 24.8325 52.3373 24.494 53.1199C24.7058 52.9692 24.9158 52.8104 25.1206 52.6452C27.7348 50.5438 29.5662 47.5952 30.1112 44.2075L31.8141 33.6005H38.7194L39.8477 26.582H18.4341Z" fill="#F79F1F"/>
<path d="M58.3204 16.7668C58.3204 17.5995 58.2544 18.4404 58.1173 19.291C56.7946 27.5164 49.2262 33.6 40.3161 33.6H40.2171L41.3541 26.5313C43.4892 26.3337 45.5167 25.5252 47.1553 24.2113C49.0561 22.6835 50.3077 20.566 50.6791 18.2508C51.1391 15.3897 50.2781 12.6079 48.2576 10.4159C47.1675 9.23478 45.8448 8.33884 44.371 7.76531C43.9093 7.58386 43.4302 7.4348 42.9424 7.31977C42.1005 7.12212 41.2187 7.01843 40.3161 7.01843H19.9909C18.2411 7.01843 16.5469 7.60492 15.219 8.67259C13.8911 9.73864 13.0179 11.2162 12.7593 12.8331L8.20958 41.145C7.88845 43.1394 8.48905 45.0819 9.90031 46.6097C10.2718 47.0099 10.6814 47.3647 11.1206 47.6693C11.5424 47.9625 11.9938 48.2088 12.4694 48.4016C13.3859 48.7839 14.3892 48.9816 15.4394 48.9816C17.1909 48.9816 18.8851 48.3951 20.2131 47.3274C20.5863 47.0277 20.923 46.6956 21.2199 46.3359C22.5842 47.3161 23.4678 48.8584 23.4678 50.5887C23.4678 52.4114 22.4888 54.0234 20.9942 54.9939C19.7513 55.4621 18.4269 55.778 17.0503 55.9174C16.5209 55.9725 15.9845 56 15.4394 56C14.6218 56 13.8199 55.9384 13.0387 55.8185C5.18397 54.6342 -0.454098 47.7179 0.769684 40.1016L5.31937 11.7897C6.41123 5.0127 12.6499 0 19.9909 0H40.3161C41.6041 0 42.8573 0.126371 44.0603 0.36291C44.5515 0.458499 45.0341 0.573528 45.5045 0.707999C52.9878 2.80122 58.3204 9.30444 58.3204 16.7668Z" fill="#0B91D0"/>
<path d="M39.3405 50.3994C37.7904 50.3994 36.5232 50.3055 35.5355 50.1208C34.5495 49.9345 33.7927 49.6056 33.2632 49.1341C32.7355 48.6626 32.4109 48 32.2946 47.1446C32.1766 46.2891 32.2113 45.2053 32.4005 43.8897C32.6817 42.1578 33.14 40.7936 33.7736 39.7973C34.4072 38.8009 35.3584 38.0832 36.6273 37.6441C37.8962 37.2067 39.6095 36.9863 41.7707 36.9863C44.2825 36.9863 45.9975 37.3978 46.914 38.2193C47.8306 39.0407 48.1586 40.3287 47.9 42.0817L47.5476 44.3822H37.7192C37.7661 43.9886 37.9067 43.6532 38.1427 43.3794C38.3771 43.1056 38.7538 42.9679 39.2693 42.9679H43.9197L44.0256 42.1789C44.1662 41.1485 44.0429 40.3757 43.6558 39.8604C43.2687 39.3452 42.4876 39.0876 41.3142 39.0876C40.3282 39.0876 39.5349 39.2189 38.936 39.4813C38.3372 39.7438 37.8737 40.2104 37.5439 40.8779C37.2141 41.547 36.945 42.5272 36.7332 43.8201C36.5683 45.0044 36.5683 45.9019 36.7332 46.516C36.8964 47.13 37.2852 47.5415 37.8962 47.7489C38.5073 47.9579 39.3874 48.0616 40.5382 48.0616C40.9618 48.0616 41.4947 48.0502 42.1404 48.0292C42.7862 48.0081 43.4493 47.9806 44.1315 47.9465C44.8119 47.9141 45.4108 47.8704 45.9281 47.8153C46.4436 47.7602 46.7856 47.7116 46.9488 47.6679L46.8776 48.1944C46.8533 48.4569 46.7595 48.7372 46.5964 49.032C46.4315 49.3285 46.1607 49.5634 45.7857 49.7384C45.2927 50.0009 44.5168 50.1775 43.4614 50.265C42.406 50.3557 41.0312 50.3994 39.3405 50.3994Z" fill="#F79F1F"/>
<path d="M57.246 50.4009C55.2741 50.4009 53.6996 50.2081 52.5262 49.8258C51.351 49.4418 50.5595 48.7743 50.1481 47.8201C49.7367 46.8674 49.6481 45.547 49.8842 43.8588C50.1186 42.412 50.4484 41.2342 50.8702 40.3253C51.292 39.4164 51.8562 38.7084 52.5609 38.2046C53.2657 37.7007 54.1701 37.3556 55.2741 37.1693C56.3781 36.983 57.7164 36.8906 59.2891 36.8906C59.9001 36.8906 60.4799 36.9182 61.0319 36.9733C61.5839 37.0283 62.247 37.111 63.023 37.2195C63.4222 37.2633 63.7503 37.3507 64.0089 37.482C64.2676 37.6132 64.4377 37.8335 64.5193 38.1398C64.6008 38.4476 64.5956 38.8964 64.5019 39.4877C64.2676 39.3775 63.8787 39.2852 63.3389 39.209C62.799 39.1329 62.2349 39.0729 61.6481 39.0276C61.0614 38.9838 60.5216 38.9612 60.0286 38.9612C58.784 38.9612 57.7685 39.1037 56.9822 39.3889C56.1958 39.674 55.5969 40.1568 55.1855 40.8357C54.7741 41.5145 54.4756 42.4364 54.2881 43.598C54.1475 44.7596 54.1701 45.6799 54.3593 46.3603C54.5467 47.0392 54.9876 47.522 55.6803 47.8071C56.3729 48.0922 57.3658 48.2348 58.6573 48.2348C59.244 48.2348 59.8376 48.2073 60.4365 48.1522C61.0354 48.0971 61.5926 48.0323 62.1099 47.9545C62.6254 47.8784 63.0264 47.7844 63.3076 47.6759L63.0959 48.7938C63.049 49.2539 62.7556 49.599 62.2158 49.829C61.6759 50.0591 60.9764 50.213 60.1206 50.2891C59.2596 50.3621 58.3014 50.4009 57.246 50.4009Z" fill="#F79F1F"/>
<path d="M66.7272 50.2028C66.045 50.2028 65.6284 50.1104 65.4774 49.9241C65.3246 49.7378 65.283 49.3814 65.3542 48.8548L67.6438 33.5996H71.9053L71.3411 37.4458C71.6223 37.3794 71.9799 37.3194 72.4156 37.2644C72.8496 37.2093 73.3131 37.172 73.8078 37.1493C74.3008 37.1283 74.759 37.1169 75.1809 37.1169C76.7067 37.1169 77.9166 37.2271 78.8088 37.4458C79.701 37.6645 80.3416 38.0096 80.7287 38.4811C81.1158 38.9525 81.3328 39.5504 81.3796 40.273C81.4265 40.9955 81.3796 41.8623 81.239 42.87L80.3936 48.3931C80.3225 48.9196 80.2183 49.3084 80.076 49.5596C79.9354 49.8123 79.7236 49.9824 79.4424 50.0699C79.1612 50.1574 78.7602 50.2011 78.2446 50.2011H75.9551L77.1181 42.2771C77.2587 41.3568 77.2413 40.6602 77.066 40.1887C76.8907 39.7172 76.5609 39.3997 76.08 39.2361C75.5992 39.0724 74.9465 38.9898 74.1255 38.9898C73.8442 38.9898 73.5023 39.006 73.1048 39.0384C72.7055 39.0708 72.3236 39.1162 71.9591 39.1696C71.5946 39.2247 71.296 39.296 71.0617 39.3835L69.4421 50.1995H66.7272V50.2028Z" fill="#F79F1F"/>
</svg>
