<svg width="24" height="24" viewBox="0 0 24 24" fill="none" xmlns="http://www.w3.org/2000/svg">
<g clip-path="url(#clip0_28_418)">
<path fill-rule="evenodd" clip-rule="evenodd" d="M3.42857 6.5C3.42857 5.90827 3.90827 5.42857 4.5 5.42857H19.5C20.0917 5.42857 20.5714 5.90827 20.5714 6.5V17.2143C20.5714 17.806 20.0917 18.2857 19.5 18.2857H4.5C3.90827 18.2857 3.42857 17.806 3.42857 17.2143V6.5ZM4.5 4C3.11929 4 2 5.11929 2 6.5V17.2143C2 18.595 3.11929 19.7143 4.5 19.7143H19.5C20.8807 19.7143 22 18.595 22 17.2143V6.5C22 5.11929 20.8807 4 19.5 4H4.5ZM6.00996 7.00761C5.69857 6.76541 5.2498 6.82151 5.00761 7.1329C4.76541 7.44429 4.82151 7.89306 5.1329 8.13525L11.5615 13.1353C11.8194 13.3359 12.1806 13.3359 12.4385 13.1353L18.8671 8.13525C19.1785 7.89306 19.2346 7.44429 18.9924 7.1329C18.7502 6.82151 18.3014 6.76541 17.99 7.00761L12 11.6665L6.00996 7.00761Z" fill="white"/>
</g>
<defs>
<clipPath id="clip0_28_418">
<rect width="24" height="24" fill="white"/>
</clipPath>
</defs>
</svg>
