<svg width="24" height="24" viewBox="0 0 24 24" fill="none" xmlns="http://www.w3.org/2000/svg">
<g clip-path="url(#clip0_28_427)">
<path fill-rule="evenodd" clip-rule="evenodd" d="M6.6826 2.31722C6.83234 2.43482 7.00052 2.59305 7.19401 2.78416C7.60855 3.19215 8.08948 3.84583 8.50215 4.47335C8.91945 5.10791 9.30613 5.77592 9.52286 6.24087C9.6457 6.50504 9.7567 6.74503 9.83453 6.95484C9.91357 7.16791 9.97925 7.40228 9.97967 7.65803C9.98056 8.19339 9.68998 8.60657 9.41009 8.98767C9.32967 9.09715 9.26135 9.18686 9.20246 9.26419C9.07553 9.43087 8.99232 9.54013 8.9257 9.6665C8.86072 9.78976 8.84176 9.87876 8.87252 10.022C8.91686 10.2286 9.10967 10.6808 9.48405 11.2724C9.84612 11.8445 10.3418 12.4898 10.9341 13.0802C11.5263 13.6705 12.1613 14.1532 12.722 14.5024C13.2998 14.8623 13.7448 15.047 13.9573 15.0924C14.1052 15.1239 14.1976 15.1042 14.3211 15.0399C14.4514 14.9721 14.5673 14.8836 14.7475 14.7459C14.8184 14.6919 14.8992 14.6302 14.9946 14.5592L15.002 14.5538C15.3844 14.2696 15.8093 13.954 16.3478 13.9545C16.6139 13.9548 16.8527 14.03 17.063 14.1158C17.2639 14.1978 17.4947 14.3141 17.7479 14.4416L17.7691 14.4523C18.2128 14.6761 18.8726 15.0551 19.5114 15.4684C20.1388 15.8743 20.8009 16.3482 21.2132 16.7636C21.4048 16.9571 21.5641 17.1259 21.682 17.2756C21.7961 17.4205 21.9214 17.608 21.9742 17.8411C22.0337 18.1038 21.9798 18.3222 21.9244 18.4738C21.8995 18.5421 21.8701 18.6077 21.849 18.6546C21.8457 18.662 21.8425 18.6691 21.8393 18.6761C21.8197 18.7196 21.8026 18.7576 21.7844 18.8011L21.784 18.8021L21.7835 18.8032C21.597 19.2456 21.37 19.6699 21.1055 20.0707L21.1048 20.0719L21.104 20.0731C20.5872 20.8495 19.2556 21.4331 18.5 21.7851C18.1073 21.968 17.5462 22.1527 16.6743 22.044C15.8356 21.9394 14.7445 21.5681 13.2553 20.734C10.8723 19.3976 9.21848 18.2452 7.08552 16.1182C4.95882 13.9974 3.91349 12.6132 2.44916 9.95306C0.974988 7.27501 1.82255 5.54715 2.24354 4.64755C2.59701 3.89222 3.10934 3.40833 3.8831 2.89426L3.88462 2.89325L3.88615 2.89225C4.28738 2.62863 4.71191 2.40231 5.15443 2.21613L5.15589 2.21551L5.15735 2.2149C5.20114 2.19671 5.23944 2.17954 5.28324 2.1599C5.29011 2.15683 5.29711 2.15369 5.30429 2.15047C5.35134 2.12942 5.41697 2.10014 5.48525 2.07534C5.6366 2.02036 5.85466 1.96666 6.11681 2.02577C6.34988 2.07833 6.53739 2.20317 6.6826 2.31722ZM5.70709 3.5334C5.346 3.68542 4.99956 3.8701 4.67207 4.08513C4.01841 4.51959 3.7382 4.82392 3.53738 5.25303C3.40393 5.5382 2.3115 6.74067 3.7006 9.26419C5.09954 11.8056 6.06306 13.0811 8.09422 15.1066C10.119 17.1258 11.6627 18.2029 13.9534 19.4877C15.3552 20.2728 16.264 20.5532 16.851 20.6264C17.4048 20.6955 17.6953 20.584 17.8968 20.4902C18.3292 20.2887 19.4804 19.9341 19.9141 19.2826C20.1297 18.9557 20.3147 18.6097 20.4669 18.2489C20.4875 18.1998 20.5076 18.1544 20.5246 18.1165C20.458 18.0375 20.356 17.9282 20.199 17.7696C19.9023 17.4708 19.3517 17.0665 18.7354 16.6678C18.1304 16.2763 17.5154 15.9243 17.1261 15.7279C16.8451 15.5864 16.6652 15.4963 16.5231 15.4384C16.3849 15.3819 16.3463 15.3831 16.3463 15.3831C16.3592 15.3831 16.3151 15.3578 15.8467 15.7058C15.7988 15.7414 15.7471 15.781 15.6924 15.823C15.4837 15.983 15.231 16.1767 14.9806 16.307C14.6065 16.5018 14.177 16.5999 13.6593 16.4895C13.2063 16.3928 12.5952 16.1064 11.9668 15.7149C11.3213 15.3129 10.5999 14.7641 9.92563 14.0919C9.25146 13.4199 8.69053 12.6898 8.27695 12.0363C7.8757 11.4023 7.57388 10.7786 7.47582 10.3219C7.36417 9.80176 7.46597 9.37225 7.66202 9.00034C7.78837 8.76067 7.97723 8.51304 8.13268 8.30923C8.17841 8.24927 8.22126 8.19309 8.25876 8.14203C8.55902 7.7332 8.55198 7.66803 8.55121 7.66092C8.55119 7.64716 8.54796 7.5939 8.4952 7.45166C8.44123 7.30618 8.35723 7.12209 8.2279 6.84396C8.05127 6.46516 7.70506 5.86113 7.3086 5.25826C6.90754 4.6484 6.49389 4.0993 6.19162 3.80193L6.1906 3.80092C6.0311 3.64337 5.92141 3.54127 5.84221 3.47481C5.80373 3.49201 5.75736 3.51249 5.70709 3.5334Z" fill="white"/>
</g>
<defs>
<clipPath id="clip0_28_427">
<rect width="24" height="24" fill="white"/>
</clipPath>
</defs>
</svg>
