<svg width="24" height="24" viewBox="0 0 24 24" fill="none" xmlns="http://www.w3.org/2000/svg">
<g clip-path="url(#clip0_28_424)">
<path d="M11.4466 21.2328C11.4447 21.6559 11.7871 22 12.2103 22C12.6306 22 12.9719 21.6603 12.9739 21.2399L12.9785 20.2422C16.4149 20 18.381 18.1094 18.381 15.5781C18.381 12.6953 15.7082 11.5781 13.5959 11.0781L13.0029 10.9297L13.0191 5.91406C14.0717 6.04939 14.8943 6.48103 15.3515 7.15959C15.7091 7.69026 16.214 8.20312 16.8539 8.20312C17.5658 8.20312 18.1577 7.60033 17.9142 6.93137C17.286 5.20621 15.4756 3.99508 13.0272 3.80469L13.0319 2.76707C13.0338 2.34399 12.6914 2 12.2683 2C11.8479 2 11.5065 2.33982 11.5047 2.76022L11.4999 3.82031C8.58343 4.10156 6.44682 5.85156 6.44682 8.375C6.44682 10.6016 8.10411 11.9062 10.7769 12.6016L11.4756 12.7812L11.4593 18.1016C10.3175 17.9664 9.36141 17.4985 8.8678 16.6831C8.52531 16.1174 8.01064 15.5781 7.34931 15.5781C6.61692 15.5781 6.01526 16.2065 6.24894 16.9006C6.8998 18.834 8.74953 20.0488 11.4512 20.2422L11.4466 21.2328ZM12.9866 18.1016L13.0029 13.1875C14.652 13.625 15.895 14.2031 15.895 15.5547C15.895 16.9219 14.7089 17.8828 12.9866 18.1016ZM11.4837 10.5391C10.2732 10.1953 8.94088 9.57813 8.94901 8.23438C8.94901 7.0625 9.91576 6.14844 11.4918 5.92188L11.4837 10.5391Z" fill="white"/>
</g>
<defs>
<clipPath id="clip0_28_424">
<rect width="24" height="24" fill="white"/>
</clipPath>
</defs>
</svg>
