<svg width="24" height="24" viewBox="0 0 24 24" fill="none" xmlns="http://www.w3.org/2000/svg">
<path d="M18.375 5.5H5.625C5.0616 5.50059 4.52145 5.71867 4.12306 6.1064C3.72468 6.49414 3.5006 7.01985 3.5 7.56818V16.4318C3.5006 16.9802 3.72468 17.5059 4.12306 17.8936C4.52145 18.2813 5.0616 18.4994 5.625 18.5H18.375C18.9384 18.4994 19.4786 18.2813 19.8769 17.8936C20.2753 17.5059 20.4994 16.9802 20.5 16.4318V7.56818C20.4994 7.01985 20.2753 6.49414 19.8769 6.1064C19.4786 5.71867 18.9384 5.50059 18.375 5.5Z" stroke="#273A42" stroke-width="2"/>
<path d="M6.5 8.5L12 13L17.5 8.5" stroke="#273A42" stroke-width="2" stroke-linecap="round" stroke-linejoin="round"/>
</svg>
