<svg width="40" height="40" viewBox="0 0 40 40" fill="none" xmlns="http://www.w3.org/2000/svg">
<path fill-rule="evenodd" clip-rule="evenodd" d="M20.2383 3.33301C13.7218 3.33301 8.33301 8.37888 8.33301 14.7175C8.33301 18.2883 10.2651 22.7091 12.3815 26.5308C14.5297 30.4099 17.0036 33.9056 18.3303 35.698C18.5492 35.9973 18.8355 36.2409 19.166 36.4092C19.4982 36.5782 19.8656 36.6663 20.2383 36.6663C20.611 36.6663 20.9784 36.5782 21.3106 36.4092C21.6411 36.2409 21.9273 35.9974 22.1463 35.6981C23.473 33.9064 25.9469 30.412 28.0951 26.5334C30.2116 22.712 32.1436 18.2909 32.1436 14.7175C32.1436 8.37888 26.7548 3.33301 20.2383 3.33301ZM10.7141 14.7175C10.7141 9.80404 14.9239 5.71407 20.2383 5.71407C25.5527 5.71407 29.7626 9.80404 29.7626 14.7175C29.7626 17.6228 28.123 21.5685 26.0122 25.3797C23.9387 29.1235 21.537 32.5193 20.2383 34.2736C18.9396 32.5184 16.5379 29.1214 14.4645 25.3773C12.3535 21.5654 10.7141 17.6201 10.7141 14.7175ZM17.8573 15.2383C17.8573 13.9233 18.9233 12.8573 20.2383 12.8573C21.5533 12.8573 22.6194 13.9233 22.6194 15.2383C22.6194 16.5533 21.5533 17.6194 20.2383 17.6194C18.9233 17.6194 17.8573 16.5533 17.8573 15.2383ZM20.2383 10.4762C17.6083 10.4762 15.4762 12.6083 15.4762 15.2383C15.4762 17.8684 17.6083 20.0004 20.2383 20.0004C22.8684 20.0004 25.0004 17.8684 25.0004 15.2383C25.0004 12.6083 22.8684 10.4762 20.2383 10.4762Z" fill="#0F1A2A"/>
</svg>
