<svg width="40" height="40" viewBox="0 0 40 40" fill="none" xmlns="http://www.w3.org/2000/svg">
<path fill-rule="evenodd" clip-rule="evenodd" d="M5.71396 10.8337C5.71396 9.84744 6.51345 9.04794 7.49967 9.04794H32.4997C33.4859 9.04794 34.2854 9.84744 34.2854 10.8337V28.6908C34.2854 29.677 33.4859 30.4765 32.4997 30.4765H7.49967C6.51345 30.4765 5.71396 29.677 5.71396 28.6908V10.8337ZM7.49967 6.66699C5.19849 6.66699 3.33301 8.53247 3.33301 10.8337V28.6908C3.33301 30.992 5.19849 32.8575 7.49967 32.8575H32.4997C34.8009 32.8575 36.6663 30.992 36.6663 28.6908V10.8337C36.6663 8.53247 34.8009 6.66699 32.4997 6.66699H7.49967ZM10.0163 11.6797C9.49729 11.276 8.74934 11.3695 8.34568 11.8885C7.94203 12.4075 8.03552 13.1554 8.55451 13.5591L19.2688 21.8924C19.6987 22.2268 20.3007 22.2268 20.7306 21.8924L31.4448 13.5591C31.9638 13.1554 32.0573 12.4075 31.6537 11.8885C31.25 11.3695 30.5021 11.276 29.9831 11.6797L19.9997 19.4445L10.0163 11.6797Z" fill="#0F1A2A"/>
</svg>
