<svg width="40" height="40" viewBox="0 0 40 40" fill="none" xmlns="http://www.w3.org/2000/svg">
<path fill-rule="evenodd" clip-rule="evenodd" d="M11.1365 3.8617C11.3861 4.05771 11.6664 4.32142 11.9889 4.63994C12.6798 5.31993 13.4813 6.40939 14.1691 7.45526C14.8646 8.51286 15.5091 9.6262 15.8703 10.4011C16.075 10.8414 16.26 11.2414 16.3897 11.5911C16.5215 11.9462 16.6309 12.3368 16.6316 12.7631C16.6331 13.6553 16.1488 14.344 15.6823 14.9791C15.5483 15.1616 15.4344 15.3111 15.3363 15.44C15.1247 15.7178 14.9861 15.8999 14.875 16.1105C14.7667 16.316 14.7351 16.4643 14.7864 16.7031C14.8603 17.0474 15.1816 17.8011 15.8056 18.787C16.4091 19.7405 17.2353 20.816 18.2224 21.8001C19.2094 22.7839 20.2678 23.5883 21.2023 24.1704C22.1652 24.7702 22.9068 25.0781 23.261 25.1536C23.5075 25.2062 23.6615 25.1733 23.8673 25.0661C24.0845 24.9531 24.2777 24.8056 24.5781 24.5763C24.6962 24.4861 24.8308 24.3833 24.9899 24.265L25.0022 24.2559C25.6395 23.7824 26.3476 23.2563 27.2452 23.2572C27.6887 23.2577 28.0867 23.3829 28.4371 23.526C28.772 23.6627 29.1567 23.8565 29.5786 24.069L29.614 24.0868C30.3535 24.4598 31.4532 25.0916 32.5178 25.7803C33.5636 26.4569 34.6671 27.2467 35.3542 27.939C35.6736 28.2616 35.939 28.5429 36.1355 28.7924C36.3257 29.0339 36.5345 29.3463 36.6225 29.7349C36.7217 30.1726 36.6318 30.5367 36.5396 30.7894C36.498 30.9032 36.449 31.0125 36.4138 31.0908C36.4083 31.103 36.403 31.1148 36.3977 31.1265C36.3651 31.199 36.3365 31.2623 36.3062 31.3348L36.3055 31.3365L36.3048 31.3383C35.9938 32.0757 35.6155 32.7829 35.1748 33.4509L35.1734 33.4529L35.1721 33.4549C34.3109 34.7488 32.0915 35.7215 30.8321 36.3081C30.1776 36.613 29.2425 36.9208 27.7893 36.7396C26.3915 36.5653 24.573 35.9465 22.0911 34.5564C18.1194 32.3289 15.363 30.4083 11.8081 26.8633C8.26356 23.3287 6.52135 21.0217 4.08079 16.5881C1.62384 12.1247 3.03645 9.24492 3.73809 7.74558C4.32721 6.48671 5.18109 5.68022 6.47069 4.82345L6.47323 4.82176L6.47578 4.82008C7.1445 4.38072 7.85205 4.00353 8.58957 3.69322L8.592 3.69219L8.59444 3.69118C8.66743 3.66085 8.73127 3.63223 8.80426 3.59951C8.8157 3.59438 8.82737 3.58915 8.83934 3.5838C8.91777 3.5487 9.02714 3.49991 9.14094 3.45857C9.39319 3.36694 9.75663 3.27744 10.1935 3.37596C10.582 3.46355 10.8945 3.67163 11.1365 3.8617ZM9.51067 5.88868C8.90887 6.14204 8.33146 6.44984 7.78564 6.80823C6.69621 7.53233 6.22919 8.03954 5.8945 8.75472C5.67208 9.23001 3.85135 11.2341 6.16652 15.44C8.49809 19.6756 10.104 21.8016 13.4892 25.1774C16.8639 28.5426 19.4366 30.3379 23.2545 32.4792C25.5908 33.7877 27.1055 34.2551 28.0839 34.3771C29.0069 34.4922 29.491 34.3064 29.8268 34.1499C30.5476 33.8142 32.4661 33.2231 33.189 32.1374C33.5483 31.5926 33.8567 31.0158 34.1104 30.4145C34.1447 30.3327 34.1782 30.257 34.2066 30.1939C34.0956 30.0621 33.9255 29.88 33.6639 29.6157C33.1694 29.1176 32.2516 28.4438 31.2245 27.7793C30.2161 27.1269 29.1912 26.5401 28.5424 26.2129C28.0741 25.977 27.7741 25.8269 27.5374 25.7303C27.307 25.6362 27.2427 25.6381 27.2427 25.6381C27.2642 25.6381 27.1906 25.5961 26.41 26.176C26.3303 26.2353 26.2441 26.3014 26.1528 26.3713C25.805 26.638 25.3839 26.9608 24.9666 27.178C24.343 27.5026 23.6272 27.6661 22.7644 27.4821C22.0093 27.321 20.9909 26.8436 19.9435 26.1913C18.8677 25.5212 17.6654 24.6065 16.5416 23.4862C15.418 22.3662 14.4831 21.1494 13.7938 20.0602C13.125 19.0035 12.622 17.9641 12.4586 17.2028C12.2725 16.3359 12.4421 15.6201 12.7689 15.0002C12.9795 14.6008 13.2943 14.1881 13.5533 13.8484C13.6295 13.7485 13.701 13.6548 13.7635 13.5697C14.2639 12.8883 14.2522 12.7797 14.2509 12.7679C14.2508 12.7449 14.2455 12.6562 14.1575 12.4191C14.0676 12.1766 13.9276 11.8698 13.712 11.4063C13.4177 10.7749 12.8406 9.76823 12.1799 8.76344C11.5114 7.747 10.822 6.83184 10.3182 6.33622L10.3165 6.33454C10.0507 6.07196 9.86787 5.9018 9.73588 5.79102C9.67175 5.81969 9.59446 5.85382 9.51067 5.88868Z" fill="#0F1A2A"/>
</svg>
