<svg width="25" height="24" viewBox="0 0 25 24" fill="none" xmlns="http://www.w3.org/2000/svg">
<path d="M17.6218 20.4999C16.881 20.4999 15.8403 20.2319 14.2819 19.3614C12.3868 18.2989 10.921 17.318 9.03621 15.4385C7.21896 13.6227 6.33463 12.4471 5.09694 10.1954C3.69871 7.65293 3.93706 6.32024 4.2035 5.75066C4.5208 5.06989 4.98915 4.66272 5.59452 4.25859C5.93837 4.03335 6.30224 3.84027 6.68153 3.68179C6.71949 3.66548 6.75478 3.64992 6.78629 3.63588C6.97416 3.55126 7.25882 3.42337 7.61938 3.55998C7.86001 3.6503 8.07483 3.8351 8.4111 4.16713C9.10073 4.84714 10.0431 6.3616 10.3908 7.10536C10.6242 7.60664 10.7787 7.93754 10.7791 8.30866C10.7791 8.74315 10.5604 9.07822 10.2952 9.43985C10.2454 9.50778 10.1961 9.57267 10.1483 9.63566C9.85944 10.0151 9.79605 10.1248 9.8378 10.3206C9.92244 10.7141 10.5536 11.8855 11.5909 12.9203C12.6282 13.9552 13.7661 14.5464 14.1612 14.6306C14.3654 14.6742 14.4773 14.6082 14.869 14.3092C14.9252 14.2663 14.9829 14.2219 15.0432 14.1775C15.4478 13.8766 15.7674 13.6637 16.1917 13.6637H16.194C16.5633 13.6637 16.8794 13.8239 17.4032 14.088C18.0864 14.4325 19.6467 15.3626 20.331 16.0529C20.6639 16.3883 20.8495 16.6023 20.9402 16.8425C21.0768 17.2042 20.9481 17.4876 20.8643 17.6774C20.8502 17.7089 20.8346 17.7434 20.8183 17.7817C20.6586 18.1603 20.4643 18.5233 20.238 18.8662C19.8346 19.4696 19.4258 19.9367 18.7434 20.2543C18.3929 20.4201 18.0094 20.504 17.6218 20.4999Z" stroke="#273A42" stroke-width="1.6"/>
</svg>
