<svg width="361" height="268" viewBox="0 0 361 268" fill="none" xmlns="http://www.w3.org/2000/svg">
<g opacity="0.1">
<path d="M79.6462 127.213L74.6064 160.801H105.442L98.588 206.586C98.1073 209.803 97.1381 212.928 95.7425 215.82C103.814 221.759 109.048 231.311 109.048 242.104C109.048 246.384 108.226 250.47 106.714 254.215C107.66 253.494 108.598 252.734 109.513 251.944C121.19 241.887 129.369 227.776 131.804 211.563L139.41 160.801H170.254L175.293 127.213H79.6462Z" fill="#F79F1F"/>
<path d="M257.806 80.2411C257.806 84.2264 257.512 88.2504 256.899 92.321C250.991 131.686 217.186 160.8 177.387 160.8H176.945L182.024 126.971C191.56 126.026 200.617 122.157 207.936 115.868C216.426 108.557 222.016 98.423 223.675 87.3433C225.73 73.6506 221.884 60.3378 212.859 49.8473C207.99 44.195 202.082 39.9073 195.499 37.1626C193.437 36.2942 191.297 35.5808 189.118 35.0303C185.358 34.0844 181.419 33.5882 177.387 33.5882H86.6012C78.7856 33.5882 71.2182 36.395 65.2868 41.5045C59.3554 46.6063 55.4553 53.6775 54.3001 61.4155L33.9781 196.908C32.5437 206.453 35.2264 215.749 41.53 223.061C43.1893 224.976 45.0191 226.674 46.9808 228.131C48.8649 229.535 50.8808 230.713 53.0052 231.636C57.0991 233.466 61.5806 234.412 66.2715 234.412C74.0948 234.412 81.6622 231.605 87.5936 226.495C89.2606 225.061 90.7648 223.472 92.0907 221.75C98.1849 226.441 102.131 233.823 102.131 242.103C102.131 250.826 97.7585 258.541 91.0827 263.185C85.5312 265.426 79.6153 266.938 73.4667 267.605C71.1019 267.868 68.7061 268 66.2715 268C62.6196 268 59.0374 267.705 55.5484 267.132C20.4637 261.464 -4.71964 228.364 0.746579 191.915L21.0685 56.4223C25.9455 23.9893 53.8116 0 86.6012 0H177.387C183.14 0 188.738 0.604774 194.111 1.73679C196.306 2.19424 198.461 2.74474 200.562 3.38828C233.988 13.4058 257.806 44.5284 257.806 80.2411Z" fill="#0B91D0"/>
<path d="M173.03 241.203C166.106 241.203 160.446 240.753 156.034 239.869C151.63 238.978 148.249 237.404 145.884 235.148C143.527 232.891 142.078 229.72 141.558 225.626C141.031 221.532 141.186 216.345 142.031 210.049C143.287 201.761 145.334 195.232 148.164 190.464C150.994 185.696 155.243 182.261 160.911 180.16C166.579 178.066 174.231 177.012 183.884 177.012C195.104 177.012 202.764 178.981 206.858 182.912C210.952 186.843 212.417 193.007 211.262 201.396L209.688 212.406H165.788C165.997 210.522 166.625 208.917 167.68 207.607C168.726 206.297 170.409 205.638 172.712 205.638H193.483L193.956 201.862C194.584 196.93 194.034 193.232 192.305 190.766C190.576 188.301 187.087 187.068 181.845 187.068C177.441 187.068 173.898 187.696 171.223 188.952C168.548 190.208 166.478 192.441 165.005 195.636C163.531 198.838 162.33 203.529 161.384 209.716C160.647 215.384 160.647 219.679 161.384 222.618C162.113 225.556 163.849 227.526 166.579 228.518C169.308 229.518 173.239 230.015 178.379 230.015C180.271 230.015 182.652 229.96 185.536 229.86C188.42 229.759 191.382 229.627 194.429 229.464C197.469 229.309 200.144 229.1 202.454 228.836C204.757 228.573 206.284 228.34 207.013 228.131L206.695 230.65C206.587 231.907 206.168 233.248 205.439 234.659C204.703 236.078 203.493 237.202 201.818 238.04C199.616 239.296 196.15 240.141 191.436 240.559C186.722 240.994 180.581 241.203 173.03 241.203Z" fill="#F79F1F"/>
<path d="M253.007 241.201C244.199 241.201 237.167 240.279 231.925 238.449C226.676 236.611 223.14 233.417 221.303 228.85C219.465 224.291 219.07 217.972 220.124 209.893C221.171 202.969 222.644 197.332 224.528 192.982C226.412 188.633 228.932 185.244 232.08 182.833C235.228 180.422 239.268 178.77 244.199 177.879C249.13 176.987 255.108 176.545 262.133 176.545C264.862 176.545 267.452 176.677 269.917 176.94C272.383 177.204 275.345 177.599 278.811 178.119C280.594 178.328 282.059 178.747 283.215 179.375C284.37 180.003 285.13 181.057 285.494 182.523C285.859 183.996 285.835 186.144 285.417 188.974C284.37 188.447 282.633 188.005 280.222 187.64C277.81 187.276 275.291 186.989 272.67 186.772C270.049 186.562 267.638 186.454 265.436 186.454C259.877 186.454 255.341 187.136 251.828 188.501C248.316 189.865 245.641 192.176 243.804 195.425C241.966 198.673 240.632 203.085 239.795 208.644C239.167 214.204 239.268 218.608 240.113 221.864C240.95 225.113 242.92 227.423 246.013 228.788C249.107 230.153 253.542 230.835 259.311 230.835C261.931 230.835 264.583 230.703 267.258 230.44C269.933 230.176 272.422 229.866 274.732 229.494C277.035 229.129 278.826 228.68 280.082 228.16L279.136 233.51C278.927 235.712 277.617 237.363 275.205 238.464C272.794 239.565 269.669 240.302 265.847 240.666C262.001 241.015 257.721 241.201 253.007 241.201Z" fill="#F79F1F"/>
<path d="M295.357 240.257C292.31 240.257 290.449 239.815 289.774 238.923C289.092 238.032 288.906 236.326 289.224 233.806L299.451 160.799H318.485L315.965 179.206C317.222 178.888 318.819 178.601 320.765 178.337C322.703 178.074 324.773 177.895 326.983 177.787C329.185 177.686 331.232 177.632 333.116 177.632C339.932 177.632 345.336 178.159 349.321 179.206C353.306 180.252 356.167 181.904 357.896 184.16C359.625 186.416 360.595 189.277 360.804 192.736C361.013 196.194 360.804 200.342 360.176 205.164L356.4 231.596C356.082 234.116 355.617 235.977 354.981 237.179C354.353 238.388 353.407 239.202 352.151 239.621C350.895 240.04 349.104 240.249 346.801 240.249H336.574L341.769 202.327C342.397 197.923 342.32 194.589 341.537 192.332C340.753 190.076 339.28 188.556 337.133 187.773C334.985 186.99 332.069 186.595 328.402 186.595C327.146 186.595 325.619 186.672 323.843 186.827C322.06 186.982 320.354 187.2 318.726 187.455C317.097 187.719 315.764 188.06 314.717 188.479L307.483 240.241H295.357V240.257Z" fill="#F79F1F"/>
</g>
</svg>
