<svg width="120" height="120" viewBox="0 0 120 120" fill="none" xmlns="http://www.w3.org/2000/svg">
<rect width="120" height="120" rx="60" fill="#00ADFF"/>
<rect x="4" y="4" width="112" height="112" rx="56" stroke="black" stroke-opacity="0.1" stroke-width="8"/>
<path d="M42.2156 82.6236H77.785C78.2371 82.6236 78.6019 82.9885 78.6019 83.4405V87.9823C78.6019 88.4344 78.2371 88.7992 77.785 88.7992H42.2156C41.7634 88.7992 41.3987 88.4344 41.3987 87.9823V83.4405C41.3985 82.9885 41.7634 82.6236 42.2156 82.6236ZM59.4222 77.4242L41.9278 59.9247C41.6144 59.6164 41.4141 59.2311 41.3318 58.8202C41.2548 58.4194 41.2907 57.9929 41.4602 57.5819C41.6298 57.176 41.9071 56.842 42.2513 56.6109C42.6008 56.3796 43.0117 56.2513 43.4485 56.2513H51.6998V32.0161C51.6998 31.5641 52.0647 31.1992 52.5167 31.1992H67.4832C67.9302 31.1992 68.3001 31.5641 68.3001 32.0161V56.2513H76.5514C76.9881 56.2513 77.3991 56.3798 77.7484 56.6109C78.0926 56.8422 78.3701 57.176 78.5396 57.5819C78.7092 57.9929 78.7451 58.4194 78.6681 58.8202C78.5858 59.2313 78.3855 59.6166 78.0721 59.9247L60.5777 77.4242C60.2596 77.7427 59.7409 77.7427 59.4222 77.4242Z" fill="white"/>
</svg>
