<svg width="32" height="32" viewBox="0 0 32 32" fill="none" xmlns="http://www.w3.org/2000/svg">
<path d="M17.417 15.4423L3.87429 28.9851C3.2269 28.3727 2.87695 27.5328 2.87695 26.623V5.38148C2.87695 4.45413 3.24439 3.61427 3.90928 2.98438L17.417 15.4423Z" fill="#2196F3"/>
<path d="M29.1226 16.0033C29.1226 17.2281 28.4577 18.3129 27.3553 18.9253L23.506 21.0599L18.7293 16.6507L17.417 15.4434L22.4737 10.3867L27.3553 13.0813C28.4577 13.6937 29.1226 14.7785 29.1226 16.0033Z" fill="#FFC107"/>
<path d="M17.4169 15.4425L3.90918 2.98457C4.08415 2.8096 4.31161 2.65212 4.53908 2.51214C5.64139 1.84726 6.97117 1.82976 8.10848 2.45965L22.4736 10.3858L17.4169 15.4425Z" fill="#4CAF50"/>
<path d="M23.5058 21.0599L8.10832 29.546C7.56591 29.861 6.95351 30.0009 6.35861 30.0009C5.72872 30.0009 5.09882 29.8435 4.53891 29.4935C4.29395 29.3536 4.06649 29.1786 3.87402 28.9861L17.4168 15.4434L18.7291 16.6507L23.5058 21.0599Z" fill="#F44336"/>
</svg>
