<svg width="120" height="120" viewBox="0 0 120 120" fill="none" xmlns="http://www.w3.org/2000/svg">
<path d="M0 60C0 26.8629 26.8629 0 60 0C93.1371 0 120 26.8629 120 60C120 93.1371 93.1371 120 60 120C26.8629 120 0 93.1371 0 60Z" fill="#00ADFF"/>
<path d="M4 60C4 29.0721 29.0721 4 60 4C90.9279 4 116 29.0721 116 60C116 90.9279 90.9279 116 60 116C29.0721 116 4 90.9279 4 60Z" stroke="black" stroke-opacity="0.1" stroke-width="8"/>
<path fill-rule="evenodd" clip-rule="evenodd" d="M49.8397 29.6016H70.0695C73.6396 29.6056 76.5326 32.4986 76.5367 36.0687V40.002H73.7727V36.0687C73.7707 34.0238 72.1139 32.3671 70.0695 32.365H49.8397C47.7953 32.3671 46.1385 34.0238 46.1365 36.0687V40.002H43.373V36.0687C43.3766 32.4986 46.2696 29.6056 49.8397 29.6016ZM43.373 77.602V83.9347C43.3766 87.5048 46.2696 90.3978 49.8397 90.4014H70.0695C73.6396 90.3978 76.5326 87.5048 76.5367 83.9347V77.602H73.7727V83.9347C73.7707 85.9791 72.1139 87.6359 70.0695 87.6379H49.8397C47.7953 87.6359 46.1385 85.9791 46.1365 83.9347V77.602H43.373ZM55.8095 35.1289H64.1004C64.8635 35.1289 65.4819 35.7473 65.4819 36.5104C65.4819 37.2735 64.8635 37.8924 64.1004 37.8924H55.8095C55.0464 37.8924 54.4275 37.2735 54.4275 36.5104C54.4275 35.7473 55.0464 35.1289 55.8095 35.1289ZM62.7184 82.1111C62.7184 83.6378 61.4811 84.8751 59.9549 84.8751C58.4282 84.8751 57.1909 83.6378 57.1909 82.1111C57.1909 80.5849 58.4282 79.3477 59.9549 79.3477C61.4811 79.3477 62.7184 80.5849 62.7184 82.1111Z" fill="white"/>
<rect x="35.2" y="44" width="12.8" height="12.8" rx="3.2" fill="white"/>
<rect x="72" y="44" width="12.8" height="12.8" rx="3.2" fill="white"/>
<rect opacity="0.65" x="53.6001" y="44" width="12.8" height="12.8" rx="3.2" fill="white"/>
<rect opacity="0.65" x="72" y="60.8008" width="12.8" height="12.8" rx="3.2" fill="white"/>
<rect opacity="0.65" x="35.2" y="60.8008" width="12.8" height="12.8" rx="3.2" fill="white"/>
<rect x="53.6001" y="60.8008" width="12.8" height="12.8" rx="3.2" fill="white"/>
</svg>
