<svg width="120" height="120" viewBox="0 0 120 120" fill="none" xmlns="http://www.w3.org/2000/svg">
<path d="M0 60C0 26.8629 26.8629 0 60 0C93.1371 0 120 26.8629 120 60C120 93.1371 93.1371 120 60 120C26.8629 120 0 93.1371 0 60Z" fill="#00ADFF"/>
<path d="M4 60C4 29.0721 29.0721 4 60 4C90.9279 4 116 29.0721 116 60C116 90.9279 90.9279 116 60 116C29.0721 116 4 90.9279 4 60Z" stroke="black" stroke-opacity="0.1" stroke-width="8"/>
<path d="M70.4453 49.1303C70.4453 43.3701 65.7752 38.7012 60.015 38.7012C54.2548 38.7012 49.5847 43.3701 49.5847 49.1303C49.5847 54.8917 54.2548 62.7703 60.015 62.7703C65.7752 62.7703 70.4453 54.8917 70.4453 49.1303Z" fill="white"/>
<path d="M78.8708 79.4928V79.4768C78.8708 71.9598 74.4747 65.4713 68.1122 62.4431C65.7197 64.8281 62.9212 66.1132 60.0151 66.1132C57.1102 66.1132 54.3104 64.8281 51.9192 62.4431C45.5565 65.4713 41.158 71.9599 41.158 79.4768V79.4928C46.1416 84.0123 52.7573 86.7653 60.015 86.7653C67.2715 86.7653 73.8871 84.0123 78.8708 79.4928Z" fill="white"/>
<g opacity="0.65">
<path d="M49.4225 55.9176C48.4201 53.6782 47.8571 51.2956 47.8571 49.1303C47.8571 45.049 49.8792 41.4306 52.9741 39.2233C51.3076 37.2518 48.8151 36 46.0313 36C41.0118 36 36.9429 40.0677 36.9429 45.0872C36.9429 50.108 41.0118 56.9731 46.0313 56.9731C47.23 56.9731 48.3744 56.5818 49.4225 55.9176Z" fill="white"/>
<path d="M52.2174 60.3877C51.8754 59.9865 51.5445 59.5594 51.2248 59.1039C51.0841 58.9026 50.9459 58.6977 50.8138 58.4902C49.3088 59.4062 47.6892 59.8864 46.0313 59.8864C43.5005 59.8864 41.0612 58.7666 38.9774 56.6878C33.4333 59.3272 29.6001 64.9812 29.6001 71.5315V71.5451C32.4085 74.0919 35.8109 75.9942 39.5749 77.0201C39.944 73.9314 41.0056 70.9685 42.6994 68.3402C44.782 65.1096 47.7127 62.5307 51.1767 60.8827L52.2174 60.3877Z" fill="white"/>
</g>
<g opacity="0.65">
<path d="M70.5778 55.9176C71.5801 53.6782 72.1431 51.2956 72.1431 49.1303C72.1431 45.049 70.121 41.4306 67.0261 39.2233C68.6926 37.2518 71.1852 36 73.969 36C78.9884 36 83.0573 40.0677 83.0573 45.0872C83.0573 50.108 78.9884 56.9731 73.969 56.9731C72.7703 56.9731 71.6259 56.5818 70.5778 55.9176Z" fill="white"/>
<path d="M67.7828 60.3877C68.1248 59.9865 68.4557 59.5594 68.7754 59.1039C68.9161 58.9026 69.0544 58.6977 69.1864 58.4902C70.6914 59.4062 72.311 59.8864 73.9689 59.8864C76.4997 59.8864 78.939 58.7666 81.0229 56.6878C86.5669 59.3272 90.4001 64.9812 90.4001 71.5315V71.5451C87.5917 74.0919 84.1893 75.9942 80.4254 77.0201C80.0562 73.9314 78.9946 70.9685 77.3008 68.3402C75.2182 65.1096 72.2875 62.5307 68.8235 60.8827L67.7828 60.3877Z" fill="white"/>
</g>
</svg>
