<svg width="305" height="371" viewBox="0 0 305 371" fill="none" xmlns="http://www.w3.org/2000/svg">
<g opacity="0.33">
<mask id="mask0_132_3322" style="mask-type:luminance" maskUnits="userSpaceOnUse" x="216" y="286" width="74" height="74">
<path d="M266.476 357.095C285.177 349.511 294.189 328.204 286.606 309.503C279.022 290.802 257.714 281.789 239.013 289.373C220.312 296.957 211.3 318.265 218.884 336.966C226.467 355.667 247.775 364.679 266.476 357.095Z" fill="white"/>
</mask>
<g mask="url(#mask0_132_3322)">
<path d="M243.336 284.989C233.228 295.718 222.378 305.704 212.27 316.469" stroke="#273A42" stroke-width="0.434118" stroke-miterlimit="10"/>
</g>
<mask id="mask1_132_3322" style="mask-type:luminance" maskUnits="userSpaceOnUse" x="216" y="286" width="74" height="74">
<path d="M266.476 357.095C285.177 349.511 294.189 328.204 286.606 309.503C279.022 290.802 257.714 281.789 239.013 289.373C220.312 296.957 211.3 318.265 218.884 336.966C226.467 355.667 247.775 364.679 266.476 357.095Z" fill="white"/>
</mask>
<g mask="url(#mask1_132_3322)">
<path d="M247.958 284.953C236.707 297.019 224.117 308.733 212.246 320.653" stroke="#273A42" stroke-width="0.434118" stroke-miterlimit="10"/>
</g>
<mask id="mask2_132_3322" style="mask-type:luminance" maskUnits="userSpaceOnUse" x="216" y="286" width="74" height="74">
<path d="M266.476 357.095C285.177 349.511 294.189 328.204 286.606 309.503C279.022 290.802 257.714 281.789 239.013 289.373C220.312 296.957 211.3 318.265 218.884 336.966C226.467 355.667 247.775 364.679 266.476 357.095Z" fill="white"/>
</mask>
<g mask="url(#mask2_132_3322)">
<path d="M252.239 284.966C238.871 298.321 225.418 311.787 212.16 325.057" stroke="#273A42" stroke-width="0.434118" stroke-miterlimit="10"/>
</g>
<mask id="mask3_132_3322" style="mask-type:luminance" maskUnits="userSpaceOnUse" x="216" y="286" width="74" height="74">
<path d="M266.476 357.095C285.177 349.511 294.189 328.204 286.606 309.503C279.022 290.802 257.714 281.789 239.013 289.373C220.312 296.957 211.3 318.265 218.884 336.966C226.467 355.667 247.775 364.679 266.476 357.095Z" fill="white"/>
</mask>
<g mask="url(#mask3_132_3322)">
<path d="M256.472 285.062C241.912 299.621 227.146 314.388 212.185 329.337" stroke="#273A42" stroke-width="0.434118" stroke-miterlimit="10"/>
</g>
<mask id="mask4_132_3322" style="mask-type:luminance" maskUnits="userSpaceOnUse" x="216" y="286" width="74" height="74">
<path d="M266.476 357.095C285.177 349.511 294.189 328.204 286.606 309.503C279.022 290.802 257.714 281.789 239.013 289.373C220.312 296.957 211.3 318.265 218.884 336.966C226.467 355.667 247.775 364.679 266.476 357.095Z" fill="white"/>
</mask>
<g mask="url(#mask4_132_3322)">
<path d="M261.666 285.014C245.379 300.924 228.885 316.98 212.233 333.522" stroke="#273A42" stroke-width="0.434118" stroke-miterlimit="10"/>
</g>
<mask id="mask5_132_3322" style="mask-type:luminance" maskUnits="userSpaceOnUse" x="216" y="286" width="74" height="74">
<path d="M266.476 357.095C285.177 349.511 294.189 328.204 286.606 309.503C279.022 290.802 257.714 281.789 239.013 289.373C220.312 296.957 211.3 318.265 218.884 336.966C226.467 355.667 247.775 364.679 266.476 357.095Z" fill="white"/>
</mask>
<g mask="url(#mask5_132_3322)">
<path d="M265.072 285.075C247.982 302.664 231.062 319.158 213.693 336.953C213.255 337.391 212.391 337.391 212.16 337.987" stroke="#273A42" stroke-width="0.434118" stroke-miterlimit="10"/>
</g>
<mask id="mask6_132_3322" style="mask-type:luminance" maskUnits="userSpaceOnUse" x="216" y="286" width="74" height="74">
<path d="M266.476 357.095C285.177 349.511 294.189 328.204 286.606 309.503C279.022 290.802 257.714 281.789 239.013 289.373C220.312 296.957 211.3 318.265 218.884 336.966C226.467 355.667 247.775 364.679 266.476 357.095Z" fill="white"/>
</mask>
<g mask="url(#mask6_132_3322)">
<path d="M269.791 285.002C259.27 296.156 247.982 306.142 236.707 317.43C228.46 326.115 220.213 333.498 212.306 342.159" stroke="#273A42" stroke-width="0.434118" stroke-miterlimit="10"/>
</g>
<mask id="mask7_132_3322" style="mask-type:luminance" maskUnits="userSpaceOnUse" x="216" y="286" width="74" height="74">
<path d="M266.476 357.095C285.177 349.511 294.189 328.204 286.606 309.503C279.022 290.802 257.714 281.789 239.013 289.373C220.312 296.957 211.3 318.265 218.884 336.966C226.467 355.667 247.775 364.679 266.476 357.095Z" fill="white"/>
</mask>
<g mask="url(#mask7_132_3322)">
<path d="M272.723 285.864C252.762 306.141 231.926 325.676 212.246 346.488" stroke="#273A42" stroke-width="0.434118" stroke-miterlimit="10"/>
</g>
<mask id="mask8_132_3322" style="mask-type:luminance" maskUnits="userSpaceOnUse" x="216" y="286" width="74" height="74">
<path d="M266.476 357.095C285.177 349.511 294.189 328.204 286.606 309.503C279.022 290.802 257.714 281.789 239.013 289.373C220.312 296.957 211.3 318.265 218.884 336.966C226.467 355.667 247.775 364.679 266.476 357.095Z" fill="white"/>
</mask>
<g mask="url(#mask8_132_3322)">
<path d="M272.686 290.171C252.774 310.046 232.364 330.457 212.318 350.612" stroke="#273A42" stroke-width="0.434118" stroke-miterlimit="10"/>
</g>
<mask id="mask9_132_3322" style="mask-type:luminance" maskUnits="userSpaceOnUse" x="216" y="286" width="74" height="74">
<path d="M266.476 357.095C285.177 349.511 294.189 328.204 286.606 309.503C279.022 290.802 257.714 281.789 239.013 289.373C220.312 296.957 211.3 318.265 218.884 336.966C226.467 355.667 247.775 364.679 266.476 357.095Z" fill="white"/>
</mask>
<g mask="url(#mask9_132_3322)">
<path d="M274.876 292.495C254.076 313.514 232.802 333.912 212.331 354.967" stroke="#273A42" stroke-width="0.434118" stroke-miterlimit="10"/>
</g>
<mask id="mask10_132_3322" style="mask-type:luminance" maskUnits="userSpaceOnUse" x="216" y="286" width="74" height="74">
<path d="M266.476 357.095C285.177 349.511 294.189 328.204 286.606 309.503C279.022 290.802 257.714 281.789 239.013 289.373C220.312 296.957 211.3 318.265 218.884 336.966C226.467 355.667 247.775 364.679 266.476 357.095Z" fill="white"/>
</mask>
<g mask="url(#mask10_132_3322)">
<path d="M279.194 292.483C256.679 314.828 234.967 337.829 212.136 359.48" stroke="#273A42" stroke-width="0.434118" stroke-miterlimit="10"/>
</g>
<mask id="mask11_132_3322" style="mask-type:luminance" maskUnits="userSpaceOnUse" x="216" y="286" width="74" height="74">
<path d="M266.476 357.095C285.177 349.511 294.189 328.204 286.606 309.503C279.022 290.802 257.714 281.789 239.013 289.373C220.312 296.957 211.3 318.265 218.884 336.966C226.467 355.667 247.775 364.679 266.476 357.095Z" fill="white"/>
</mask>
<g mask="url(#mask11_132_3322)">
<path d="M283.195 292.629C260.145 315.679 237.57 338.255 214.52 361.305" stroke="#273A42" stroke-width="0.434118" stroke-miterlimit="10"/>
</g>
<mask id="mask12_132_3322" style="mask-type:luminance" maskUnits="userSpaceOnUse" x="216" y="286" width="74" height="74">
<path d="M266.476 357.095C285.177 349.511 294.189 328.204 286.606 309.503C279.022 290.802 257.714 281.789 239.013 289.373C220.312 296.957 211.3 318.265 218.884 336.966C226.467 355.667 247.775 364.679 266.476 357.095Z" fill="white"/>
</mask>
<g mask="url(#mask12_132_3322)">
<path d="M287.416 292.641C264.488 315.253 241.912 338.266 218.777 361.353" stroke="#273A42" stroke-width="0.434118" stroke-miterlimit="10"/>
</g>
<mask id="mask13_132_3322" style="mask-type:luminance" maskUnits="userSpaceOnUse" x="216" y="286" width="74" height="74">
<path d="M266.476 357.095C285.177 349.511 294.189 328.204 286.606 309.503C279.022 290.802 257.714 281.789 239.013 289.373C220.312 296.957 211.3 318.265 218.884 336.966C226.467 355.667 247.775 364.679 266.476 357.095Z" fill="white"/>
</mask>
<g mask="url(#mask13_132_3322)">
<path d="M289.691 294.586C267.529 316.553 245.829 339.129 223.047 361.364" stroke="#273A42" stroke-width="0.434118" stroke-miterlimit="10"/>
</g>
<mask id="mask14_132_3322" style="mask-type:luminance" maskUnits="userSpaceOnUse" x="216" y="286" width="74" height="74">
<path d="M266.476 357.095C285.177 349.511 294.189 328.204 286.606 309.503C279.022 290.802 257.714 281.789 239.013 289.373C220.312 296.957 211.3 318.265 218.884 336.966C226.467 355.667 247.775 364.679 266.476 357.095Z" fill="white"/>
</mask>
<g mask="url(#mask14_132_3322)">
<path d="M289.825 298.686C268.831 319.595 248.87 341.307 227.341 361.365" stroke="#273A42" stroke-width="0.434118" stroke-miterlimit="10"/>
</g>
<mask id="mask15_132_3322" style="mask-type:luminance" maskUnits="userSpaceOnUse" x="216" y="286" width="74" height="74">
<path d="M266.476 357.095C285.177 349.511 294.189 328.204 286.606 309.503C279.022 290.802 257.714 281.789 239.013 289.373C220.312 296.957 211.3 318.265 218.884 336.966C226.467 355.667 247.775 364.679 266.476 357.095Z" fill="white"/>
</mask>
<g mask="url(#mask15_132_3322)">
<path d="M289.654 303.381C270.132 322.636 251.023 342.171 231.646 361.353" stroke="#273A42" stroke-width="0.434118" stroke-miterlimit="10"/>
</g>
<mask id="mask16_132_3322" style="mask-type:luminance" maskUnits="userSpaceOnUse" x="216" y="286" width="74" height="74">
<path d="M266.476 357.095C285.177 349.511 294.189 328.204 286.606 309.503C279.022 290.802 257.714 281.789 239.013 289.373C220.312 296.957 211.3 318.265 218.884 336.966C226.467 355.667 247.775 364.679 266.476 357.095Z" fill="white"/>
</mask>
<g mask="url(#mask16_132_3322)">
<path d="M289.788 307.357C271.871 325.238 254.076 343.471 235.977 361.315" stroke="#273A42" stroke-width="0.434118" stroke-miterlimit="10"/>
</g>
<mask id="mask17_132_3322" style="mask-type:luminance" maskUnits="userSpaceOnUse" x="216" y="286" width="74" height="74">
<path d="M266.476 357.095C285.177 349.511 294.189 328.204 286.606 309.503C279.022 290.802 257.714 281.789 239.013 289.373C220.312 296.957 211.3 318.265 218.884 336.966C226.467 355.667 247.775 364.679 266.476 357.095Z" fill="white"/>
</mask>
<g mask="url(#mask17_132_3322)">
<path d="M289.74 311.725C273.173 328.267 256.679 344.773 240.209 361.352" stroke="#273A42" stroke-width="0.434118" stroke-miterlimit="10"/>
</g>
<mask id="mask18_132_3322" style="mask-type:luminance" maskUnits="userSpaceOnUse" x="216" y="286" width="74" height="74">
<path d="M266.476 357.095C285.177 349.511 294.189 328.204 286.606 309.503C279.022 290.802 257.714 281.789 239.013 289.373C220.312 296.957 211.3 318.265 218.884 336.966C226.467 355.667 247.775 364.679 266.476 357.095Z" fill="white"/>
</mask>
<g mask="url(#mask18_132_3322)">
<path d="M289.788 316.019C274.9 331.308 259.708 346.501 244.564 361.291" stroke="#273A42" stroke-width="0.434118" stroke-miterlimit="10"/>
</g>
<mask id="mask19_132_3322" style="mask-type:luminance" maskUnits="userSpaceOnUse" x="216" y="286" width="74" height="74">
<path d="M266.476 357.095C285.177 349.511 294.189 328.204 286.606 309.503C279.022 290.802 257.714 281.789 239.013 289.373C220.312 296.957 211.3 318.265 218.884 336.966C226.467 355.667 247.775 364.679 266.476 357.095Z" fill="white"/>
</mask>
<g mask="url(#mask19_132_3322)">
<path d="M289.739 320.399C276.213 333.925 262.323 347.816 248.833 361.33" stroke="#273A42" stroke-width="0.434118" stroke-miterlimit="10"/>
</g>
<mask id="mask20_132_3322" style="mask-type:luminance" maskUnits="userSpaceOnUse" x="216" y="286" width="74" height="74">
<path d="M266.476 357.095C285.177 349.511 294.189 328.204 286.606 309.503C279.022 290.802 257.714 281.789 239.013 289.373C220.312 296.957 211.3 318.265 218.884 336.966C226.467 355.667 247.775 364.679 266.476 357.095Z" fill="white"/>
</mask>
<g mask="url(#mask20_132_3322)">
<path d="M289.618 324.851C277.503 336.966 265.351 349.117 253.091 361.354" stroke="#273A42" stroke-width="0.434118" stroke-miterlimit="10"/>
</g>
<mask id="mask21_132_3322" style="mask-type:luminance" maskUnits="userSpaceOnUse" x="216" y="286" width="74" height="74">
<path d="M266.476 357.095C285.177 349.511 294.189 328.204 286.606 309.503C279.022 290.802 257.714 281.789 239.013 289.373C220.312 296.957 211.3 318.265 218.884 336.966C226.467 355.667 247.775 364.679 266.476 357.095Z" fill="white"/>
</mask>
<g mask="url(#mask21_132_3322)">
<path d="M289.752 328.864C281.322 337.257 272.905 345.662 264.536 354.104C262.14 356.524 259.756 358.933 257.372 361.365" stroke="#273A42" stroke-width="0.434118" stroke-miterlimit="10"/>
</g>
<mask id="mask22_132_3322" style="mask-type:luminance" maskUnits="userSpaceOnUse" x="216" y="286" width="74" height="74">
<path d="M266.476 357.095C285.177 349.511 294.189 328.204 286.606 309.503C279.022 290.802 257.714 281.789 239.013 289.373C220.312 296.957 211.3 318.265 218.884 336.966C226.467 355.667 247.775 364.679 266.476 357.095Z" fill="white"/>
</mask>
<g mask="url(#mask22_132_3322)">
<path d="M289.727 333.67C280.556 343.036 271.008 352.584 261.666 361.366" stroke="#273A42" stroke-width="0.434118" stroke-miterlimit="10"/>
</g>
</g>
<path d="M218.848 12.8477V8.87019C218.848 7.06998 220.308 5.61035 222.108 5.61035H226.086C227.886 5.61035 229.346 7.06998 229.346 8.87019V12.8477C229.346 14.6479 227.886 16.1075 226.086 16.1075H222.108C220.308 16.1075 218.848 14.6479 218.848 12.8477Z" fill="url(#paint0_linear_132_3322)"/>
<path d="M201.187 12.8477V8.87019C201.187 7.06998 202.647 5.61035 204.447 5.61035H208.424C210.225 5.61035 211.684 7.06998 211.684 8.87019V12.8477C211.684 14.6479 210.225 16.1075 208.424 16.1075H204.447C202.647 16.1075 201.187 14.6479 201.187 12.8477Z" fill="url(#paint1_linear_132_3322)"/>
<path d="M183.525 12.8477V8.87019C183.525 7.06998 184.985 5.61035 186.785 5.61035H190.762C192.563 5.61035 194.022 7.06998 194.022 8.87019V12.8477C194.022 14.6479 192.563 16.1075 190.762 16.1075H186.785C184.985 16.1075 183.525 14.6479 183.525 12.8477Z" fill="url(#paint2_linear_132_3322)"/>
<g opacity="0.5" filter="url(#filter0_f_132_3322)">
<rect x="64.054" y="10.4756" width="153.261" height="289.493" rx="14.5963" fill="#89C4E6"/>
</g>
<g opacity="0.5" filter="url(#filter1_f_132_3322)">
<rect x="106.627" y="45.75" width="153.261" height="289.493" rx="14.5963" fill="#89C4E6"/>
</g>
<g opacity="0.3">
<path d="M3.45472 204.384H0.961182V206.877H3.45472V204.384Z" stroke="#273A42" stroke-width="0.326592" stroke-miterlimit="10"/>
<path d="M22.4904 204.384H19.9968V206.877H22.4904V204.384Z" stroke="#273A42" stroke-width="0.326592" stroke-miterlimit="10"/>
<path d="M41.5265 204.384H39.033V206.877H41.5265V204.384Z" stroke="#273A42" stroke-width="0.326592" stroke-miterlimit="10"/>
<path d="M60.5504 204.384H58.0569V206.877H60.5504V204.384Z" stroke="#273A42" stroke-width="0.326592" stroke-miterlimit="10"/>
<path d="M79.5868 204.384H77.0933V206.877H79.5868V204.384Z" stroke="#273A42" stroke-width="0.326592" stroke-miterlimit="10"/>
<path d="M98.6224 204.384H96.1289V206.877H98.6224V204.384Z" stroke="#273A42" stroke-width="0.326592" stroke-miterlimit="10"/>
<path d="M3.45472 218.265H0.961182V220.758H3.45472V218.265Z" stroke="#273A42" stroke-width="0.326592" stroke-miterlimit="10"/>
<path d="M22.4904 218.265H19.9968V220.758H22.4904V218.265Z" stroke="#273A42" stroke-width="0.326592" stroke-miterlimit="10"/>
<path d="M41.5265 218.265H39.033V220.758H41.5265V218.265Z" stroke="#273A42" stroke-width="0.326592" stroke-miterlimit="10"/>
<path d="M60.5504 218.265H58.0569V220.758H60.5504V218.265Z" stroke="#273A42" stroke-width="0.326592" stroke-miterlimit="10"/>
<path d="M79.587 218.265H77.0935V220.758H79.587V218.265Z" stroke="#273A42" stroke-width="0.326592" stroke-miterlimit="10"/>
<path d="M98.6227 218.265H96.1292V220.758H98.6227V218.265Z" stroke="#273A42" stroke-width="0.326592" stroke-miterlimit="10"/>
<path d="M3.45472 232.13H0.961182V234.623H3.45472V232.13Z" stroke="#273A42" stroke-width="0.326592" stroke-miterlimit="10"/>
<path d="M22.4904 232.13H19.9968V234.623H22.4904V232.13Z" stroke="#273A42" stroke-width="0.326592" stroke-miterlimit="10"/>
<path d="M41.5267 232.13H39.0332V234.623H41.5267V232.13Z" stroke="#273A42" stroke-width="0.326592" stroke-miterlimit="10"/>
<path d="M60.5507 232.13H58.0571V234.623H60.5507V232.13Z" stroke="#273A42" stroke-width="0.326592" stroke-miterlimit="10"/>
<path d="M79.587 232.13H77.0935V234.623H79.587V232.13Z" stroke="#273A42" stroke-width="0.326592" stroke-miterlimit="10"/>
<path d="M98.6227 232.13H96.1292V234.623H98.6227V232.13Z" stroke="#273A42" stroke-width="0.326592" stroke-miterlimit="10"/>
<path d="M3.45472 246.008H0.961182V248.501H3.45472V246.008Z" stroke="#273A42" stroke-width="0.326592" stroke-miterlimit="10"/>
<path d="M22.4906 246.008H19.9971V248.501H22.4906V246.008Z" stroke="#273A42" stroke-width="0.326592" stroke-miterlimit="10"/>
<path d="M41.5265 246.008H39.033V248.501H41.5265V246.008Z" stroke="#273A42" stroke-width="0.326592" stroke-miterlimit="10"/>
<path d="M60.5507 246.008H58.0571V248.501H60.5507V246.008Z" stroke="#273A42" stroke-width="0.326592" stroke-miterlimit="10"/>
<path d="M79.5868 246.008H77.0933V248.501H79.5868V246.008Z" stroke="#273A42" stroke-width="0.326592" stroke-miterlimit="10"/>
<path d="M98.6227 246.008H96.1292V248.501H98.6227V246.008Z" stroke="#273A42" stroke-width="0.326592" stroke-miterlimit="10"/>
<path d="M3.45472 259.889H0.961182V262.382H3.45472V259.889Z" stroke="#273A42" stroke-width="0.326592" stroke-miterlimit="10"/>
<path d="M22.4904 259.889H19.9968V262.382H22.4904V259.889Z" fill="#00D1FF"/>
<path d="M41.5267 259.889H39.0332V262.382H41.5267V259.889Z" fill="#00D1FF"/>
<path d="M60.5507 259.889H58.0571V262.382H60.5507V259.889Z" stroke="#273A42" stroke-width="0.326592" stroke-miterlimit="10"/>
<path d="M79.587 259.889H77.0935V262.382H79.587V259.889Z" stroke="#273A42" stroke-width="0.326592" stroke-miterlimit="10"/>
<path d="M98.6227 259.889H96.1292V262.382H98.6227V259.889Z" stroke="#273A42" stroke-width="0.326592" stroke-miterlimit="10"/>
<path d="M3.45472 273.756H0.961182V276.249H3.45472V273.756Z" stroke="#273A42" stroke-width="0.326592" stroke-miterlimit="10"/>
<path d="M22.4904 273.756H19.9968V276.249H22.4904V273.756Z" stroke="#273A42" stroke-width="0.326592" stroke-miterlimit="10"/>
<path d="M41.5267 273.756H39.0332V276.249H41.5267V273.756Z" stroke="#273A42" stroke-width="0.326592" stroke-miterlimit="10"/>
<path d="M60.5507 273.756H58.0571V276.249H60.5507V273.756Z" fill="#00D1FF"/>
<path d="M79.5868 273.756H77.0933V276.249H79.5868V273.756Z" stroke="#273A42" stroke-width="0.326592" stroke-miterlimit="10"/>
<path d="M98.6227 273.756H96.1292V276.249H98.6227V273.756Z" stroke="#273A42" stroke-width="0.326592" stroke-miterlimit="10"/>
<path d="M3.45472 287.632H0.961182V290.125H3.45472V287.632Z" stroke="#273A42" stroke-width="0.326592" stroke-miterlimit="10"/>
<path d="M22.4904 287.632H19.9968V290.125H22.4904V287.632Z" stroke="#273A42" stroke-width="0.326592" stroke-miterlimit="10"/>
<path d="M41.5265 287.632H39.033V290.125H41.5265V287.632Z" stroke="#273A42" stroke-width="0.326592" stroke-miterlimit="10"/>
<path d="M60.5504 287.632H58.0569V290.125H60.5504V287.632Z" stroke="#273A42" stroke-width="0.326592" stroke-miterlimit="10"/>
<path d="M79.5868 287.632H77.0933V290.125H79.5868V287.632Z" fill="#00D1FF"/>
<path d="M98.6227 287.632H96.1292V290.125H98.6227V287.632Z" stroke="#273A42" stroke-width="0.326592" stroke-miterlimit="10"/>
</g>
<g opacity="0.3">
<path d="M225.489 120.52H223.628V122.381H225.489V120.52Z" stroke="#273A42" stroke-width="0.244123" stroke-miterlimit="10"/>
<path d="M239.721 120.52H237.86V122.381H239.721V120.52Z" stroke="#273A42" stroke-width="0.244123" stroke-miterlimit="10"/>
<path d="M253.952 120.52H252.091V122.381H253.952V120.52Z" stroke="#273A42" stroke-width="0.244123" stroke-miterlimit="10"/>
<path d="M268.184 120.52H266.323V122.381H268.184V120.52Z" stroke="#273A42" stroke-width="0.244123" stroke-miterlimit="10"/>
<path d="M282.403 120.52H280.542V122.381H282.403V120.52Z" stroke="#273A42" stroke-width="0.244123" stroke-miterlimit="10"/>
<path d="M296.634 120.52H294.773V122.381H296.634V120.52Z" stroke="#273A42" stroke-width="0.244123" stroke-miterlimit="10"/>
<path d="M225.489 130.895H223.628V132.756H225.489V130.895Z" stroke="#273A42" stroke-width="0.244123" stroke-miterlimit="10"/>
<path d="M239.72 130.895H237.859V132.756H239.72V130.895Z" stroke="#273A42" stroke-width="0.244123" stroke-miterlimit="10"/>
<path d="M253.952 130.895H252.091V132.756H253.952V130.895Z" stroke="#273A42" stroke-width="0.244123" stroke-miterlimit="10"/>
<path d="M268.183 130.895H266.322V132.756H268.183V130.895Z" stroke="#273A42" stroke-width="0.244123" stroke-miterlimit="10"/>
<path d="M282.403 130.895H280.542V132.756H282.403V130.895Z" stroke="#273A42" stroke-width="0.244123" stroke-miterlimit="10"/>
<path d="M296.634 130.895H294.773V132.756H296.634V130.895Z" stroke="#273A42" stroke-width="0.244123" stroke-miterlimit="10"/>
<path d="M225.489 141.259H223.628V143.12H225.489V141.259Z" stroke="#273A42" stroke-width="0.244123" stroke-miterlimit="10"/>
<path d="M239.72 141.259H237.859V143.12H239.72V141.259Z" stroke="#273A42" stroke-width="0.244123" stroke-miterlimit="10"/>
<path d="M253.952 141.259H252.091V143.12H253.952V141.259Z" stroke="#273A42" stroke-width="0.244123" stroke-miterlimit="10"/>
<path d="M268.183 141.259H266.322V143.12H268.183V141.259Z" stroke="#273A42" stroke-width="0.244123" stroke-miterlimit="10"/>
<path d="M282.403 141.259H280.542V143.12H282.403V141.259Z" stroke="#273A42" stroke-width="0.244123" stroke-miterlimit="10"/>
<path d="M296.634 141.259H294.773V143.12H296.634V141.259Z" stroke="#273A42" stroke-width="0.244123" stroke-miterlimit="10"/>
<path d="M225.489 151.635H223.628V153.496H225.489V151.635Z" stroke="#273A42" stroke-width="0.244123" stroke-miterlimit="10"/>
<path d="M239.72 151.635H237.859V153.496H239.72V151.635Z" stroke="#273A42" stroke-width="0.244123" stroke-miterlimit="10"/>
<path d="M253.951 151.635H252.09V153.496H253.951V151.635Z" stroke="#273A42" stroke-width="0.244123" stroke-miterlimit="10"/>
<path d="M268.183 151.635H266.322V153.496H268.183V151.635Z" stroke="#273A42" stroke-width="0.244123" stroke-miterlimit="10"/>
<path d="M282.403 151.635H280.542V153.496H282.403V151.635Z" stroke="#273A42" stroke-width="0.244123" stroke-miterlimit="10"/>
<path d="M296.634 151.635H294.773V153.496H296.634V151.635Z" stroke="#273A42" stroke-width="0.244123" stroke-miterlimit="10"/>
<path d="M225.489 162.009H223.628V163.87H225.489V162.009Z" stroke="#273A42" stroke-width="0.244123" stroke-miterlimit="10"/>
<path d="M239.72 162.009H237.859V163.87H239.72V162.009Z" fill="#00D1FF"/>
<path d="M253.952 162.009H252.091V163.87H253.952V162.009Z" fill="#00D1FF"/>
<path d="M268.183 162.009H266.322V163.87H268.183V162.009Z" stroke="#273A42" stroke-width="0.244123" stroke-miterlimit="10"/>
<path d="M282.403 162.009H280.542V163.87H282.403V162.009Z" stroke="#273A42" stroke-width="0.244123" stroke-miterlimit="10"/>
<path d="M296.634 162.009H294.773V163.87H296.634V162.009Z" stroke="#273A42" stroke-width="0.244123" stroke-miterlimit="10"/>
<path d="M225.489 172.37H223.628V174.231H225.489V172.37Z" stroke="#273A42" stroke-width="0.244123" stroke-miterlimit="10"/>
<path d="M239.72 172.37H237.859V174.231H239.72V172.37Z" stroke="#273A42" stroke-width="0.244123" stroke-miterlimit="10"/>
<path d="M253.952 172.37H252.091V174.231H253.952V172.37Z" stroke="#273A42" stroke-width="0.244123" stroke-miterlimit="10"/>
<path d="M268.183 172.37H266.322V174.231H268.183V172.37Z" fill="#00D1FF"/>
<path d="M282.403 172.37H280.542V174.231H282.403V172.37Z" stroke="#273A42" stroke-width="0.244123" stroke-miterlimit="10"/>
<path d="M296.634 172.37H294.773V174.231H296.634V172.37Z" stroke="#273A42" stroke-width="0.244123" stroke-miterlimit="10"/>
<path d="M225.489 182.749H223.628V184.61H225.489V182.749Z" stroke="#273A42" stroke-width="0.244123" stroke-miterlimit="10"/>
<path d="M239.72 182.749H237.859V184.61H239.72V182.749Z" stroke="#273A42" stroke-width="0.244123" stroke-miterlimit="10"/>
<path d="M253.952 182.749H252.091V184.61H253.952V182.749Z" stroke="#273A42" stroke-width="0.244123" stroke-miterlimit="10"/>
<path d="M268.183 182.749H266.322V184.61H268.183V182.749Z" stroke="#273A42" stroke-width="0.244123" stroke-miterlimit="10"/>
<path d="M282.403 182.749H280.542V184.61H282.403V182.749Z" fill="#00D1FF"/>
<path d="M296.634 182.749H294.773V184.61H296.634V182.749Z" stroke="#273A42" stroke-width="0.244123" stroke-miterlimit="10"/>
</g>
<path d="M224.503 321.034H100.411C91.1216 321.034 83.5788 313.503 83.5788 304.203V41.9799C83.5788 32.691 91.1098 25.1481 100.411 25.1481H224.503C233.792 25.1481 241.335 32.6792 241.335 41.9799V304.203C241.335 313.503 233.792 321.034 224.503 321.034Z" fill="white"/>
<path d="M224.503 321.034H100.411C91.1216 321.034 83.5788 313.503 83.5788 304.203V41.9799C83.5788 32.691 91.1098 25.1481 100.411 25.1481H224.503C233.792 25.1481 241.335 32.6792 241.335 41.9799V304.203C241.335 313.503 233.792 321.034 224.503 321.034Z" fill="url(#paint3_linear_132_3322)"/>
<path d="M224.503 321.034H100.411C91.1216 321.034 83.5788 313.503 83.5788 304.203V41.9799C83.5788 32.691 91.1098 25.1481 100.411 25.1481H224.503C233.792 25.1481 241.335 32.6792 241.335 41.9799V304.203C241.335 313.503 233.792 321.034 224.503 321.034Z" stroke="white" stroke-width="0.808002"/>
<g opacity="0.33">
<mask id="mask23_132_3322" style="mask-type:luminance" maskUnits="userSpaceOnUse" x="63" y="8" width="57" height="57">
<path d="M91.5683 64.3476C106.905 64.3476 119.338 51.9147 119.338 36.5781C119.338 21.2414 106.905 8.80859 91.5683 8.80859C76.2316 8.80859 63.7988 21.2414 63.7988 36.5781C63.7988 51.9147 76.2316 64.3476 91.5683 64.3476Z" fill="white"/>
</mask>
<g mask="url(#mask23_132_3322)">
<path d="M84.4281 7.50684C76.7529 15.6564 68.506 23.2465 60.8186 31.4326" stroke="#F9FBFC" stroke-width="0.329876" stroke-miterlimit="10"/>
</g>
<mask id="mask24_132_3322" style="mask-type:luminance" maskUnits="userSpaceOnUse" x="63" y="8" width="57" height="57">
<path d="M91.5683 64.3476C106.905 64.3476 119.338 51.9147 119.338 36.5781C119.338 21.2414 106.905 8.80859 91.5683 8.80859C76.2316 8.80859 63.7988 21.2414 63.7988 36.5781C63.7988 51.9147 76.2316 64.3476 91.5683 64.3476Z" fill="white"/>
</mask>
<g mask="url(#mask24_132_3322)">
<path d="M87.9436 7.4834C79.3926 16.6547 69.8199 25.5585 60.8066 34.6082" stroke="#F9FBFC" stroke-width="0.329876" stroke-miterlimit="10"/>
</g>
<mask id="mask25_132_3322" style="mask-type:luminance" maskUnits="userSpaceOnUse" x="63" y="8" width="57" height="57">
<path d="M91.5683 64.3476C106.905 64.3476 119.338 51.9147 119.338 36.5781C119.338 21.2414 106.905 8.80859 91.5683 8.80859C76.2316 8.80859 63.7988 21.2414 63.7988 36.5781C63.7988 51.9147 76.2316 64.3476 91.5683 64.3476Z" fill="white"/>
</mask>
<g mask="url(#mask25_132_3322)">
<path d="M91.1912 7.4834C81.0347 17.64 70.8051 27.8574 60.7336 37.941" stroke="#F9FBFC" stroke-width="0.329876" stroke-miterlimit="10"/>
</g>
<mask id="mask26_132_3322" style="mask-type:luminance" maskUnits="userSpaceOnUse" x="63" y="8" width="57" height="57">
<path d="M91.5683 64.3476C106.905 64.3476 119.338 51.9147 119.338 36.5781C119.338 21.2414 106.905 8.80859 91.5683 8.80859C76.2316 8.80859 63.7988 21.2414 63.7988 36.5781C63.7988 51.9147 76.2316 64.3476 91.5683 64.3476Z" fill="white"/>
</mask>
<g mask="url(#mask26_132_3322)">
<path d="M94.4145 7.55566C83.3456 18.6245 72.1308 29.8394 60.77 41.2002" stroke="#F9FBFC" stroke-width="0.329876" stroke-miterlimit="10"/>
</g>
<mask id="mask27_132_3322" style="mask-type:luminance" maskUnits="userSpaceOnUse" x="63" y="8" width="57" height="57">
<path d="M91.5683 64.3476C106.905 64.3476 119.338 51.9147 119.338 36.5781C119.338 21.2414 106.905 8.80859 91.5683 8.80859C76.2316 8.80859 63.7988 21.2414 63.7988 36.5781C63.7988 51.9147 76.2316 64.3476 91.5683 64.3476Z" fill="white"/>
</mask>
<g mask="url(#mask27_132_3322)">
<path d="M98.3553 7.53125C85.985 19.6219 73.4443 31.8219 60.7942 44.3869" stroke="#F9FBFC" stroke-width="0.329876" stroke-miterlimit="10"/>
</g>
<mask id="mask28_132_3322" style="mask-type:luminance" maskUnits="userSpaceOnUse" x="63" y="8" width="57" height="57">
<path d="M91.5683 64.3476C106.905 64.3476 119.338 51.9147 119.338 36.5781C119.338 21.2414 106.905 8.80859 91.5683 8.80859C76.2316 8.80859 63.7988 21.2414 63.7988 36.5781C63.7988 51.9147 76.2316 64.3476 91.5683 64.3476Z" fill="white"/>
</mask>
<g mask="url(#mask28_132_3322)">
<path d="M100.946 7.56934C87.9677 20.9371 75.0986 33.4656 61.9011 46.9915C61.5727 47.32 60.9159 47.32 60.7334 47.77" stroke="#F9FBFC" stroke-width="0.329876" stroke-miterlimit="10"/>
</g>
<mask id="mask29_132_3322" style="mask-type:luminance" maskUnits="userSpaceOnUse" x="63" y="8" width="57" height="57">
<path d="M91.5683 64.3476C106.905 64.3476 119.338 51.9147 119.338 36.5781C119.338 21.2414 106.905 8.80859 91.5683 8.80859C76.2316 8.80859 63.7988 21.2414 63.7988 36.5781C63.7988 51.9147 76.2316 64.3476 91.5683 64.3476Z" fill="white"/>
</mask>
<g mask="url(#mask29_132_3322)">
<path d="M104.535 7.50684C96.5434 15.9849 87.9681 23.5628 79.3928 32.1503C73.1285 38.7429 66.8521 44.3503 60.8555 50.943" stroke="#F9FBFC" stroke-width="0.329876" stroke-miterlimit="10"/>
</g>
<mask id="mask30_132_3322" style="mask-type:luminance" maskUnits="userSpaceOnUse" x="63" y="8" width="57" height="57">
<path d="M91.5683 64.3476C106.905 64.3476 119.338 51.9147 119.338 36.5781C119.338 21.2414 106.905 8.80859 91.5683 8.80859C76.2316 8.80859 63.7988 21.2414 63.7988 36.5781C63.7988 51.9147 76.2316 64.3476 91.5683 64.3476Z" fill="white"/>
</mask>
<g mask="url(#mask30_132_3322)">
<path d="M106.761 8.16504C91.5927 23.5763 75.7557 38.4159 60.8066 54.2407" stroke="#F9FBFC" stroke-width="0.329876" stroke-miterlimit="10"/>
</g>
<mask id="mask31_132_3322" style="mask-type:luminance" maskUnits="userSpaceOnUse" x="63" y="8" width="57" height="57">
<path d="M91.5683 64.3476C106.905 64.3476 119.338 51.9147 119.338 36.5781C119.338 21.2414 106.905 8.80859 91.5683 8.80859C76.2316 8.80859 63.7988 21.2414 63.7988 36.5781C63.7988 51.9147 76.2316 64.3476 91.5683 64.3476Z" fill="white"/>
</mask>
<g mask="url(#mask31_132_3322)">
<path d="M106.724 11.4375C91.5928 26.5447 76.0843 42.0533 60.8555 57.3672" stroke="#F9FBFC" stroke-width="0.329876" stroke-miterlimit="10"/>
</g>
<mask id="mask32_132_3322" style="mask-type:luminance" maskUnits="userSpaceOnUse" x="63" y="8" width="57" height="57">
<path d="M91.5683 64.3476C106.905 64.3476 119.338 51.9147 119.338 36.5781C119.338 21.2414 106.905 8.80859 91.5683 8.80859C76.2316 8.80859 63.7988 21.2414 63.7988 36.5781C63.7988 51.9147 76.2316 64.3476 91.5683 64.3476Z" fill="white"/>
</mask>
<g mask="url(#mask32_132_3322)">
<path d="M108.39 13.2119C92.5776 29.1827 76.4244 44.6791 60.8672 60.6864" stroke="#F9FBFC" stroke-width="0.329876" stroke-miterlimit="10"/>
</g>
<mask id="mask33_132_3322" style="mask-type:luminance" maskUnits="userSpaceOnUse" x="63" y="8" width="57" height="57">
<path d="M91.5683 64.3476C106.905 64.3476 119.338 51.9147 119.338 36.5781C119.338 21.2414 106.905 8.80859 91.5683 8.80859C76.2316 8.80859 63.7988 21.2414 63.7988 36.5781C63.7988 51.9147 76.2316 64.3476 91.5683 64.3476Z" fill="white"/>
</mask>
<g mask="url(#mask33_132_3322)">
<path d="M111.674 13.2002C94.5603 30.1684 78.0665 47.6596 60.7212 64.1048" stroke="#F9FBFC" stroke-width="0.329876" stroke-miterlimit="10"/>
</g>
<mask id="mask34_132_3322" style="mask-type:luminance" maskUnits="userSpaceOnUse" x="63" y="8" width="57" height="57">
<path d="M91.5683 64.3476C106.905 64.3476 119.338 51.9147 119.338 36.5781C119.338 21.2414 106.905 8.80859 91.5683 8.80859C76.2316 8.80859 63.7988 21.2414 63.7988 36.5781C63.7988 51.9147 76.2316 64.3476 91.5683 64.3476Z" fill="white"/>
</mask>
<g mask="url(#mask34_132_3322)">
<path d="M114.716 13.3096C97.2001 30.8251 80.0495 47.9758 62.5339 65.4914" stroke="#F9FBFC" stroke-width="0.329876" stroke-miterlimit="10"/>
</g>
<mask id="mask35_132_3322" style="mask-type:luminance" maskUnits="userSpaceOnUse" x="63" y="8" width="57" height="57">
<path d="M91.5683 64.3476C106.905 64.3476 119.338 51.9147 119.338 36.5781C119.338 21.2414 106.905 8.80859 91.5683 8.80859C76.2316 8.80859 63.7988 21.2414 63.7988 36.5781C63.7988 51.9147 76.2316 64.3476 91.5683 64.3476Z" fill="white"/>
</mask>
<g mask="url(#mask35_132_3322)">
<path d="M117.927 13.3096C100.496 30.4967 83.3456 47.988 65.7571 65.5279" stroke="#F9FBFC" stroke-width="0.329876" stroke-miterlimit="10"/>
</g>
<mask id="mask36_132_3322" style="mask-type:luminance" maskUnits="userSpaceOnUse" x="63" y="8" width="57" height="57">
<path d="M91.5683 64.3476C106.905 64.3476 119.338 51.9147 119.338 36.5781C119.338 21.2414 106.905 8.80859 91.5683 8.80859C76.2316 8.80859 63.7988 21.2414 63.7988 36.5781C63.7988 51.9147 76.2316 64.3476 91.5683 64.3476Z" fill="white"/>
</mask>
<g mask="url(#mask36_132_3322)">
<path d="M119.654 14.793C102.807 31.4936 86.3137 48.6442 69.0049 65.5395" stroke="#F9FBFC" stroke-width="0.329876" stroke-miterlimit="10"/>
</g>
<mask id="mask37_132_3322" style="mask-type:luminance" maskUnits="userSpaceOnUse" x="63" y="8" width="57" height="57">
<path d="M91.5683 64.3476C106.905 64.3476 119.338 51.9147 119.338 36.5781C119.338 21.2414 106.905 8.80859 91.5683 8.80859C76.2316 8.80859 63.7988 21.2414 63.7988 36.5781C63.7988 51.9147 76.2316 64.3476 91.5683 64.3476Z" fill="white"/>
</mask>
<g mask="url(#mask37_132_3322)">
<path d="M119.751 17.9092C103.805 33.807 88.6244 50.3008 72.2644 65.5418" stroke="#F9FBFC" stroke-width="0.329876" stroke-miterlimit="10"/>
</g>
<mask id="mask38_132_3322" style="mask-type:luminance" maskUnits="userSpaceOnUse" x="63" y="8" width="57" height="57">
<path d="M91.5683 64.3476C106.905 64.3476 119.338 51.9147 119.338 36.5781C119.338 21.2414 106.905 8.80859 91.5683 8.80859C76.2316 8.80859 63.7988 21.2414 63.7988 36.5781C63.7988 51.9147 76.2316 64.3476 91.5683 64.3476Z" fill="white"/>
</mask>
<g mask="url(#mask38_132_3322)">
<path d="M119.629 21.4717C104.79 36.1045 90.2787 50.9441 75.5486 65.516" stroke="#F9FBFC" stroke-width="0.329876" stroke-miterlimit="10"/>
</g>
<mask id="mask39_132_3322" style="mask-type:luminance" maskUnits="userSpaceOnUse" x="63" y="8" width="57" height="57">
<path d="M91.5683 64.3476C106.905 64.3476 119.338 51.9147 119.338 36.5781C119.338 21.2414 106.905 8.80859 91.5683 8.80859C76.2316 8.80859 63.7988 21.2414 63.7988 36.5781C63.7988 51.9147 76.2316 64.3476 91.5683 64.3476Z" fill="white"/>
</mask>
<g mask="url(#mask39_132_3322)">
<path d="M119.727 24.499C106.104 38.0858 92.5779 51.9401 78.833 65.4903" stroke="#F9FBFC" stroke-width="0.329876" stroke-miterlimit="10"/>
</g>
<mask id="mask40_132_3322" style="mask-type:luminance" maskUnits="userSpaceOnUse" x="63" y="8" width="57" height="57">
<path d="M91.5683 64.3476C106.905 64.3476 119.338 51.9147 119.338 36.5781C119.338 21.2414 106.905 8.80859 91.5683 8.80859C76.2316 8.80859 63.7988 21.2414 63.7988 36.5781C63.7988 51.9147 76.2316 64.3476 91.5683 64.3476Z" fill="white"/>
</mask>
<g mask="url(#mask40_132_3322)">
<path d="M119.69 27.8203C107.101 40.3975 94.5603 52.926 82.0562 65.5396" stroke="#F9FBFC" stroke-width="0.329876" stroke-miterlimit="10"/>
</g>
<mask id="mask41_132_3322" style="mask-type:luminance" maskUnits="userSpaceOnUse" x="63" y="8" width="57" height="57">
<path d="M91.5683 64.3476C106.905 64.3476 119.338 51.9147 119.338 36.5781C119.338 21.2414 106.905 8.80859 91.5683 8.80859C76.2316 8.80859 63.7988 21.2414 63.7988 36.5781C63.7988 51.9147 76.2316 64.3476 91.5683 64.3476Z" fill="white"/>
</mask>
<g mask="url(#mask41_132_3322)">
<path d="M119.727 31.0811C108.414 42.6973 96.8713 54.2527 85.3645 65.4797" stroke="#F9FBFC" stroke-width="0.329876" stroke-miterlimit="10"/>
</g>
<mask id="mask42_132_3322" style="mask-type:luminance" maskUnits="userSpaceOnUse" x="63" y="8" width="57" height="57">
<path d="M91.5683 64.3476C106.905 64.3476 119.338 51.9147 119.338 36.5781C119.338 21.2414 106.905 8.80859 91.5683 8.80859C76.2316 8.80859 63.7988 21.2414 63.7988 36.5781C63.7988 51.9147 76.2316 64.3476 91.5683 64.3476Z" fill="white"/>
</mask>
<g mask="url(#mask42_132_3322)">
<path d="M119.69 34.4131C109.412 44.6913 98.854 55.2493 88.6001 65.5154" stroke="#F9FBFC" stroke-width="0.329876" stroke-miterlimit="10"/>
</g>
<mask id="mask43_132_3322" style="mask-type:luminance" maskUnits="userSpaceOnUse" x="63" y="8" width="57" height="57">
<path d="M91.5683 64.3476C106.905 64.3476 119.338 51.9147 119.338 36.5781C119.338 21.2414 106.905 8.80859 91.5683 8.80859C76.2316 8.80859 63.7988 21.2414 63.7988 36.5781C63.7988 51.9147 76.2316 64.3476 91.5683 64.3476Z" fill="white"/>
</mask>
<g mask="url(#mask43_132_3322)">
<path d="M119.593 37.7949C110.385 47.0028 101.153 56.2349 91.8359 65.5279" stroke="#F9FBFC" stroke-width="0.329876" stroke-miterlimit="10"/>
</g>
<mask id="mask44_132_3322" style="mask-type:luminance" maskUnits="userSpaceOnUse" x="63" y="8" width="57" height="57">
<path d="M91.5683 64.3476C106.905 64.3476 119.338 51.9147 119.338 36.5781C119.338 21.2414 106.905 8.80859 91.5683 8.80859C76.2316 8.80859 63.7988 21.2414 63.7988 36.5781C63.7988 51.9147 76.2316 64.3476 91.5683 64.3476Z" fill="white"/>
</mask>
<g mask="url(#mask44_132_3322)">
<path d="M119.702 40.8477C113.292 47.2214 106.906 53.6073 100.545 60.0175C98.7202 61.8542 96.9078 63.6909 95.0955 65.5276" stroke="#F9FBFC" stroke-width="0.329876" stroke-miterlimit="10"/>
</g>
<mask id="mask45_132_3322" style="mask-type:luminance" maskUnits="userSpaceOnUse" x="63" y="8" width="57" height="57">
<path d="M91.5683 64.3476C106.905 64.3476 119.338 51.9147 119.338 36.5781C119.338 21.2414 106.905 8.80859 91.5683 8.80859C76.2316 8.80859 63.7988 21.2414 63.7988 36.5781C63.7988 51.9147 76.2316 64.3476 91.5683 64.3476Z" fill="white"/>
</mask>
<g mask="url(#mask45_132_3322)">
<path d="M119.678 44.4971C112.709 51.6128 105.447 58.8623 98.3555 65.5401" stroke="#F9FBFC" stroke-width="0.329876" stroke-miterlimit="10"/>
</g>
</g>
<path d="M263.525 87.4714L249.026 101.97C245 105.997 238.468 105.997 234.43 101.97L219.943 87.4714C215.917 83.4452 215.917 76.9134 219.943 72.8751L234.442 58.3761C238.468 54.3499 245 54.3499 249.038 58.3761L263.537 72.8751C267.551 76.9134 267.551 83.4452 263.525 87.4714Z" fill="url(#paint4_linear_132_3322)"/>
<path d="M283.436 98.5153L279.946 102.006C278.972 102.979 277.403 102.979 276.43 102.006L272.939 98.5153C271.966 97.5422 271.966 95.9731 272.939 95.0001L276.43 91.5091C277.403 90.536 278.972 90.536 279.946 91.5091L283.436 95.0001C284.397 95.9731 284.397 97.5422 283.436 98.5153Z" fill="#16C4DB"/>
<path d="M40.8462 321.986L39.6421 323.19C39.3015 323.53 38.7663 323.53 38.4257 323.19L37.2215 321.986C36.8809 321.645 36.8809 321.11 37.2215 320.769L38.4257 319.565C38.7663 319.224 39.3015 319.224 39.6421 319.565L40.8462 320.769C41.1868 321.098 41.1868 321.645 40.8462 321.986Z" fill="#16C4DB"/>
<path d="M72.2764 325.307L64.4795 333.104C62.3144 335.269 58.7991 335.269 56.6219 333.104L48.825 325.307C46.6599 323.142 46.6599 319.626 48.825 317.449L56.6219 309.652C58.787 307.487 62.3023 307.487 64.4795 309.652L72.2764 317.449C74.4415 319.614 74.4415 323.129 72.2764 325.307Z" fill="url(#paint5_linear_132_3322)"/>
<g filter="url(#filter2_d_132_3322)">
<path d="M184.413 149.639H140.612C131.331 149.639 123.802 142.11 123.802 132.829V89.0279C123.802 79.747 131.331 72.2178 140.612 72.2178H184.413C193.693 72.2178 201.223 79.747 201.223 89.0279V132.829C201.223 142.122 193.693 149.639 184.413 149.639Z" fill="url(#paint6_linear_132_3322)"/>
<path d="M184.413 149.639H140.612C131.331 149.639 123.802 142.11 123.802 132.829V89.0279C123.802 79.747 131.331 72.2178 140.612 72.2178H184.413C193.693 72.2178 201.223 79.747 201.223 89.0279V132.829C201.223 142.122 193.693 149.639 184.413 149.639Z" fill="white"/>
</g>
<path d="M152.179 108.867C154.453 108.867 156.314 107.018 156.314 104.731C156.314 102.457 154.466 100.596 152.179 100.596C149.904 100.596 148.043 102.445 148.043 104.731C148.043 107.018 149.892 108.867 152.179 108.867Z" fill="#00ADFF"/>
<path d="M178.002 94.4053H147.01C144.163 94.4053 141.84 96.7285 141.84 99.5748V122.309C141.84 125.155 144.163 127.478 147.01 127.478H178.015C180.861 127.478 183.184 125.155 183.184 122.309V99.5626C183.172 96.7164 180.861 94.4053 178.002 94.4053ZM147.01 98.5287H178.015C178.586 98.5287 179.048 98.9909 179.048 99.5626V114.232L172.517 106.618C171.823 105.803 170.826 105.377 169.743 105.353C168.673 105.353 167.663 105.839 166.982 106.654L159.307 115.862L156.801 113.368C155.39 111.957 153.091 111.957 151.68 113.368L145.976 119.073V99.5626C145.976 99.0031 146.438 98.5287 147.01 98.5287Z" fill="#00ADFF"/>
<path d="M202.926 216.491H122.087C114.703 216.491 108.719 210.506 108.719 203.123V192.942C108.719 185.559 114.703 179.574 122.087 179.574H202.926C210.309 179.574 216.293 185.559 216.293 192.942V203.123C216.293 210.506 210.309 216.491 202.926 216.491Z" stroke="#F9FBFC" stroke-width="0.653185" stroke-linecap="round" stroke-linejoin="round" stroke-dasharray="1.3 1.3"/>
<g opacity="0.1">
<ellipse cx="252.881" cy="245.416" rx="0.676295" ry="0.676296" fill="#273A42"/>
<path d="M260.118 245.415H299.869" stroke="#273A42" stroke-width="1.35259" stroke-linecap="round" stroke-linejoin="round"/>
<ellipse cx="303.482" cy="245.416" rx="0.676295" ry="0.676296" fill="#273A42"/>
</g>
<path d="M271.589 212.464L191.577 200.969C184.267 199.923 179.194 193.148 180.253 185.838L181.7 175.754C182.746 168.444 189.521 163.371 196.832 164.43L276.844 175.924C284.154 176.97 289.226 183.745 288.168 191.056L286.72 201.139C285.674 208.438 278.899 213.51 271.589 212.464Z" fill="url(#paint7_linear_132_3322)"/>
<path d="M271.589 212.464L191.577 200.969C184.267 199.923 179.194 193.148 180.253 185.838L181.7 175.754C182.746 168.444 189.521 163.371 196.832 164.43L276.844 175.924C284.154 176.97 289.226 183.745 288.168 191.056L286.72 201.139C285.674 208.438 278.899 213.51 271.589 212.464Z" fill="#F79F1F"/>
<path d="M272.866 190.181L194.897 178.978C193.511 178.784 192.538 177.482 192.745 176.096C192.939 174.709 194.241 173.736 195.627 173.943L273.596 185.145C274.982 185.34 275.956 186.642 275.749 188.028C275.542 189.415 274.253 190.388 272.866 190.181Z" fill="white"/>
<path d="M221.183 194.086L193.304 190.084C191.917 189.889 190.944 188.588 191.151 187.201C191.346 185.815 192.647 184.841 194.034 185.048L221.913 189.05C223.299 189.245 224.272 190.546 224.066 191.933C223.859 193.319 222.57 194.293 221.183 194.086Z" fill="white"/>
<path d="M95.4363 130.666H77.3734C71.4984 130.666 66.7424 125.91 66.7424 120.035V101.972C66.7424 96.0968 71.4984 91.3408 77.3734 91.3408H95.4363C101.311 91.3408 106.067 96.0968 106.067 101.972V120.047C106.067 125.91 101.311 130.666 95.4363 130.666Z" fill="url(#paint8_linear_132_3322)"/>
<path d="M95.4363 130.666H77.3734C71.4984 130.666 66.7424 125.91 66.7424 120.035V101.972C66.7424 96.0968 71.4984 91.3408 77.3734 91.3408H95.4363C101.311 91.3408 106.067 96.0968 106.067 101.972V120.047C106.067 125.91 101.311 130.666 95.4363 130.666Z" fill="#00B3FF"/>
<path d="M91.6292 114.221C90.6804 114.221 89.8168 114.635 89.2208 115.279L83.285 111.898C83.3823 111.594 83.4309 111.278 83.4309 110.949C83.4309 110.621 83.3823 110.292 83.285 109.988L89.2208 106.607C89.8168 107.251 90.6804 107.665 91.6292 107.665C93.4415 107.665 94.9133 106.193 94.9133 104.381C94.9133 102.568 93.4415 101.097 91.6292 101.097C89.8168 101.097 88.345 102.568 88.345 104.381C88.345 104.648 88.3815 104.904 88.4423 105.159L82.4335 108.589C81.8375 108.018 81.0347 107.665 80.1589 107.665C78.3465 107.665 76.8748 109.137 76.8748 110.949C76.8748 112.762 78.3465 114.233 80.1589 114.233C81.0469 114.233 81.8497 113.881 82.4457 113.309L88.4545 116.739C88.3937 116.994 88.3572 117.25 88.3572 117.518C88.3572 119.33 89.829 120.802 91.6413 120.802C93.4537 120.802 94.9255 119.33 94.9255 117.518C94.9012 115.693 93.4294 114.221 91.6292 114.221Z" fill="#F9FBFC"/>
<path d="M46.7699 37.8324C48.2546 37.8324 49.4581 36.6288 49.4581 35.1442C49.4581 33.6596 48.2546 32.4561 46.7699 32.4561C45.2853 32.4561 44.0818 33.6596 44.0818 35.1442C44.0818 36.6288 45.2853 37.8324 46.7699 37.8324Z" fill="#16C4DB"/>
<path d="M266.322 59.7142C267.807 59.7142 269.011 58.5107 269.011 57.026C269.011 55.5414 267.807 54.3379 266.322 54.3379C264.838 54.3379 263.634 55.5414 263.634 57.026C263.634 58.5107 264.838 59.7142 266.322 59.7142Z" fill="#FF4174"/>
<path d="M39.7025 44.4363C39.7025 44.9959 39.2525 45.4459 38.6929 45.4459C38.1334 45.4459 37.6833 44.9959 37.6833 44.4363C37.6833 43.8768 38.1334 43.4268 38.6929 43.4268C39.2525 43.4268 39.7025 43.8768 39.7025 44.4363Z" fill="#16C4DB"/>
<g opacity="0.43">
<path opacity="0.0196" d="M86.3989 266.776C96.4889 266.776 104.669 258.596 104.669 248.506C104.669 238.416 96.4889 230.236 86.3989 230.236C76.3088 230.236 68.1292 238.416 68.1292 248.506C68.1292 258.596 76.3088 266.776 86.3989 266.776Z" fill="#212972"/>
<path opacity="0.0392" d="M86.3991 266.51C96.3414 266.51 104.401 258.45 104.401 248.508C104.401 238.566 96.3414 230.506 86.3991 230.506C76.4568 230.506 68.397 238.566 68.397 248.508C68.397 258.45 76.4568 266.51 86.3991 266.51Z" fill="#212972"/>
<path opacity="0.0588" d="M86.3991 266.228C96.1869 266.228 104.121 258.293 104.121 248.506C104.121 238.718 96.1869 230.783 86.3991 230.783C76.6113 230.783 68.6768 238.718 68.6768 248.506C68.6768 258.293 76.6113 266.228 86.3991 266.228Z" fill="#212972"/>
<path opacity="0.0784" d="M86.3988 265.961C96.0388 265.961 103.854 258.147 103.854 248.507C103.854 238.867 96.0388 231.052 86.3988 231.052C76.7588 231.052 68.9441 238.867 68.9441 248.507C68.9441 258.147 76.7588 265.961 86.3988 265.961Z" fill="#212972"/>
<path opacity="0.098" d="M86.3988 265.694C95.891 265.694 103.586 257.999 103.586 248.506C103.586 239.014 95.891 231.319 86.3988 231.319C76.9066 231.319 69.2117 239.014 69.2117 248.506C69.2117 257.999 76.9066 265.694 86.3988 265.694Z" fill="#212972"/>
<path opacity="0.1176" d="M86.3988 265.412C95.7365 265.412 103.306 257.843 103.306 248.505C103.306 239.167 95.7365 231.598 86.3988 231.598C77.0611 231.598 69.4915 239.167 69.4915 248.505C69.4915 257.843 77.0611 265.412 86.3988 265.412Z" fill="#212972"/>
<path opacity="0.1373" d="M86.3988 265.146C95.5887 265.146 103.039 257.696 103.039 248.506C103.039 239.316 95.5887 231.866 86.3988 231.866C77.2089 231.866 69.759 239.316 69.759 248.506C69.759 257.696 77.2089 265.146 86.3988 265.146Z" fill="#212972"/>
<path opacity="0.1569" d="M86.3984 264.867C95.4337 264.867 102.758 257.542 102.758 248.507C102.758 239.471 95.4337 232.146 86.3984 232.146C77.363 232.146 70.0383 239.471 70.0383 248.507C70.0383 257.542 77.363 264.867 86.3984 264.867Z" fill="#212972"/>
<path opacity="0.1765" d="M86.3988 264.598C95.2864 264.598 102.491 257.393 102.491 248.506C102.491 239.618 95.2864 232.413 86.3988 232.413C77.5112 232.413 70.3064 239.618 70.3064 248.506C70.3064 257.393 77.5112 264.598 86.3988 264.598Z" fill="#212972"/>
<path opacity="0.1961" d="M86.3986 264.318C95.1317 264.318 102.211 257.238 102.211 248.505C102.211 239.772 95.1317 232.692 86.3986 232.692C77.6655 232.692 70.5859 239.772 70.5859 248.505C70.5859 257.238 77.6655 264.318 86.3986 264.318Z" fill="#212972"/>
<path opacity="0.2157" d="M86.3988 264.051C94.9841 264.051 101.944 257.091 101.944 248.506C101.944 239.921 94.9841 232.961 86.3988 232.961C77.8135 232.961 70.8538 239.921 70.8538 248.506C70.8538 257.091 77.8135 264.051 86.3988 264.051Z" fill="#212972"/>
<path opacity="0.2353" d="M86.399 263.783C94.8365 263.783 101.676 256.943 101.676 248.506C101.676 240.068 94.8365 233.229 86.399 233.229C77.9615 233.229 71.1216 240.068 71.1216 248.506C71.1216 256.943 77.9615 263.783 86.399 263.783Z" fill="#212972"/>
<path opacity="0.2549" d="M86.3988 263.502C94.6818 263.502 101.397 256.788 101.397 248.505C101.397 240.222 94.6818 233.507 86.3988 233.507C78.1158 233.507 71.4011 240.222 71.4011 248.505C71.4011 256.788 78.1158 263.502 86.3988 263.502Z" fill="#212972"/>
<path opacity="0.2745" d="M86.3983 263.237C94.5335 263.237 101.128 256.642 101.128 248.506C101.128 240.371 94.5335 233.776 86.3983 233.776C78.2631 233.776 71.6682 240.371 71.6682 248.506C71.6682 256.642 78.2631 263.237 86.3983 263.237Z" fill="#212972"/>
<path opacity="0.2941" d="M86.3988 262.957C94.3795 262.957 100.849 256.488 100.849 248.507C100.849 240.526 94.3795 234.057 86.3988 234.057C78.4181 234.057 71.9485 240.526 71.9485 248.507C71.9485 256.488 78.4181 262.957 86.3988 262.957Z" fill="#212972"/>
<path opacity="0.3137" d="M86.3988 262.688C94.2317 262.688 100.582 256.338 100.582 248.505C100.582 240.672 94.2317 234.322 86.3988 234.322C78.5659 234.322 72.2161 240.672 72.2161 248.505C72.2161 256.338 78.5659 262.688 86.3988 262.688Z" fill="#212972"/>
<path opacity="0.3333" d="M86.3991 262.409C94.0775 262.409 100.302 256.185 100.302 248.507C100.302 240.828 94.0775 234.604 86.3991 234.604C78.7207 234.604 72.4961 240.828 72.4961 248.507C72.4961 256.185 78.7207 262.409 86.3991 262.409Z" fill="#212972"/>
<path opacity="0.3529" d="M86.3983 262.141C93.9289 262.141 100.034 256.036 100.034 248.506C100.034 240.975 93.9289 234.87 86.3983 234.87C78.8677 234.87 72.7629 240.975 72.7629 248.506C72.7629 256.036 78.8677 262.141 86.3983 262.141Z" fill="#212972"/>
<path opacity="0.3725" d="M86.3988 261.872C93.7816 261.872 99.7666 255.887 99.7666 248.505C99.7666 241.122 93.7816 235.137 86.3988 235.137C79.016 235.137 73.031 241.122 73.031 248.505C73.031 255.887 79.016 261.872 86.3988 261.872Z" fill="#212972"/>
<path opacity="0.3922" d="M86.3988 261.595C93.6271 261.595 99.4868 255.735 99.4868 248.507C99.4868 241.279 93.6271 235.419 86.3988 235.419C79.1705 235.419 73.3108 241.279 73.3108 248.507C73.3108 255.735 79.1705 261.595 86.3988 261.595Z" fill="#212972"/>
<path opacity="0.4118" d="M86.3985 261.326C93.4791 261.326 99.219 255.587 99.219 248.506C99.219 241.425 93.4791 235.686 86.3985 235.686C79.318 235.686 73.5781 241.425 73.5781 248.506C73.5781 255.587 79.318 261.326 86.3985 261.326Z" fill="#212972"/>
<path opacity="0.4314" d="M86.3988 261.048C93.3248 261.048 98.9395 255.433 98.9395 248.507C98.9395 241.581 93.3248 235.967 86.3988 235.967C79.4728 235.967 73.8582 241.581 73.8582 248.507C73.8582 255.433 79.4728 261.048 86.3988 261.048Z" fill="#212972"/>
<path opacity="0.451" d="M86.399 260.78C93.1773 260.78 98.6721 255.285 98.6721 248.506C98.6721 241.728 93.1773 236.233 86.399 236.233C79.6208 236.233 74.126 241.728 74.126 248.506C74.126 255.285 79.6208 260.78 86.399 260.78Z" fill="#212972"/>
<path opacity="0.4706" d="M86.3988 260.511C93.0292 260.511 98.4042 255.136 98.4042 248.505C98.4042 241.875 93.0292 236.5 86.3988 236.5C79.7683 236.5 74.3933 241.875 74.3933 248.505C74.3933 255.136 79.7683 260.511 86.3988 260.511Z" fill="#212972"/>
<path opacity="0.4902" d="M86.399 260.232C92.875 260.232 98.1247 254.982 98.1247 248.506C98.1247 242.03 92.875 236.78 86.399 236.78C79.9231 236.78 74.6733 242.03 74.6733 248.506C74.6733 254.982 79.9231 260.232 86.399 260.232Z" fill="#212972"/>
<path opacity="0.5098" d="M86.399 259.963C92.7271 259.963 97.8571 254.833 97.8571 248.505C97.8571 242.177 92.7271 237.047 86.399 237.047C80.0709 237.047 74.9409 242.177 74.9409 248.505C74.9409 254.833 80.0709 259.963 86.399 259.963Z" fill="#212972"/>
<path opacity="0.5294" d="M86.3988 259.684C92.5724 259.684 97.5771 254.679 97.5771 248.505C97.5771 242.332 92.5724 237.327 86.3988 237.327C80.2252 237.327 75.2205 242.332 75.2205 248.505C75.2205 254.679 80.2252 259.684 86.3988 259.684Z" fill="#212972"/>
<path opacity="0.549" d="M86.3988 259.415C92.4246 259.415 97.3095 254.53 97.3095 248.504C97.3095 242.479 92.4246 237.594 86.3988 237.594C80.3729 237.594 75.488 242.479 75.488 248.504C75.488 254.53 80.3729 259.415 86.3988 259.415Z" fill="#212972"/>
<path opacity="0.5686" d="M86.399 259.135C92.2704 259.135 97.03 254.375 97.03 248.504C97.03 242.633 92.2704 237.873 86.399 237.873C80.5277 237.873 75.7681 242.633 75.7681 248.504C75.7681 254.375 80.5277 259.135 86.399 259.135Z" fill="#212972"/>
<path opacity="0.5882" d="M86.3988 258.87C92.1223 258.87 96.7621 254.23 96.7621 248.507C96.7621 242.783 92.1223 238.144 86.3988 238.144C80.6752 238.144 76.0354 242.783 76.0354 248.507C76.0354 254.23 80.6752 258.87 86.3988 258.87Z" fill="#212972"/>
<path opacity="0.6078" d="M86.3988 258.602C91.9745 258.602 96.4945 254.082 96.4945 248.506C96.4945 242.93 91.9745 238.41 86.3988 238.41C80.823 238.41 76.303 242.93 76.303 248.506C76.303 254.082 80.823 258.602 86.3988 258.602Z" fill="#212972"/>
<path opacity="0.6275" d="M86.3988 258.321C91.82 258.321 96.2148 253.926 96.2148 248.505C96.2148 243.083 91.82 238.688 86.3988 238.688C80.9775 238.688 76.5828 243.083 76.5828 248.505C76.5828 253.926 80.9775 258.321 86.3988 258.321Z" fill="#212972"/>
<path opacity="0.6471" d="M86.399 258.054C91.6724 258.054 95.9474 253.779 95.9474 248.505C95.9474 243.232 91.6724 238.957 86.399 238.957C81.1256 238.957 76.8506 243.232 76.8506 248.505C76.8506 253.779 81.1256 258.054 86.399 258.054Z" fill="#212972"/>
<path opacity="0.6667" d="M86.3988 257.775C91.5177 257.775 95.6674 253.625 95.6674 248.506C95.6674 243.387 91.5177 239.237 86.3988 239.237C81.2798 239.237 77.1301 243.387 77.1301 248.506C77.1301 253.625 81.2798 257.775 86.3988 257.775Z" fill="#212972"/>
<path opacity="0.6863" d="M86.399 257.508C91.3701 257.508 95.4 253.478 95.4 248.507C95.4 243.536 91.3701 239.506 86.399 239.506C81.4279 239.506 77.3979 243.536 77.3979 248.507C77.3979 253.478 81.4279 257.508 86.399 257.508Z" fill="#212972"/>
<path opacity="0.7059" d="M86.399 257.228C91.2157 257.228 95.1203 253.323 95.1203 248.506C95.1203 243.69 91.2157 239.785 86.399 239.785C81.5824 239.785 77.6777 243.69 77.6777 248.506C77.6777 253.323 81.5824 257.228 86.399 257.228Z" fill="#212972"/>
<path opacity="0.7255" d="M86.3985 256.959C91.0674 256.959 94.8522 253.174 94.8522 248.505C94.8522 243.837 91.0674 240.052 86.3985 240.052C81.7297 240.052 77.9448 243.837 77.9448 248.505C77.9448 253.174 81.7297 256.959 86.3985 256.959Z" fill="#212972"/>
<path opacity="0.7451" d="M86.399 256.692C90.92 256.692 94.5851 253.026 94.5851 248.505C94.5851 243.984 90.92 240.319 86.399 240.319C81.8779 240.319 78.2129 243.984 78.2129 248.505C78.2129 253.026 81.8779 256.692 86.399 256.692Z" fill="#212972"/>
<path opacity="0.7647" d="M94.3173 248.505C94.3173 252.872 90.7777 256.411 86.411 256.411C82.0442 256.411 78.5046 252.872 78.5046 248.505C78.5046 244.138 82.0442 240.599 86.411 240.599C90.7655 240.599 94.3173 244.138 94.3173 248.505Z" fill="#212972"/>
<path opacity="0.7843" d="M94.0375 248.505C94.0375 252.726 90.6195 256.144 86.3987 256.144C82.178 256.144 78.76 252.726 78.76 248.505C78.76 244.284 82.178 240.866 86.3987 240.866C90.6195 240.866 94.0375 244.284 94.0375 248.505Z" fill="#212972"/>
<path opacity="0.8039" d="M93.7702 248.506C93.7702 252.569 90.4738 255.865 86.4112 255.865C82.3486 255.865 79.0522 252.569 79.0522 248.506C79.0522 244.444 82.3486 241.147 86.4112 241.147C90.4738 241.135 93.7702 244.432 93.7702 248.506Z" fill="#212972"/>
<path opacity="0.8235" d="M93.4901 248.505C93.4901 252.422 90.3154 255.597 86.3987 255.597C82.4821 255.597 79.3074 252.422 79.3074 248.505C79.3074 244.589 82.4821 241.414 86.3987 241.414C90.3154 241.414 93.4901 244.589 93.4901 248.505Z" fill="#212972"/>
<path opacity="0.8431" d="M93.2225 248.506C93.2225 252.277 90.1694 255.33 86.3987 255.33C82.628 255.33 79.575 252.277 79.575 248.506C79.575 244.736 82.628 241.683 86.3987 241.683C90.1694 241.683 93.2225 244.736 93.2225 248.506Z" fill="#212972"/>
<path opacity="0.8627" d="M92.943 248.507C92.943 252.119 90.0116 255.051 86.399 255.051C82.7864 255.051 79.855 252.119 79.855 248.507C79.855 244.894 82.7864 241.963 86.399 241.963C90.0237 241.963 92.943 244.894 92.943 248.507Z" fill="#212972"/>
<path opacity="0.8824" d="M92.6751 248.504C92.6751 251.971 89.8653 254.78 86.3987 254.78C82.9321 254.78 80.1223 251.971 80.1223 248.504C80.1223 245.037 82.9321 242.228 86.3987 242.228C89.8653 242.228 92.6751 245.037 92.6751 248.504Z" fill="#212972"/>
<path opacity="0.902" d="M92.4081 248.505C92.4081 251.813 89.7199 254.501 86.4114 254.501C83.1029 254.501 80.4148 251.813 80.4148 248.505C80.4148 245.196 83.1029 242.508 86.4114 242.508C89.7199 242.496 92.4081 245.184 92.4081 248.505Z" fill="#212972"/>
<path opacity="0.9216" d="M92.128 248.505C92.128 251.668 89.5615 254.234 86.399 254.234C83.2364 254.234 80.6699 251.668 80.6699 248.505C80.6699 245.343 83.2364 242.776 86.399 242.776C89.5615 242.776 92.128 245.343 92.128 248.505Z" fill="#212972"/>
<path opacity="0.9412" d="M91.8605 248.506C91.8605 251.523 89.4156 253.955 86.4112 253.955C83.3946 253.955 80.9619 251.51 80.9619 248.506C80.9619 245.502 83.4068 243.057 86.4112 243.057C89.4156 243.045 91.8605 245.489 91.8605 248.506Z" fill="#212972"/>
<path opacity="0.9608" d="M91.5807 248.508C91.5807 251.366 89.2574 253.69 86.399 253.69C83.5405 253.69 81.2173 251.366 81.2173 248.508C81.2173 245.649 83.5405 243.326 86.399 243.326C89.2696 243.326 91.5807 245.637 91.5807 248.508Z" fill="#212972"/>
<path opacity="0.9804" d="M91.3128 248.505C91.3128 251.217 89.1112 253.419 86.3987 253.419C83.6862 253.419 81.4846 251.217 81.4846 248.505C81.4846 245.792 83.6862 243.591 86.3987 243.591C89.1112 243.591 91.3128 245.792 91.3128 248.505Z" fill="#212972"/>
<path d="M91.0328 248.505C91.0328 251.06 88.9528 253.14 86.3985 253.14C83.8441 253.14 81.7642 251.06 81.7642 248.505C81.7642 245.951 83.8441 243.871 86.3985 243.871C88.965 243.871 91.0328 245.939 91.0328 248.505Z" fill="#212972"/>
</g>
<path d="M83.1751 252.835C91.5521 252.835 98.3431 246.044 98.3431 237.667C98.3431 229.29 91.5521 222.499 83.1751 222.499C74.798 222.499 68.0071 229.29 68.0071 237.667C68.0071 246.044 74.798 252.835 83.1751 252.835Z" fill="white"/>
<path d="M79.5259 237.668V233.69C79.5259 232.705 80.5841 232.097 81.4356 232.583L84.8779 234.566L88.3201 236.549C89.1716 237.035 89.1716 238.264 88.3201 238.762L84.8779 240.745L81.4356 242.728C80.5841 243.214 79.5259 242.606 79.5259 241.621V237.668Z" fill="url(#paint9_linear_132_3322)"/>
<path d="M31.8454 149.104H70.8297C71.7054 149.104 72.4231 148.386 72.4231 147.51C72.4231 146.635 71.7054 145.917 70.8297 145.917H31.8454C30.9696 145.917 30.252 146.635 30.252 147.51C30.2641 148.398 30.9696 149.104 31.8454 149.104Z" fill="#F79F1F"/>
<path d="M41.0046 155.867H70.8418C71.7176 155.867 72.4353 155.149 72.4353 154.273C72.4353 153.397 71.7176 152.68 70.8418 152.68H41.0046C40.1288 152.68 39.4111 153.397 39.4111 154.273C39.4111 155.161 40.1166 155.867 41.0046 155.867Z" fill="#F79F1F"/>
<path d="M61.9257 163.129H70.8416C71.7174 163.129 72.435 162.412 72.435 161.536C72.435 160.66 71.7174 159.942 70.8416 159.942H61.9257C61.0499 159.942 60.3323 160.66 60.3323 161.536C60.3323 162.424 61.0499 163.129 61.9257 163.129Z" fill="#F79F1F"/>
<g opacity="0.5">
<path opacity="0.0196" d="M149.637 359.257H132.133C127.681 359.257 124.069 355.644 124.069 351.192V246.391C124.069 241.939 127.681 238.326 132.133 238.326H149.637C154.089 238.326 157.701 241.939 157.701 246.391V351.192C157.701 355.656 154.101 359.257 149.637 359.257Z" fill="#282A57"/>
<path opacity="0.0392" d="M149.528 359.036H132.243C127.84 359.036 124.276 355.473 124.276 351.069V246.511C124.276 242.108 127.84 238.544 132.243 238.544H149.528C153.931 238.544 157.495 242.108 157.495 246.511V351.069C157.495 355.473 153.931 359.036 149.528 359.036Z" fill="#282A57"/>
<path opacity="0.0588" d="M149.418 358.816H132.353C128.01 358.816 124.495 355.301 124.495 350.958V246.631C124.495 242.289 128.01 238.773 132.353 238.773H149.418C153.76 238.773 157.276 242.289 157.276 246.631V350.958C157.276 355.301 153.76 358.816 149.418 358.816Z" fill="#282A57"/>
<path opacity="0.0784" d="M149.309 358.6H132.474C128.193 358.6 124.714 355.121 124.714 350.839V246.755C124.714 242.474 128.193 238.995 132.474 238.995H149.309C153.59 238.995 157.069 242.474 157.069 246.755V350.839C157.069 355.121 153.59 358.6 149.309 358.6Z" fill="#282A57"/>
<path opacity="0.098" d="M149.199 358.367H132.583C128.351 358.367 124.92 354.937 124.92 350.704V246.863C124.92 242.63 128.351 239.2 132.583 239.2H149.199C153.432 239.2 156.862 242.63 156.862 246.863V350.704C156.85 354.949 153.42 358.367 149.199 358.367Z" fill="#282A57"/>
<path opacity="0.1176" d="M149.09 358.149H132.693C128.521 358.149 125.139 354.767 125.139 350.595V246.998C125.139 242.826 128.521 239.444 132.693 239.444H149.09C153.262 239.444 156.643 242.826 156.643 246.998V350.595C156.643 354.767 153.262 358.149 149.09 358.149Z" fill="#282A57"/>
<path opacity="0.1373" d="M148.98 357.931H132.802C128.691 357.931 125.346 354.598 125.346 350.475V247.109C125.346 242.997 128.679 239.652 132.802 239.652H148.98C153.091 239.652 156.436 242.985 156.436 247.109V350.475C156.424 354.598 153.091 357.931 148.98 357.931Z" fill="#282A57"/>
<path opacity="0.1569" d="M148.858 357.712H132.912C128.849 357.712 125.565 354.416 125.565 350.365V247.242C125.565 243.18 128.861 239.896 132.912 239.896H148.858C152.921 239.896 156.205 243.192 156.205 247.242V350.365C156.217 354.416 152.921 357.712 148.858 357.712Z" fill="#282A57"/>
<path opacity="0.1765" d="M148.749 357.478H133.021C129.02 357.478 125.772 354.231 125.772 350.229V247.349C125.772 243.347 129.02 240.1 133.021 240.1H148.749C152.751 240.1 155.998 243.347 155.998 247.349V350.229C155.998 354.243 152.751 357.478 148.749 357.478Z" fill="#282A57"/>
<path opacity="0.1961" d="M148.64 357.261H133.131C129.19 357.261 125.991 354.062 125.991 350.121V247.472C125.991 243.531 129.19 240.332 133.131 240.332H148.64C152.581 240.332 155.78 243.531 155.78 247.472V350.121C155.792 354.062 152.593 357.261 148.64 357.261Z" fill="#282A57"/>
<path opacity="0.2157" d="M148.53 357.041H133.24C129.348 357.041 126.198 353.891 126.198 349.999V247.594C126.198 243.701 129.348 240.551 133.24 240.551H148.53C152.422 240.551 155.573 243.701 155.573 247.594V349.999C155.573 353.891 152.422 357.041 148.53 357.041Z" fill="#282A57"/>
<path opacity="0.2353" d="M148.421 356.823H133.362C129.531 356.823 126.417 353.722 126.417 349.878V247.716C126.417 243.884 129.518 240.771 133.362 240.771H148.421C152.252 240.771 155.366 243.872 155.366 247.716V349.878C155.366 353.709 152.252 356.823 148.421 356.823Z" fill="#282A57"/>
<path opacity="0.2549" d="M148.311 356.591H133.472C129.701 356.591 126.636 353.526 126.636 349.755V247.824C126.636 244.041 129.701 240.988 133.472 240.988H148.311C152.094 240.988 155.147 244.054 155.147 247.824V349.755C155.147 353.538 152.082 356.591 148.311 356.591Z" fill="#282A57"/>
<path opacity="0.2745" d="M148.202 356.372H133.581C129.859 356.372 126.842 353.355 126.842 349.633V247.946C126.842 244.224 129.859 241.207 133.581 241.207H148.202C151.924 241.207 154.94 244.224 154.94 247.946V349.633C154.928 353.355 151.911 356.372 148.202 356.372Z" fill="#282A57"/>
<path opacity="0.2941" d="M148.092 356.154H133.69C130.029 356.154 127.061 353.186 127.061 349.525V248.08C127.061 244.419 130.029 241.451 133.69 241.451H148.092C151.753 241.451 154.721 244.419 154.721 248.08V349.525C154.721 353.186 151.753 356.154 148.092 356.154Z" fill="#282A57"/>
<path opacity="0.3137" d="M147.971 355.935H133.8C130.188 355.935 127.268 353.015 127.268 349.403V248.202C127.268 244.589 130.188 241.67 133.8 241.67H147.971C151.583 241.67 154.503 244.589 154.503 248.202V349.403C154.503 353.003 151.583 355.935 147.971 355.935Z" fill="#282A57"/>
<path opacity="0.3333" d="M147.861 355.703H133.909C130.358 355.703 127.475 352.821 127.475 349.269V248.299C127.475 244.747 130.358 241.864 133.909 241.864H147.861C151.413 241.864 154.296 244.747 154.296 248.299V349.269C154.296 352.833 151.413 355.703 147.861 355.703Z" fill="#282A57"/>
<path opacity="0.3529" d="M147.751 355.484H134.019C130.528 355.484 127.694 352.65 127.694 349.159V248.433C127.694 244.942 130.528 242.107 134.019 242.107H147.751C151.242 242.107 154.076 244.942 154.076 248.433V349.159C154.076 352.65 151.242 355.484 147.751 355.484Z" fill="#282A57"/>
<path opacity="0.3725" d="M147.642 355.265H134.129C130.686 355.265 127.901 352.48 127.901 349.037V248.554C127.901 245.112 130.686 242.326 134.129 242.326H147.642C151.085 242.326 153.87 245.112 153.87 248.554V349.037C153.87 352.48 151.085 355.265 147.642 355.265Z" fill="#282A57"/>
<path opacity="0.3922" d="M147.532 355.035H134.25C130.868 355.035 128.132 352.298 128.132 348.916V248.664C128.132 245.283 130.868 242.546 134.25 242.546H147.532C150.914 242.546 153.651 245.283 153.651 248.664V348.916C153.651 352.298 150.914 355.035 147.532 355.035Z" fill="#282A57"/>
<path opacity="0.4118" d="M147.423 354.815H134.359C131.039 354.815 128.338 352.114 128.338 348.794V248.785C128.338 245.464 131.039 242.764 134.359 242.764H147.423C150.744 242.764 153.444 245.464 153.444 248.785V348.794C153.444 352.127 150.744 354.815 147.423 354.815Z" fill="#282A57"/>
<path opacity="0.4314" d="M147.314 354.596H134.469C131.197 354.596 128.557 351.944 128.557 348.672V248.906C128.557 245.634 131.209 242.982 134.469 242.982H147.314C150.586 242.982 153.237 245.634 153.237 248.906V348.672C153.225 351.944 150.573 354.596 147.314 354.596Z" fill="#282A57"/>
<path opacity="0.451" d="M147.192 354.378H134.566C131.355 354.378 128.752 351.775 128.752 348.564V249.029C128.752 245.818 131.355 243.215 134.566 243.215H147.192C150.403 243.215 153.006 245.818 153.006 249.029V348.564C153.018 351.775 150.415 354.378 147.192 354.378Z" fill="#282A57"/>
<path opacity="0.4706" d="M147.083 354.146H134.688C131.537 354.146 128.971 351.592 128.971 348.429V249.138C128.971 245.987 131.525 243.421 134.688 243.421H147.083C150.233 243.421 152.799 245.975 152.799 249.138V348.429C152.799 351.592 150.245 354.146 147.083 354.146Z" fill="#282A57"/>
<path opacity="0.4902" d="M146.973 353.927H134.797C131.696 353.927 129.19 351.409 129.19 348.32V249.271C129.19 246.17 131.708 243.664 134.797 243.664H146.973C150.075 243.664 152.581 246.182 152.581 249.271V348.32C152.593 351.421 150.075 353.927 146.973 353.927Z" fill="#282A57"/>
<path opacity="0.5098" d="M146.864 353.708H134.907C131.866 353.708 129.397 351.239 129.397 348.198V249.381C129.397 246.34 131.866 243.871 134.907 243.871H146.864C149.905 243.871 152.374 246.34 152.374 249.381V348.198C152.374 351.239 149.905 353.708 146.864 353.708Z" fill="#282A57"/>
<path opacity="0.5294" d="M146.754 353.491H135.016C132.036 353.491 129.615 351.071 129.615 348.091V249.517C129.615 246.537 132.036 244.116 135.016 244.116H146.754C149.734 244.116 152.155 246.537 152.155 249.517V348.091C152.155 351.071 149.734 353.491 146.754 353.491Z" fill="#282A57"/>
<path opacity="0.549" d="M146.645 353.258H135.138C132.207 353.258 129.835 350.887 129.835 347.955V249.625C129.835 246.693 132.207 244.321 135.138 244.321H146.645C149.576 244.321 151.948 246.693 151.948 249.625V347.955C151.948 350.887 149.576 353.258 146.645 353.258Z" fill="#282A57"/>
<path opacity="0.5686" d="M146.535 353.038H135.248C132.377 353.038 130.042 350.715 130.042 347.832V249.745C130.042 246.874 132.365 244.539 135.248 244.539H146.535C149.406 244.539 151.741 246.862 151.741 249.745V347.832C151.729 350.715 149.406 353.038 146.535 353.038Z" fill="#282A57"/>
<path opacity="0.5882" d="M146.426 352.822H135.357C132.535 352.822 130.26 350.535 130.26 347.725V249.869C130.26 247.047 132.547 244.772 135.357 244.772H146.426C149.248 244.772 151.522 247.059 151.522 249.869V347.725C151.522 350.535 149.235 352.822 146.426 352.822Z" fill="#282A57"/>
<path opacity="0.6078" d="M146.304 352.602H135.466C132.705 352.602 130.467 350.364 130.467 347.603V249.99C130.467 247.229 132.705 244.991 135.466 244.991H146.304C149.065 244.991 151.303 247.229 151.303 249.99V347.603C151.303 350.364 149.065 352.602 146.304 352.602Z" fill="#282A57"/>
<path opacity="0.6275" d="M146.195 352.372H135.576C132.875 352.372 130.686 350.182 130.686 347.482V250.112C130.686 247.412 132.875 245.223 135.576 245.223H146.195C148.895 245.223 151.084 247.412 151.084 250.112V347.482C151.097 350.182 148.907 352.372 146.195 352.372Z" fill="#282A57"/>
<path opacity="0.6471" d="M146.085 352.152H135.685C133.034 352.152 130.893 350.011 130.893 347.36V250.221C130.893 247.57 133.034 245.429 135.685 245.429H146.085C148.737 245.429 150.878 247.57 150.878 250.221V347.36C150.878 350.011 148.737 352.152 146.085 352.152Z" fill="#282A57"/>
<path opacity="0.6667" d="M145.976 351.934H135.795C133.204 351.934 131.1 349.83 131.1 347.239V250.344C131.1 247.753 133.204 245.648 135.795 245.648H145.976C148.567 245.648 150.671 247.753 150.671 250.344V347.239C150.671 349.83 148.567 351.934 145.976 351.934Z" fill="#282A57"/>
<path opacity="0.6863" d="M145.866 351.715H135.916C133.386 351.715 131.331 349.66 131.331 347.13V250.466C131.331 247.936 133.386 245.88 135.916 245.88H145.866C148.396 245.88 150.452 247.936 150.452 250.466V347.117C150.452 349.66 148.396 351.715 145.866 351.715Z" fill="#282A57"/>
<path opacity="0.7059" d="M145.757 351.483H136.026C133.545 351.483 131.538 349.476 131.538 346.995V250.586C131.538 248.105 133.545 246.098 136.026 246.098H145.757C148.238 246.098 150.245 248.105 150.245 250.586V347.007C150.245 349.476 148.226 351.483 145.757 351.483Z" fill="#282A57"/>
<path opacity="0.7255" d="M145.647 351.262H136.135C133.715 351.262 131.757 349.304 131.757 346.884V250.706C131.757 248.285 133.715 246.327 136.135 246.327H145.647C148.068 246.327 150.026 248.285 150.026 250.706V346.884C150.026 349.304 148.068 351.262 145.647 351.262Z" fill="#282A57"/>
<path opacity="0.7451" d="M145.537 351.045H136.244C133.885 351.045 131.963 349.123 131.963 346.764V250.829C131.963 248.47 133.885 246.548 136.244 246.548H145.537C147.897 246.548 149.819 248.47 149.819 250.829V346.764C149.807 349.123 147.897 351.045 145.537 351.045Z" fill="#282A57"/>
<path opacity="0.7647" d="M145.416 350.813H136.354C134.043 350.813 132.17 348.939 132.17 346.64V250.949C132.17 248.638 134.043 246.777 136.354 246.777H145.416C147.727 246.777 149.588 248.651 149.588 250.949V346.64C149.6 348.951 147.727 350.813 145.416 350.813Z" fill="#282A57"/>
<path opacity="0.7843" d="M145.307 350.595H136.464C134.214 350.595 132.389 348.77 132.389 346.52V251.06C132.389 248.81 134.214 246.985 136.464 246.985H145.307C147.557 246.985 149.382 248.81 149.382 251.06V346.52C149.382 348.77 147.557 350.595 145.307 350.595Z" fill="#282A57"/>
<path opacity="0.8039" d="M145.197 350.375H136.573C134.384 350.375 132.595 348.599 132.595 346.397V251.181C132.595 248.991 134.371 247.203 136.573 247.203H145.197C147.386 247.203 149.174 248.979 149.174 251.181V346.397C149.174 348.599 147.399 350.375 145.197 350.375Z" fill="#282A57"/>
<path opacity="0.8235" d="M145.088 350.158H136.682C134.542 350.158 132.814 348.43 132.814 346.29V251.316C132.814 249.175 134.542 247.448 136.682 247.448H145.088C147.228 247.448 148.956 249.175 148.956 251.316V346.29C148.956 348.418 147.228 350.158 145.088 350.158Z" fill="#282A57"/>
<path opacity="0.8431" d="M144.978 349.926H136.804C134.724 349.926 133.034 348.235 133.034 346.155V251.413C133.034 249.333 134.724 247.643 136.804 247.643H144.978C147.058 247.643 148.749 249.333 148.749 251.413V346.155C148.749 348.248 147.058 349.926 144.978 349.926Z" fill="#282A57"/>
<path opacity="0.8627" d="M144.869 349.706H136.914C134.895 349.706 133.252 348.064 133.252 346.045V251.546C133.252 249.527 134.895 247.885 136.914 247.885H144.869C146.888 247.885 148.53 249.527 148.53 251.546V346.045C148.53 348.064 146.888 349.706 144.869 349.706Z" fill="#282A57"/>
<path opacity="0.8824" d="M144.759 349.488H137.023C135.053 349.488 133.459 347.895 133.459 345.924V251.668C133.459 249.698 135.053 248.104 137.023 248.104H144.759C146.73 248.104 148.323 249.698 148.323 251.668V345.924C148.323 347.895 146.73 349.488 144.759 349.488Z" fill="#282A57"/>
<path opacity="0.902" d="M144.65 349.27H137.133C135.223 349.27 133.667 347.726 133.667 345.804V251.779C133.667 249.869 135.211 248.312 137.133 248.312H144.65C146.56 248.312 148.117 249.857 148.117 251.779V345.804C148.105 347.713 146.56 349.27 144.65 349.27Z" fill="#282A57"/>
<path opacity="0.9216" d="M144.528 349.037H137.242C135.381 349.037 133.885 347.528 133.885 345.679V251.898C133.885 250.037 135.393 248.541 137.242 248.541H144.528C146.389 248.541 147.885 250.049 147.885 251.898V345.679C147.897 347.54 146.389 349.037 144.528 349.037Z" fill="#282A57"/>
<path opacity="0.9412" d="M144.419 348.818H137.352C135.551 348.818 134.092 347.359 134.092 345.559V252.021C134.092 250.22 135.551 248.761 137.352 248.761H144.419C146.219 248.761 147.679 250.22 147.679 252.021V345.559C147.679 347.359 146.219 348.818 144.419 348.818Z" fill="#282A57"/>
<path opacity="0.9608" d="M144.31 348.599H137.461C135.722 348.599 134.311 347.188 134.311 345.449V252.154C134.311 250.415 135.722 249.004 137.461 249.004H144.31C146.049 249.004 147.46 250.415 147.46 252.154V345.449C147.472 347.188 146.049 348.599 144.31 348.599Z" fill="#282A57"/>
<path opacity="0.9804" d="M144.199 348.383H137.57C135.879 348.383 134.517 347.02 134.517 345.33V252.266C134.517 250.575 135.879 249.213 137.57 249.213H144.199C145.89 249.213 147.252 250.575 147.252 252.266V345.33C147.252 347.008 145.89 348.383 144.199 348.383Z" fill="#282A57"/>
<path d="M144.09 348.148H137.692C136.062 348.148 134.737 346.822 134.737 345.192V252.372C134.737 250.742 136.062 249.416 137.692 249.416H144.09C145.72 249.416 147.046 250.742 147.046 252.372V345.192C147.034 346.834 145.72 348.148 144.09 348.148Z" fill="#282A57"/>
</g>
<path d="M143.361 353.16H125.638C121.126 353.16 117.464 349.499 117.464 344.986V239.942C117.464 235.429 121.126 231.768 125.638 231.768H143.361C147.873 231.768 151.535 235.429 151.535 239.942V344.986C151.522 349.499 147.873 353.16 143.361 353.16Z" fill="white"/>
<path d="M134.542 244.528L128.874 247.265C128.691 247.35 128.57 247.545 128.57 247.752V257.361C128.57 257.665 128.813 257.896 129.105 257.896H131.708C132.012 257.896 132.243 257.653 132.243 257.361V252.569C132.243 252.264 132.486 252.033 132.778 252.033H136.768C137.072 252.033 137.303 252.277 137.303 252.569V257.361C137.303 257.665 137.547 257.896 137.838 257.896H140.441C140.746 257.896 140.977 257.653 140.977 257.361V247.752C140.977 247.545 140.855 247.35 140.673 247.265L135.004 244.528C134.858 244.455 134.688 244.455 134.542 244.528Z" fill="#00ADFF"/>
<path d="M139.261 273.987H138.483L137.364 272.418C137.279 272.297 137.133 272.224 136.987 272.224H132.547C132.401 272.224 132.255 272.297 132.17 272.418L131.051 273.987H130.272C129.068 273.987 128.083 274.973 128.083 276.177V282.551C128.083 283.755 129.068 284.74 130.272 284.74H139.261C140.466 284.74 141.451 283.755 141.451 282.551V276.177C141.451 274.973 140.466 273.987 139.261 273.987ZM134.773 282.538C132.985 282.538 131.537 281.091 131.537 279.303C131.537 277.515 132.985 276.067 134.773 276.067C136.561 276.067 138.008 277.515 138.008 279.303C137.996 281.091 136.561 282.538 134.773 282.538Z" fill="#00ADFF"/>
<path d="M134.773 277.685C133.873 277.685 133.155 278.414 133.155 279.302C133.155 280.202 133.885 280.92 134.773 280.92C135.673 280.92 136.391 280.19 136.391 279.302C136.391 278.414 135.661 277.685 134.773 277.685Z" fill="#00ADFF"/>
<path d="M135.758 311.341C133.751 311.682 131.744 311.682 129.737 311.341C128.631 311.159 127.767 310.295 127.585 309.188C127.244 307.181 127.244 305.174 127.585 303.167C127.767 302.06 128.631 301.197 129.737 301.014C131.744 300.674 133.751 300.674 135.758 301.014C136.865 301.197 137.729 302.06 137.911 303.167C138.252 305.174 138.252 307.181 137.911 309.188C137.717 310.295 136.865 311.159 135.758 311.341Z" fill="#00ADFF"/>
<path d="M140.806 303.495L139.736 304.115C139.334 304.346 139.091 304.772 139.091 305.234V306.986C139.091 307.448 139.334 307.874 139.736 308.105L140.806 308.725C141.439 309.09 142.217 308.64 142.217 307.91V304.31C142.217 303.592 141.439 303.142 140.806 303.495Z" fill="#00ADFF"/>
<path d="M139.87 333.274C142.01 331.134 141.864 327.57 139.432 325.611C137.583 324.127 134.883 324.14 133.034 325.611C131.002 327.241 130.577 329.978 131.72 332.095L128.46 335.354C128.132 335.683 128.132 336.206 128.46 336.522L129.336 337.398C129.664 337.726 130.187 337.726 130.504 337.398L133.764 334.138C135.722 335.208 138.215 334.917 139.87 333.274ZM134.128 331.754C132.961 330.586 132.961 328.689 134.128 327.521C135.296 326.353 137.194 326.353 138.361 327.521C139.529 328.689 139.529 330.586 138.361 331.754C137.194 332.922 135.296 332.922 134.128 331.754Z" fill="#00ADFF"/>
<path d="M144.334 247.264C145.026 247.264 145.587 246.703 145.587 246.011C145.587 245.319 145.026 244.758 144.334 244.758C143.642 244.758 143.081 245.319 143.081 246.011C143.081 246.703 143.642 247.264 144.334 247.264Z" fill="#FF4174"/>
<path d="M204.848 238.727H165.863C164.988 238.727 164.27 238.009 164.27 237.133C164.27 236.258 164.988 235.54 165.863 235.54H204.848C205.724 235.54 206.441 236.258 206.441 237.133C206.441 238.021 205.724 238.727 204.848 238.727Z" fill="white"/>
<path d="M195.689 245.489H165.851C164.975 245.489 164.258 244.771 164.258 243.895C164.258 243.019 164.975 242.302 165.851 242.302H195.689C196.564 242.302 197.282 243.019 197.282 243.895C197.282 244.783 196.576 245.489 195.689 245.489Z" fill="white"/>
<path d="M174.767 252.751H165.851C164.975 252.751 164.258 252.034 164.258 251.158C164.258 250.282 164.975 249.564 165.851 249.564H174.767C175.643 249.564 176.361 250.282 176.361 251.158C176.361 252.046 175.643 252.751 174.767 252.751Z" fill="white"/>
<path d="M204.848 264.928H165.863C164.988 264.928 164.27 264.21 164.27 263.335C164.27 262.459 164.988 261.741 165.863 261.741H204.848C205.724 261.741 206.441 262.459 206.441 263.335C206.441 264.223 205.724 264.928 204.848 264.928Z" fill="white"/>
<path d="M195.689 271.69H165.851C164.975 271.69 164.258 270.972 164.258 270.096C164.258 269.221 164.975 268.503 165.851 268.503H195.689C196.564 268.503 197.282 269.221 197.282 270.096C197.282 270.984 196.576 271.69 195.689 271.69Z" fill="white"/>
<path d="M174.767 278.953H165.851C164.975 278.953 164.258 278.236 164.258 277.36C164.258 276.484 164.975 275.767 165.851 275.767H174.767C175.643 275.767 176.361 276.484 176.361 277.36C176.361 278.248 175.643 278.953 174.767 278.953Z" fill="white"/>
<g opacity="0.1">
<path d="M259.194 269.439L262.345 263.977C262.783 263.223 262.235 262.299 261.372 262.299H255.071C254.207 262.299 253.672 263.235 254.098 263.977L257.248 269.439C257.686 270.181 258.769 270.181 259.194 269.439Z" fill="#273A42"/>
<path d="M259.194 284.23L262.345 278.768C262.783 278.014 262.235 277.09 261.372 277.09H255.071C254.207 277.09 253.672 278.026 254.098 278.768L257.248 284.23C257.686 284.972 258.769 284.972 259.194 284.23Z" fill="#273A42"/>
<path d="M259.194 299.007L262.345 293.546C262.783 292.792 262.235 291.867 261.372 291.867H255.071C254.207 291.867 253.672 292.804 254.098 293.546L257.248 299.007C257.686 299.761 258.769 299.761 259.194 299.007Z" fill="#273A42"/>
</g>
<g opacity="0.1">
<path d="M45.7964 110.021L42.646 115.483C42.2081 116.237 42.7555 117.161 43.6191 117.161H49.9198C50.7834 117.161 51.3186 116.225 50.8929 115.483L47.7425 110.021C47.3046 109.279 46.2342 109.279 45.7964 110.021Z" fill="#273A42"/>
<path d="M45.7964 95.2424L42.646 100.704C42.2081 101.458 42.7555 102.382 43.6191 102.382H49.9198C50.7834 102.382 51.3186 101.446 50.8929 100.704L47.7425 95.2424C47.3046 94.4882 46.2342 94.4882 45.7964 95.2424Z" fill="#273A42"/>
<path d="M45.7964 80.452L42.646 85.9134C42.2081 86.6676 42.7555 87.592 43.6191 87.592H49.9198C50.7834 87.592 51.3186 86.6554 50.8929 85.9134L47.7425 80.452C47.3046 79.71 46.2342 79.71 45.7964 80.452Z" fill="#273A42"/>
</g>
<defs>
<filter id="filter0_f_132_3322" x="54.3231" y="0.744717" width="172.723" height="308.955" filterUnits="userSpaceOnUse" color-interpolation-filters="sRGB">
<feFlood flood-opacity="0" result="BackgroundImageFix"/>
<feBlend mode="normal" in="SourceGraphic" in2="BackgroundImageFix" result="shape"/>
<feGaussianBlur stdDeviation="4.86543" result="effect1_foregroundBlur_132_3322"/>
</filter>
<filter id="filter1_f_132_3322" x="96.8961" y="36.0191" width="172.723" height="308.955" filterUnits="userSpaceOnUse" color-interpolation-filters="sRGB">
<feFlood flood-opacity="0" result="BackgroundImageFix"/>
<feBlend mode="normal" in="SourceGraphic" in2="BackgroundImageFix" result="shape"/>
<feGaussianBlur stdDeviation="4.86543" result="effect1_foregroundBlur_132_3322"/>
</filter>
<filter id="filter2_d_132_3322" x="123.802" y="72.2178" width="94.4502" height="94.4499" filterUnits="userSpaceOnUse" color-interpolation-filters="sRGB">
<feFlood flood-opacity="0" result="BackgroundImageFix"/>
<feColorMatrix in="SourceAlpha" type="matrix" values="0 0 0 0 0 0 0 0 0 0 0 0 0 0 0 0 0 0 127 0" result="hardAlpha"/>
<feOffset dx="12.1636" dy="12.1636"/>
<feGaussianBlur stdDeviation="2.43272"/>
<feComposite in2="hardAlpha" operator="out"/>
<feColorMatrix type="matrix" values="0 0 0 0 0 0 0 0 0 0 0 0 0 0 0 0 0 0 0.35 0"/>
<feBlend mode="normal" in2="BackgroundImageFix" result="effect1_dropShadow_132_3322"/>
<feBlend mode="normal" in="SourceGraphic" in2="effect1_dropShadow_132_3322" result="shape"/>
</filter>
<linearGradient id="paint0_linear_132_3322" x1="215.915" y1="5.0844" x2="232.146" y2="16.5416" gradientUnits="userSpaceOnUse">
<stop stop-color="#009EE0"/>
<stop offset="1" stop-color="#BDF7A3"/>
</linearGradient>
<linearGradient id="paint1_linear_132_3322" x1="224.274" y1="22.2894" x2="193.722" y2="2.71669" gradientUnits="userSpaceOnUse">
<stop stop-color="#FFE900"/>
<stop offset="1" stop-color="#FF13BD"/>
</linearGradient>
<linearGradient id="paint2_linear_132_3322" x1="204.954" y1="20.7504" x2="170.582" y2="-0.254562" gradientUnits="userSpaceOnUse">
<stop stop-color="#05CCFF"/>
<stop offset="0.1384" stop-color="#15BBFF"/>
<stop offset="0.4132" stop-color="#418EFF"/>
<stop offset="0.7949" stop-color="#8847FF"/>
<stop offset="1" stop-color="#B01EFF"/>
</linearGradient>
<linearGradient id="paint3_linear_132_3322" x1="124.434" y1="24.3916" x2="241.304" y2="321.783" gradientUnits="userSpaceOnUse">
<stop stop-color="#00A5FF" stop-opacity="0.14"/>
<stop offset="1" stop-color="#446EAC"/>
</linearGradient>
<linearGradient id="paint4_linear_132_3322" x1="243.453" y1="116.251" x2="239.54" y2="34.0877" gradientUnits="userSpaceOnUse">
<stop stop-color="#00A5FF" stop-opacity="0"/>
<stop offset="0.4045" stop-color="#0FC7FF" stop-opacity="0.4198"/>
<stop offset="0.7442" stop-color="#19DDFF" stop-opacity="0.7722"/>
<stop offset="0.9637" stop-color="#1CE5FF"/>
<stop offset="1" stop-color="#16C4DB"/>
</linearGradient>
<linearGradient id="paint5_linear_132_3322" x1="61.4778" y1="340.787" x2="59.3726" y2="296.577" gradientUnits="userSpaceOnUse">
<stop stop-color="#00A5FF" stop-opacity="0"/>
<stop offset="0.4045" stop-color="#0FC7FF" stop-opacity="0.4198"/>
<stop offset="0.7442" stop-color="#19DDFF" stop-opacity="0.7722"/>
<stop offset="0.9637" stop-color="#1CE5FF"/>
<stop offset="1" stop-color="#16C4DB"/>
</linearGradient>
<linearGradient id="paint6_linear_132_3322" x1="129.311" y1="70.2406" x2="201.07" y2="158.203" gradientUnits="userSpaceOnUse">
<stop stop-color="#FFE900"/>
<stop offset="1" stop-color="#FF13BD"/>
</linearGradient>
<linearGradient id="paint7_linear_132_3322" x1="272.266" y1="161.836" x2="192.917" y2="217.313" gradientUnits="userSpaceOnUse">
<stop stop-color="#009EE0"/>
<stop offset="1" stop-color="#BDF7A3"/>
</linearGradient>
<linearGradient id="paint8_linear_132_3322" x1="103.515" y1="94.9689" x2="67.8379" y2="128.396" gradientUnits="userSpaceOnUse">
<stop stop-color="#009EE0"/>
<stop offset="1" stop-color="#BDF7A3"/>
</linearGradient>
<linearGradient id="paint9_linear_132_3322" x1="88.4594" y1="227.375" x2="78.3152" y2="247.356" gradientUnits="userSpaceOnUse">
<stop stop-color="#FF5668"/>
<stop offset="1" stop-color="#E02D66"/>
</linearGradient>
</defs>
</svg>
