<svg width="32" height="32" viewBox="0 0 32 32" fill="none" xmlns="http://www.w3.org/2000/svg">
<path d="M14.1295 9.62927C13.9697 9.36245 13.6727 9.20928 13.3626 9.23285L6.69649 9.74778C6.0216 9.79995 5.42043 10.1537 5.04703 10.7184L2.24952 14.9496C1.9664 15.3779 1.92134 15.9137 2.12904 16.3832C2.33669 16.8526 2.76352 17.1797 3.27074 17.2583L8.676 18.0955C8.71805 18.102 8.76005 18.1052 8.80172 18.1052C9.0786 18.1051 9.34055 17.9648 9.49275 17.7267L14.1169 10.4925C14.2844 10.2304 14.2892 9.89614 14.1295 9.62927Z" fill="#00ADFF"/>
<path d="M22.3694 17.8704C22.1026 17.7106 21.7682 17.7155 21.5062 17.883L14.2721 22.5072C13.9982 22.6823 13.8535 23.0026 13.9032 23.3239L14.7404 28.7292C14.819 29.2365 15.1461 29.6632 15.6156 29.8709C15.8108 29.9573 16.0175 29.9999 16.2233 29.9999C16.5121 29.9999 16.799 29.9158 17.0491 29.7505L21.2804 26.9529C21.8451 26.5796 22.1989 25.9784 22.2509 25.3034L22.7658 18.6374C22.7899 18.3273 22.6363 18.0303 22.3694 17.8704Z" fill="#00ADFF"/>
<path d="M12.5473 24.5462C12.8738 24.8727 13.3377 25.0254 13.7931 24.9493C20.471 23.8327 25.7553 18.3036 27.7671 14.4141C30.001 10.0953 30.0838 5.53131 29.967 3.39087C29.927 2.65741 29.3423 2.07275 28.6089 2.03272C26.4684 1.91602 21.9045 1.99876 17.5856 4.23266C13.6962 6.24443 8.1671 11.5288 7.05051 18.2067C6.97438 18.6621 7.12707 19.126 7.45355 19.4525L12.5473 24.5462Z" fill="#F1F1FB"/>
<path d="M29.5481 2.45117L10.0005 21.9987L12.5474 24.5456C12.8738 24.8721 13.3378 25.0248 13.7931 24.9487C20.4711 23.8321 25.7554 18.303 27.7672 14.4136C30.0011 10.0947 30.0838 5.53076 29.9671 3.39031C29.947 3.02358 29.7909 2.69404 29.5481 2.45117Z" fill="#D7D6FB"/>
<path d="M21.1802 14.9199C20.1297 14.92 19.0797 14.5202 18.28 13.7205C17.5053 12.9459 17.0786 11.9158 17.0786 10.8203C17.0786 9.72476 17.5053 8.69473 18.28 7.92009C19.8791 6.32093 22.4811 6.32088 24.0803 7.92009C24.855 8.69473 25.2816 9.72476 25.2816 10.8203C25.2816 11.9158 24.855 12.9459 24.0803 13.7205C23.2809 14.52 22.2303 14.9198 21.1802 14.9199Z" fill="#466288"/>
<path d="M7.05099 18.2062C6.97487 18.6616 7.12756 19.1255 7.45404 19.452L12.5478 24.5457C12.8743 24.8722 13.3382 25.0249 13.7936 24.9488C15.2466 24.7058 16.6336 24.2538 17.9354 23.6553L8.34445 14.0645C7.74601 15.3662 7.29397 16.7532 7.05099 18.2062Z" fill="#466288"/>
<path d="M2.83688 25.0728C3.04677 25.0728 3.25677 24.9926 3.4169 24.8325L6.0951 22.1543C6.41546 21.834 6.41546 21.3145 6.0951 20.9942C5.7748 20.6738 5.25543 20.6738 4.93502 20.9942L2.25687 23.6724C1.93651 23.9927 1.93651 24.5121 2.25687 24.8325C2.41705 24.9927 2.62694 25.0728 2.83688 25.0728Z" fill="#00ADFF"/>
<path d="M8.54987 23.4492C8.22957 23.1289 7.71015 23.1289 7.38979 23.4492L2.24076 28.5982C1.9204 28.9185 1.9204 29.438 2.24076 29.7583C2.40094 29.9185 2.61088 29.9986 2.82083 29.9986C3.03077 29.9986 3.24072 29.9185 3.40084 29.7583L8.54987 24.6092C8.87023 24.2889 8.87023 23.7695 8.54987 23.4492Z" fill="#00ADFF"/>
<path d="M11.0038 25.9043C10.6835 25.584 10.1641 25.584 9.84371 25.9043L7.16556 28.5824C6.8452 28.9027 6.8452 29.4222 7.16556 29.7425C7.32574 29.9027 7.53569 29.9828 7.74558 29.9828C7.95547 29.9828 8.16546 29.9027 8.32559 29.7425L11.0038 27.0643C11.3242 26.744 11.3242 26.2246 11.0038 25.9043Z" fill="#0590FB"/>
<path d="M2.24023 29.7584C2.40041 29.9186 2.61036 29.9986 2.8203 29.9986C3.03025 29.9986 3.24019 29.9185 3.40032 29.7583L8.54935 24.6093C8.86971 24.289 8.86971 23.7696 8.54935 23.4492L2.24023 29.7584Z" fill="#0590FB"/>
<path d="M10.0005 22.0003L12.5474 24.5472C12.8738 24.8737 13.3378 25.0263 13.7931 24.9502C15.2462 24.7073 16.6332 24.2552 17.935 23.6568L13.1395 18.8613L10.0005 22.0003Z" fill="#354A67"/>
<path d="M18.2803 13.7184C19.08 14.5181 20.13 14.9179 21.1805 14.9178C22.2306 14.9177 23.2812 14.5179 24.0806 13.7184C24.8553 12.9437 25.2819 11.9137 25.2819 10.8182C25.2819 9.72264 24.8553 8.69261 24.0806 7.91797L18.2803 13.7184Z" fill="#354A67"/>
<path d="M21.1802 8.36133C20.55 8.36133 19.9198 8.60119 19.4401 9.08096C18.9753 9.54575 18.7192 10.1637 18.7192 10.8211C18.7192 11.4784 18.9753 12.0964 19.4401 12.5612C20.3996 13.5206 21.9609 13.5207 22.9204 12.5612C23.3852 12.0963 23.6412 11.4783 23.6412 10.821C23.6412 10.1637 23.3852 9.54569 22.9204 9.0809C22.4406 8.60119 21.8104 8.36133 21.1802 8.36133Z" fill="#4BBEFD"/>
<path d="M22.9202 9.08008L19.4399 12.5603C20.3994 13.5198 21.9608 13.5199 22.9202 12.5603C23.385 12.0955 23.641 11.4775 23.641 10.8202C23.641 10.1628 23.385 9.54487 22.9202 9.08008Z" fill="#0590FB"/>
</svg>
